<svg id="visual" viewBox="0 0 900 600" width="900" height="600" xmlns="http://www.w3.org/2000/svg" xmlns:xlink="http://www.w3.org/1999/xlink" version="1.1"><rect x="0" y="0" width="900" height="600" fill="#f5f5dc"></rect><g fill="none" stroke="#8B4513" stroke-width="1"><path d="M3.8 2.2L3.8 9.7L-3.8 9.7L-3.8 2.2L-10.3 -1.6L-6.5 -8.1L0 -4.4L6.5 -8.1L10.3 -1.6Z" transform="translate(390 115)"></path><path d="M0.3 0.2L0.3 0.7L-0.3 0.7L-0.3 0.2L-0.7 -0.1L-0.5 -0.6L0 -0.3L0.5 -0.6L0.7 -0.1Z" transform="translate(476 204)"></path><path d="M0.3 0.2L0.3 0.7L-0.3 0.7L-0.3 0.2L-0.7 -0.1L-0.5 -0.6L0 -0.3L0.5 -0.6L0.7 -0.1Z" transform="translate(643 228)"></path><path d="M0.3 0.2L0.3 0.7L-0.3 0.7L-0.3 0.2L-0.7 -0.1L-0.5 -0.6L0 -0.3L0.5 -0.6L0.7 -0.1Z" transform="translate(411 17)"></path><path d="M1.1 0.6L1.1 2.8L-1.1 2.8L-1.1 0.6L-2.9 -0.5L-1.9 -2.3L0 -1.2L1.9 -2.3L2.9 -0.5Z" transform="translate(252 532)"></path><path d="M1.3 0.8L1.3 3.5L-1.3 3.5L-1.3 0.8L-3.7 -0.6L-2.3 -2.9L0 -1.6L2.3 -2.9L3.7 -0.6Z" transform="translate(152 94)"></path><path d="M3 1.7L3 7.7L-3 7.7L-3 1.7L-8.1 -1.3L-5.1 -6.4L0 -3.4L5.1 -6.4L8.1 -1.3Z" transform="translate(598 560)"></path><path d="M1.9 1.1L1.9 4.9L-1.9 4.9L-1.9 1.1L-5.2 -0.8L-3.3 -4.1L0 -2.2L3.3 -4.1L5.2 -0.8Z" transform="translate(373 201)"></path><path d="M2.4 1.4L2.4 6.3L-2.4 6.3L-2.4 1.4L-6.6 -1L-4.2 -5.2L0 -2.8L4.2 -5.2L6.6 -1Z" transform="translate(381 395)"></path><path d="M0 0L0 0L0 0L0 0L0 0L0 0L0 0L0 0L0 0Z" transform="translate(746 135)"></path><path d="M0.3 0.2L0.3 0.7L-0.3 0.7L-0.3 0.2L-0.7 -0.1L-0.5 -0.6L0 -0.3L0.5 -0.6L0.7 -0.1Z" transform="translate(150 315)"></path><path d="M0.3 0.2L0.3 0.7L-0.3 0.7L-0.3 0.2L-0.7 -0.1L-0.5 -0.6L0 -0.3L0.5 -0.6L0.7 -0.1Z" transform="translate(610 20)"></path><path d="M0.8 0.5L0.8 2.1L-0.8 2.1L-0.8 0.5L-2.2 -0.3L-1.4 -1.7L0 -0.9L1.4 -1.7L2.2 -0.3Z" transform="translate(616 82)"></path><path d="M1.1 0.6L1.1 2.8L-1.1 2.8L-1.1 0.6L-2.9 -0.5L-1.9 -2.3L0 -1.2L1.9 -2.3L2.9 -0.5Z" transform="translate(551 376)"></path><path d="M1.6 0.9L1.6 4.2L-1.6 4.2L-1.6 0.9L-4.4 -0.7L-2.8 -3.5L0 -1.9L2.8 -3.5L4.4 -0.7Z" transform="translate(774 85)"></path><path d="M3 1.7L3 7.7L-3 7.7L-3 1.7L-8.1 -1.3L-5.1 -6.4L0 -3.4L5.1 -6.4L8.1 -1.3Z" transform="translate(76 220)"></path><path d="M0.3 0.2L0.3 0.7L-0.3 0.7L-0.3 0.2L-0.7 -0.1L-0.5 -0.6L0 -0.3L0.5 -0.6L0.7 -0.1Z" transform="translate(430 230)"></path><path d="M1.1 0.6L1.1 2.8L-1.1 2.8L-1.1 0.6L-2.9 -0.5L-1.9 -2.3L0 -1.2L1.9 -2.3L2.9 -0.5Z" transform="translate(841 78)"></path><path d="M2.2 1.2L2.2 5.6L-2.2 5.6L-2.2 1.2L-5.9 -0.9L-3.7 -4.7L0 -2.5L3.7 -4.7L5.9 -0.9Z" transform="translate(17 315)"></path><path d="M2.2 1.2L2.2 5.6L-2.2 5.6L-2.2 1.2L-5.9 -0.9L-3.7 -4.7L0 -2.5L3.7 -4.7L5.9 -0.9Z" transform="translate(507 261)"></path><path d="M0.8 0.5L0.8 2.1L-0.8 2.1L-0.8 0.5L-2.2 -0.3L-1.4 -1.7L0 -0.9L1.4 -1.7L2.2 -0.3Z" transform="translate(285 561)"></path><path d="M0.3 0.2L0.3 0.7L-0.3 0.7L-0.3 0.2L-0.7 -0.1L-0.5 -0.6L0 -0.3L0.5 -0.6L0.7 -0.1Z" transform="translate(823 298)"></path><path d="M1.9 1.1L1.9 4.9L-1.9 4.9L-1.9 1.1L-5.2 -0.8L-3.3 -4.1L0 -2.2L3.3 -4.1L5.2 -0.8Z" transform="translate(529 81)"></path><path d="M2.2 1.2L2.2 5.6L-2.2 5.6L-2.2 1.2L-5.9 -0.9L-3.7 -4.7L0 -2.5L3.7 -4.7L5.9 -0.9Z" transform="translate(304 102)"></path><path d="M3 1.7L3 7.7L-3 7.7L-3 1.7L-8.1 -1.3L-5.1 -6.4L0 -3.4L5.1 -6.4L8.1 -1.3Z" transform="translate(710 330)"></path><path d="M1.1 0.6L1.1 2.8L-1.1 2.8L-1.1 0.6L-2.9 -0.5L-1.9 -2.3L0 -1.2L1.9 -2.3L2.9 -0.5Z" transform="translate(555 28)"></path><path d="M2.4 1.4L2.4 6.3L-2.4 6.3L-2.4 1.4L-6.6 -1L-4.2 -5.2L0 -2.8L4.2 -5.2L6.6 -1Z" transform="translate(638 549)"></path><path d="M1.1 0.6L1.1 2.8L-1.1 2.8L-1.1 0.6L-2.9 -0.5L-1.9 -2.3L0 -1.2L1.9 -2.3L2.9 -0.5Z" transform="translate(816 563)"></path><path d="M1.9 1.1L1.9 4.9L-1.9 4.9L-1.9 1.1L-5.2 -0.8L-3.3 -4.1L0 -2.2L3.3 -4.1L5.2 -0.8Z" transform="translate(417 440)"></path><path d="M0.3 0.2L0.3 0.7L-0.3 0.7L-0.3 0.2L-0.7 -0.1L-0.5 -0.6L0 -0.3L0.5 -0.6L0.7 -0.1Z" transform="translate(823 188)"></path><path d="M0.5 0.3L0.5 1.4L-0.5 1.4L-0.5 0.3L-1.5 -0.2L-0.9 -1.2L0 -0.6L0.9 -1.2L1.5 -0.2Z" transform="translate(48 332)"></path><path d="M0.5 0.3L0.5 1.4L-0.5 1.4L-0.5 0.3L-1.5 -0.2L-0.9 -1.2L0 -0.6L0.9 -1.2L1.5 -0.2Z" transform="translate(243 358)"></path><path d="M1.3 0.8L1.3 3.5L-1.3 3.5L-1.3 0.8L-3.7 -0.6L-2.3 -2.9L0 -1.6L2.3 -2.9L3.7 -0.6Z" transform="translate(210 205)"></path><path d="M3 1.7L3 7.7L-3 7.7L-3 1.7L-8.1 -1.3L-5.1 -6.4L0 -3.4L5.1 -6.4L8.1 -1.3Z" transform="translate(140 504)"></path><path d="M0.5 0.3L0.5 1.4L-0.5 1.4L-0.5 0.3L-1.5 -0.2L-0.9 -1.2L0 -0.6L0.9 -1.2L1.5 -0.2Z" transform="translate(478 447)"></path><path d="M1.1 0.6L1.1 2.8L-1.1 2.8L-1.1 0.6L-2.9 -0.5L-1.9 -2.3L0 -1.2L1.9 -2.3L2.9 -0.5Z" transform="translate(37 173)"></path><path d="M1.3 0.8L1.3 3.5L-1.3 3.5L-1.3 0.8L-3.7 -0.6L-2.3 -2.9L0 -1.6L2.3 -2.9L3.7 -0.6Z" transform="translate(802 207)"></path><path d="M1.9 1.1L1.9 4.9L-1.9 4.9L-1.9 1.1L-5.2 -0.8L-3.3 -4.1L0 -2.2L3.3 -4.1L5.2 -0.8Z" transform="translate(375 533)"></path><path d="M1.6 0.9L1.6 4.2L-1.6 4.2L-1.6 0.9L-4.4 -0.7L-2.8 -3.5L0 -1.9L2.8 -3.5L4.4 -0.7Z" transform="translate(114 90)"></path><path d="M1.3 0.8L1.3 3.5L-1.3 3.5L-1.3 0.8L-3.7 -0.6L-2.3 -2.9L0 -1.6L2.3 -2.9L3.7 -0.6Z" transform="translate(70 57)"></path><path d="M1.6 0.9L1.6 4.2L-1.6 4.2L-1.6 0.9L-4.4 -0.7L-2.8 -3.5L0 -1.9L2.8 -3.5L4.4 -0.7Z" transform="translate(267 186)"></path><path d="M1.3 0.8L1.3 3.5L-1.3 3.5L-1.3 0.8L-3.7 -0.6L-2.3 -2.9L0 -1.6L2.3 -2.9L3.7 -0.6Z" transform="translate(512 505)"></path><path d="M0.3 0.2L0.3 0.7L-0.3 0.7L-0.3 0.2L-0.7 -0.1L-0.5 -0.6L0 -0.3L0.5 -0.6L0.7 -0.1Z" transform="translate(419 396)"></path><path d="M2.7 1.6L2.7 7L-2.7 7L-2.7 1.6L-7.4 -1.1L-4.7 -5.8L0 -3.1L4.7 -5.8L7.4 -1.1Z" transform="translate(703 134)"></path><path d="M1.1 0.6L1.1 2.8L-1.1 2.8L-1.1 0.6L-2.9 -0.5L-1.9 -2.3L0 -1.2L1.9 -2.3L2.9 -0.5Z" transform="translate(537 555)"></path><path d="M0.8 0.5L0.8 2.1L-0.8 2.1L-0.8 0.5L-2.2 -0.3L-1.4 -1.7L0 -0.9L1.4 -1.7L2.2 -0.3Z" transform="translate(146 248)"></path><path d="M0.3 0.2L0.3 0.7L-0.3 0.7L-0.3 0.2L-0.7 -0.1L-0.5 -0.6L0 -0.3L0.5 -0.6L0.7 -0.1Z" transform="translate(428 54)"></path><path d="M0.8 0.5L0.8 2.1L-0.8 2.1L-0.8 0.5L-2.2 -0.3L-1.4 -1.7L0 -0.9L1.4 -1.7L2.2 -0.3Z" transform="translate(264 422)"></path><path d="M1.1 0.6L1.1 2.8L-1.1 2.8L-1.1 0.6L-2.9 -0.5L-1.9 -2.3L0 -1.2L1.9 -2.3L2.9 -0.5Z" transform="translate(407 215)"></path><path d="M0.8 0.5L0.8 2.1L-0.8 2.1L-0.8 0.5L-2.2 -0.3L-1.4 -1.7L0 -0.9L1.4 -1.7L2.2 -0.3Z" transform="translate(666 307)"></path><path d="M2.4 1.4L2.4 6.3L-2.4 6.3L-2.4 1.4L-6.6 -1L-4.2 -5.2L0 -2.8L4.2 -5.2L6.6 -1Z" transform="translate(363 557)"></path><path d="M1.9 1.1L1.9 4.9L-1.9 4.9L-1.9 1.1L-5.2 -0.8L-3.3 -4.1L0 -2.2L3.3 -4.1L5.2 -0.8Z" transform="translate(766 354)"></path><path d="M2.7 1.6L2.7 7L-2.7 7L-2.7 1.6L-7.4 -1.1L-4.7 -5.8L0 -3.1L4.7 -5.8L7.4 -1.1Z" transform="translate(845 323)"></path><path d="M1.9 1.1L1.9 4.9L-1.9 4.9L-1.9 1.1L-5.2 -0.8L-3.3 -4.1L0 -2.2L3.3 -4.1L5.2 -0.8Z" transform="translate(435 472)"></path><path d="M1.1 0.6L1.1 2.8L-1.1 2.8L-1.1 0.6L-2.9 -0.5L-1.9 -2.3L0 -1.2L1.9 -2.3L2.9 -0.5Z" transform="translate(100 545)"></path><path d="M1.6 0.9L1.6 4.2L-1.6 4.2L-1.6 0.9L-4.4 -0.7L-2.8 -3.5L0 -1.9L2.8 -3.5L4.4 -0.7Z" transform="translate(713 242)"></path><path d="M0 0L0 0L0 0L0 0L0 0L0 0L0 0L0 0L0 0Z" transform="translate(737 569)"></path><path d="M0.5 0.3L0.5 1.4L-0.5 1.4L-0.5 0.3L-1.5 -0.2L-0.9 -1.2L0 -0.6L0.9 -1.2L1.5 -0.2Z" transform="translate(20 544)"></path><path d="M3.2 1.9L3.2 8.3L-3.2 8.3L-3.2 1.9L-8.8 -1.4L-5.6 -7L0 -3.7L5.6 -7L8.8 -1.4Z" transform="translate(362 65)"></path><path d="M3.2 1.9L3.2 8.3L-3.2 8.3L-3.2 1.9L-8.8 -1.4L-5.6 -7L0 -3.7L5.6 -7L8.8 -1.4Z" transform="translate(844 153)"></path><path d="M3 1.7L3 7.7L-3 7.7L-3 1.7L-8.1 -1.3L-5.1 -6.4L0 -3.4L5.1 -6.4L8.1 -1.3Z" transform="translate(556 466)"></path><path d="M0.8 0.5L0.8 2.1L-0.8 2.1L-0.8 0.5L-2.2 -0.3L-1.4 -1.7L0 -0.9L1.4 -1.7L2.2 -0.3Z" transform="translate(92 410)"></path><path d="M0 0L0 0L0 0L0 0L0 0L0 0L0 0L0 0L0 0Z" transform="translate(625 249)"></path><path d="M1.1 0.6L1.1 2.8L-1.1 2.8L-1.1 0.6L-2.9 -0.5L-1.9 -2.3L0 -1.2L1.9 -2.3L2.9 -0.5Z" transform="translate(581 582)"></path><path d="M0.8 0.5L0.8 2.1L-0.8 2.1L-0.8 0.5L-2.2 -0.3L-1.4 -1.7L0 -0.9L1.4 -1.7L2.2 -0.3Z" transform="translate(180 580)"></path><path d="M0.3 0.2L0.3 0.7L-0.3 0.7L-0.3 0.2L-0.7 -0.1L-0.5 -0.6L0 -0.3L0.5 -0.6L0.7 -0.1Z" transform="translate(168 552)"></path><path d="M2.7 1.6L2.7 7L-2.7 7L-2.7 1.6L-7.4 -1.1L-4.7 -5.8L0 -3.1L4.7 -5.8L7.4 -1.1Z" transform="translate(601 49)"></path><path d="M1.3 0.8L1.3 3.5L-1.3 3.5L-1.3 0.8L-3.7 -0.6L-2.3 -2.9L0 -1.6L2.3 -2.9L3.7 -0.6Z" transform="translate(619 472)"></path><path d="M2.4 1.4L2.4 6.3L-2.4 6.3L-2.4 1.4L-6.6 -1L-4.2 -5.2L0 -2.8L4.2 -5.2L6.6 -1Z" transform="translate(568 188)"></path><path d="M2.2 1.2L2.2 5.6L-2.2 5.6L-2.2 1.2L-5.9 -0.9L-3.7 -4.7L0 -2.5L3.7 -4.7L5.9 -0.9Z" transform="translate(14 150)"></path><path d="M1.6 0.9L1.6 4.2L-1.6 4.2L-1.6 0.9L-4.4 -0.7L-2.8 -3.5L0 -1.9L2.8 -3.5L4.4 -0.7Z" transform="translate(851 566)"></path><path d="M2.7 1.6L2.7 7L-2.7 7L-2.7 1.6L-7.4 -1.1L-4.7 -5.8L0 -3.1L4.7 -5.8L7.4 -1.1Z" transform="translate(736 289)"></path><path d="M3.2 1.9L3.2 8.3L-3.2 8.3L-3.2 1.9L-8.8 -1.4L-5.6 -7L0 -3.7L5.6 -7L8.8 -1.4Z" transform="translate(562 431)"></path><path d="M0.3 0.2L0.3 0.7L-0.3 0.7L-0.3 0.2L-0.7 -0.1L-0.5 -0.6L0 -0.3L0.5 -0.6L0.7 -0.1Z" transform="translate(175 345)"></path><path d="M0 0L0 0L0 0L0 0L0 0L0 0L0 0L0 0L0 0Z" transform="translate(560 163)"></path><path d="M3.2 1.9L3.2 8.3L-3.2 8.3L-3.2 1.9L-8.8 -1.4L-5.6 -7L0 -3.7L5.6 -7L8.8 -1.4Z" transform="translate(426 355)"></path><path d="M3 1.7L3 7.7L-3 7.7L-3 1.7L-8.1 -1.3L-5.1 -6.4L0 -3.4L5.1 -6.4L8.1 -1.3Z" transform="translate(599 218)"></path><path d="M0.8 0.5L0.8 2.1L-0.8 2.1L-0.8 0.5L-2.2 -0.3L-1.4 -1.7L0 -0.9L1.4 -1.7L2.2 -0.3Z" transform="translate(428 153)"></path><path d="M1.6 0.9L1.6 4.2L-1.6 4.2L-1.6 0.9L-4.4 -0.7L-2.8 -3.5L0 -1.9L2.8 -3.5L4.4 -0.7Z" transform="translate(726 28)"></path><path d="M0.8 0.5L0.8 2.1L-0.8 2.1L-0.8 0.5L-2.2 -0.3L-1.4 -1.7L0 -0.9L1.4 -1.7L2.2 -0.3Z" transform="translate(212 269)"></path><path d="M1.9 1.1L1.9 4.9L-1.9 4.9L-1.9 1.1L-5.2 -0.8L-3.3 -4.1L0 -2.2L3.3 -4.1L5.2 -0.8Z" transform="translate(601 523)"></path><path d="M1.6 0.9L1.6 4.2L-1.6 4.2L-1.6 0.9L-4.4 -0.7L-2.8 -3.5L0 -1.9L2.8 -3.5L4.4 -0.7Z" transform="translate(633 318)"></path><path d="M1.6 0.9L1.6 4.2L-1.6 4.2L-1.6 0.9L-4.4 -0.7L-2.8 -3.5L0 -1.9L2.8 -3.5L4.4 -0.7Z" transform="translate(410 541)"></path><path d="M1.1 0.6L1.1 2.8L-1.1 2.8L-1.1 0.6L-2.9 -0.5L-1.9 -2.3L0 -1.2L1.9 -2.3L2.9 -0.5Z" transform="translate(643 131)"></path><path d="M2.2 1.2L2.2 5.6L-2.2 5.6L-2.2 1.2L-5.9 -0.9L-3.7 -4.7L0 -2.5L3.7 -4.7L5.9 -0.9Z" transform="translate(49 367)"></path><path d="M0.3 0.2L0.3 0.7L-0.3 0.7L-0.3 0.2L-0.7 -0.1L-0.5 -0.6L0 -0.3L0.5 -0.6L0.7 -0.1Z" transform="translate(127 472)"></path><path d="M2.7 1.6L2.7 7L-2.7 7L-2.7 1.6L-7.4 -1.1L-4.7 -5.8L0 -3.1L4.7 -5.8L7.4 -1.1Z" transform="translate(471 70)"></path><path d="M2.7 1.6L2.7 7L-2.7 7L-2.7 1.6L-7.4 -1.1L-4.7 -5.8L0 -3.1L4.7 -5.8L7.4 -1.1Z" transform="translate(694 79)"></path><path d="M2.4 1.4L2.4 6.3L-2.4 6.3L-2.4 1.4L-6.6 -1L-4.2 -5.2L0 -2.8L4.2 -5.2L6.6 -1Z" transform="translate(884 123)"></path><path d="M2.7 1.6L2.7 7L-2.7 7L-2.7 1.6L-7.4 -1.1L-4.7 -5.8L0 -3.1L4.7 -5.8L7.4 -1.1Z" transform="translate(481 163)"></path><path d="M2.7 1.6L2.7 7L-2.7 7L-2.7 1.6L-7.4 -1.1L-4.7 -5.8L0 -3.1L4.7 -5.8L7.4 -1.1Z" transform="translate(188 387)"></path></g></svg>