<svg xmlns="http://www.w3.org/2000/svg" version="1.1" xmlns:xlink="http://www.w3.org/1999/xlink" xmlns:svgjs="http://svgjs.dev/svgjs" viewBox="0 0 800 800"><g fill="none" stroke-width="2" stroke="hsl(70, 69%, 50%)" stroke-linecap="round" stroke-dasharray="94"><path d="M683.05 101.63C857.89 131.46 967.82 188.17 998.59 271.94 960.95 362.73 866.08 488 747.9 637.11 610.49 777.34 485.68 907.82 390.19 989.9 297.61 1000.59 234.3 924.42 204.48 765.66 174.65 570.65 181.13 388.36 222.03 258.63 265.84 191.07 344.11 186.3 442.43 220.65 521.52 289.93 584.76 357.79 600.54 401.48 547.9 447.91 425.89 459.76 251.05 429.94 60.97 400.11 -88.66 331.44 -170.03 233.33 -187.86 137.95 -139.27 23.54 -52.32 -84.81 64.14 -158.25 180.99 -185.11 276.02 -139.41 372.28 -31.55 439.36 138.65 469.19 333.66 499.02 492.42 488.77 580.68 444.2 591.84 400.86 531.62 330.55 432.78 253.16 331.63 205.29 221.62 188.32 142.89 228 103.78 331.21 71.7 492.93 71.8 682.98 101.62Q683.05 101.63 683.05 101.63" opacity="0.35"></path><path d="M647.05 304.18C795.6 329.03 900.59 385.61 951.11 467.61 955.62 549.66 913.85 653.9 845.58 765.12 755.47 858.93 663.78 933.93 587.54 965.77 508.77 946.65 452.8 866.29 427.95 729.66 403.09 567.69 411.7 409.89 447.41 283.31 480.58 192.75 533.48 145.74 591.02 132.85 626.72 148.84 642.12 175.15 619.4 194.26 550.66 219.7 435.6 224.34 287.05 199.48 127.85 174.63 -5.53 122.64 -93.92 54.13 -143.12 -8.04 -143.04 -73.14 -107.76 -121.7 -46.36 -141.39 26.56 -120.74 92.68 -48.41 163.9 59.93 216.87 207.64 241.72 369.59 266.57 506.26 260.97 596.71 232.81 634.06 209.76 620.44 175.61 571.8 146.8 510.57 144.08 431.91 170.37 366.46 237.78 327.48 344.39 288.55 487.85 279.33 647.05 304.18Q647.05 304.18 647.05 304.18" opacity="0.69"></path><path d="M611.05 540.2C731.92 560.08 825.39 603.84 884.02 664 915.7 721.1 914.67 787.69 890.36 850.97 848.96 897.85 798.79 925.16 752.06 919.92 701.24 882.98 662.14 806.19 642.26 693.66 622.37 564.83 623.59 435.75 639.96 323.36 652.24 228.11 671.37 159.01 686.72 114.97 684.97 89.11 664.91 76.95 618.65 69.19 545.45 67.14 443.92 58.96 323.05 39.08 195.33 19.19 83.25 -10.5 -1.1 -42.9 -64.87 -69.6 -96.14 -88.47 -99.94 -88.66 -86.23 -70.68 -57.33 -22.67 -24.34 57.99 13.72 155.81 46.27 276.83 66.15 405.66 86.04 518.18 91.38 603.04 87.76 654.55 89.22 674.36 91.35 668.15 103.69 647.33 133.54 610.1 185.9 574.54 264.23 551.9 363.15 526.19 483.28 520.31 610.98 540.19Q611.05 540.2 611.05 540.2" opacity="0.76"></path><path d="M574.67 727.18C749.59 757 849.44 823.42 870.49 874.84 852.7 884.35 807.1 816.35 777.28 657.6 747.46 462.59 739.05 282.15 717.75 165.64 657.62 81.8 533.59 34.51 358.67 4.69 168.64 -25.12 31.72 -31.83 -26.13 12.91 -49.52 90.33 -29.82 246.59 0 441.6 29.82 600.35 64.11 692.53 126.59 722.11 223.54 709.77 384.64 697.36 574.67 727.18Q574.67 727.18 574.67 727.18" opacity="0.49"></path><path d="M539.05 799.96C659.92 819.84 745.07 834.92 785.22 828.16 810.65 803.69 808.31 734.19 788.43 621.66 768.54 492.81 734.88 365.77 683.39 271.51 617.19 185.67 515.92 128.37 395.05 108.49 267.31 88.6 164.73 109.9 106.13 169.68 58.22 237.89 45.07 348.81 64.96 477.66 84.84 590.19 133.98 675.81 207.95 726.34 292.61 759.15 411.31 780.08 539.05 799.96Q539.05 799.96 539.05 799.96" opacity="0.35"></path></g></svg>