<svg xmlns="http://www.w3.org/2000/svg" version="1.1" xmlns:xlink="http://www.w3.org/1999/xlink" xmlns:svgjs="http://svgjs.dev/svgjs" viewBox="0 0 800 800"><g fill="none" stroke-width="4.5" stroke="hsl(70, 69%, 50%)" stroke-linecap="round" stroke-dasharray="94"><path d="M675.08 550.59C496.92 570.47 331.43 553.22 209.67 502.56 136.79 450.5 117.41 367.51 134.88 269.96 184.29 194.55 239.04 140.19 278.48 136.44 322.78 198.43 339.34 327.35 319.46 504.45 299.57 690.27 245.13 833.88 166.38 910.41 92.49 924.27 6.7 876.01 -68.76 793.25 -112.28 682.67 -113.99 574.16 -55.69 488.6 51.49 402.06 208.92 345.14 387.08 325.26 538.94 305.38 635.14 324.42 667.04 376.5 638.43 427.6 569.19 505.08 487.67 589.6 389.66 646.3 309.84 673.48 261.41 645.04 215.25 553.94 200.74 402.27 220.62 216.45 240.48 39.34 292.86 -81.51 373.47 -128.92 456.34 -110.6 567.2 -35.15 691.28 66.31 798.86 189.92 889.2 303.94 932.4 390.45 915.1 475.57 826.98 530.7 675.16 550.58Q675.08 550.59 675.08 550.59" opacity="0.82"></path><path d="M639.59 218.38C373.62 248.2 169.09 181.48 82.15 100.07 71.71 98.67 88.5 218.49 58.68 468.39 28.85 737.44 -41.92 875.94 -70.57 871.9 -22.72 783.75 157.62 677.9 423.59 648.08 631.36 618.26 703.46 670.1 674.66 719.17 577.72 684.11 508.01 521.44 537.84 252.39 567.66 2.49 691.37 -93.14 827.39 -52.65 895.28 67.84 847.36 188.56 639.59 218.38Q639.59 218.38 639.59 218.38" opacity="0.29"></path><path d="M603.08 11.7C424.92 31.58 262.74 38.39 157.58 64.31 77.95 127.14 34.19 255.35 14.31 432.45 -5.57 618.29 2.19 751.71 55.76 809.75 134.86 833.54 280.92 819.48 459.08 799.6 610.95 779.71 708.12 757.77 747.81 707.93 752.79 623.83 748.62 474.29 768.51 288.45 788.39 111.35 828.55 -0.73 849.63 -37.5 836.01 -37.37 754.95 -8.17 603.08 11.7Q603.08 11.7 603.08 11.7" opacity="0.34"></path></g></svg>