<svg xmlns="http://www.w3.org/2000/svg" version="1.1" xmlns:xlink="http://www.w3.org/1999/xlink" xmlns:svgjs="http://svgjs.dev/svgjs" viewBox="0 0 1422 800"><g fill="none" stroke-width="2" stroke="hsl(70, 69%, 50%)" stroke-linecap="round" stroke-dasharray="150"><path d="M563.38 0.56C813.05 30.38 1120.7 61.86 1291 130.93 1262.88 243.44 1066.96 446.36 831.25 712.78 605.4 917.61 465.97 978.13 400.63 795.87 373.45 484.49 360.88 238.19 331.06 291.84 301.24 622.99 256.98 931.51 232.47 991.16 246.13 793.66 339.02 488.53 525.78 254.47 722.4 135.04 886.69 143.1 892.95 194.99 700.79 282.43 381.05 326.96 131.38 297.14 130.12 267.32 368.84 165.96 668.29 26.84 886.32 -76.72 927.82 -131.33 839.12 -50.99 665.1 143.97 509.15 417.47 419.83 593.11 350.54 511.6 338.42 190.99 368.24 -140.15 398.07 -193.8 467.01 64.58 587.98 397.82 728.98 601.94 931.48 573.06 1144.59 407.31 1272.38 179.99 1262.52 23.6 1066.34 -37.21 788.75 -54.6 562.12 -29.25 563.38 0.56Q563.38 0.56 563.38 0.56" opacity="0.40"></path><path d="M527.91 219.7C725.07 244.55 984.43 328.36 1181.03 465.54 1266.07 603.11 1212.52 771.02 1078.07 904.68 892.62 936.54 723.49 831.59 603.73 590.98 495.9 338.71 431.81 186.12 406.96 255.95 382.1 523.16 398.84 807.77 463.6 952.93 540.29 918.67 670.63 737.22 823.51 519.29 925.38 303.51 952.57 161.53 849.32 88.7 634.5 48.56 365.07 29.32 167.91 4.47 146.26 -20.37 304.55 -48.5 544.4 -51.42 784.52 -21.66 935.34 81.52 982.94 264.73 945.65 450.09 866.8 605.18 799.14 621.22 720.82 457.85 687.15 163.16 712.01 -104.04 736.86 -173.87 817.88 -11.2 939.27 259.27 1108.82 583.75 1160.24 484.47 876.11 325.41 654.47 231.3 506.26 194.84 527.91 219.7Q527.91 219.7 527.91 219.7" opacity="0.41"></path><path d="M491.91 655.75C639.21 675.63 839.5 732.28 1022.53 804.74 1163.09 858.03 1219.96 887.99 1204.8 855.96 1135.93 762.28 1040.94 591.66 954.75 380.87 860.45 215.77 796.62 144.04 776.74 219.95 756.86 424.65 782.81 661.24 842.65 836.8 894.38 920.82 958.35 890.7 1001.15 789.12 990.26 637.52 912.3 489.61 757.16 378.85 559.56 272.34 351.21 207.66 203.91 187.78 170.64 167.9 259.06 194.69 421.69 266.75 621.51 343.05 799.45 459.94 923.85 585.47 1005.14 661 1037.7 670.03 1045.62 571.43 1036.66 381.3 1034.26 136.65 1054.14 -68.04 1074.01 -143.95 1114.28 -64.17 1157.7 115.5 1184.26 340.87 1182.75 532.57 1127.53 652.31 1029.21 710.4 872.36 711.47 687.12 692.64 539.04 654.63 458.65 635.86 491.86 655.74Q491.91 655.75 491.91 655.75" opacity="0.66"></path><path d="M455.91 783.95C706.23 813.77 993.61 769.3 1133.14 581.56 1167.61 353.37 1112.71 130.29 1082.89 183.95 1053.06 515.1 1053.97 806.41 980.41 875.83 801.79 791.66 490.23 656.35 239.91 626.53 237.62 596.71 466.63 678.01 705.52 723.09 922.87 614.59 1034.31 299.1 1064.14 -32.04 1093.96 -85.7 1036.51 161.54 858.25 428.83 658.45 655.66 453.62 754.13 455.91 783.95Q455.91 783.95 455.91 783.95" opacity="0.33"></path><path d="M419.91 449.99C567.21 469.87 752.74 384.17 886.51 240.13 1003.2 132.78 1048.96 72.04 1029.08 147.95 1009.19 352.69 927.43 573.62 784.68 707.99 624.86 797.62 423.21 812.48 275.91 792.6 242.64 772.72 328.48 721.86 451.31 606.17 602.73 445.73 712.44 208.69 732.32 3.95 752.2 -71.95 678.5 4.9 553.13 138.3 456.36 308.4 386.64 430.11 419.91 449.99Q419.91 449.99 419.91 449.99" opacity="0.48"></path></g></svg>