<svg xmlns="http://www.w3.org/2000/svg" version="1.1" xmlns:xlink="http://www.w3.org/1999/xlink" xmlns:svgjs="http://svgjs.dev/svgjs" viewBox="0 0 800 800"><g fill="none" stroke-width="2.25" stroke="hsl(70, 69%, 50%)" stroke-linecap="round" stroke-dasharray="150"><path d="M932.81 5.6C726.39 35.43 482.27 80.54 292.08 163.03 192.36 274.9 196.37 458.17 264.1 691.48 381.02 884.89 488.44 987.94 555.23 907.36 618.19 674.6 635.48 381.35 605.65 218.66 575.83 313.42 501.72 582.52 387.07 840.84 268.6 979.82 114.64 933.71 -41.36 773.68 -148.18 550.11 -183.82 355.26 -105.96 226.2 62.36 120.74 294.39 61.19 500.81 31.37 583.9 1.55 524.09 4.27 370.81 58.05 167.47 135.42 -0.26 283.73 -94.05 468.21 -129.67 589.15 -101.64 603.62 -46.59 442.79 27.96 162.61 90.77 -118.57 120.59 -213.33 150.43 -50.64 144.45 254.69 121.57 509.3 118.2 611.75 136.69 540.33 211.39 386.01 344.25 191.78 543.62 55.06 768.82 -5.12 943.97 -35.93 1015.9 -24.22 932.86 5.59Q932.81 5.6 932.81 5.6" opacity="0.84"></path><path d="M896.81 243.07C730.35 267.92 527.71 344.44 347.79 465.97 212.84 587.76 146.6 739.78 137.19 876.48 174.15 942.91 227.63 911.23 268.91 754.44 317.73 532.14 335.24 303.01 310.38 182.66 285.53 244.29 220.67 442.24 128.78 668.68 44.42 859.41 -47.83 937.53 -117.36 911.86 -140.52 808.82 -100.64 674.11 16.08 557.67 177.79 435.65 370.35 356.36 536.81 331.5 616.73 306.65 597.09 338.59 502.86 417.54 353.19 490.9 202.92 586.83 87.76 657.3 -5.41 650.4 -49.45 545.93 -55.64 337.01 -47.39 92.37 -24.66 -115.65 0.18 -177.34 25.04 -57.04 49.66 182.16 84.48 422.68 133.74 597.72 216.57 655.78 342.32 621.92 490.05 517.8 666.69 404.56 834.57 325.84 947.02 247.38 976.73 218.21 896.81 243.07Q896.81 243.07 896.81 243.07" opacity="0.09"></path><path d="M860.81 624.81C732.65 644.69 575.19 699.18 422.77 772.15 284.94 832.2 183.76 883.4 121.94 894.02 89.13 853.82 79.95 744.65 78.69 573.25 86.48 392.74 85.05 229.91 65.17 146.66 45.29 181.54 8.83 311.51 -33.4 481.09 -66.59 662.25 -88.45 796.21 -81.69 865.62 -45.93 887.89 34.15 863.09 157.4 819.87 295.25 761.8 444.65 714.49 572.81 694.61 645.13 674.72 654.3 684.16 611.23 707.77 522.46 716.53 417.86 710.31 322.55 661.98 225.38 566.5 156.13 411.46 119.54 215.72 88.33 31.57 83.22 -106.45 103.11 -141.33 122.97 -58.08 165.95 112.79 231.61 307.88 302.65 493.85 402.92 624.11 526.15 690.37 647.52 705.81 773.22 685.64 876.57 660.04 934.23 621.53 933.14 604.92 860.86 624.8Q860.81 624.81 860.81 624.81" opacity="0.32"></path><path d="M825.12 799.8C618.86 829.62 380.13 830.85 215.79 723.44 95.86 544.95 36.89 273.27 7.07 110.6 -22.75 205.36 -17.77 452.79 63.06 644.88 188.31 788.49 402.86 816.61 609.12 786.78 691.91 756.96 644.35 674.85 549.94 492.14 416.96 260.96 341.52 -10.63 371.34 -105.39 401.16 57.27 530.61 353.13 702.68 570.71 836.17 717.21 907.91 769.98 825.12 799.8Q825.12 799.8 825.12 799.8" opacity="0.07"></path><path d="M788.81 607.27C660.65 627.15 507.12 564.02 383.61 434.47 265.23 307.05 188.19 157.91 168.31 74.66 148.42 109.56 189.46 227 281.78 343.42 379.24 473.77 516.65 543.29 644.81 523.41 717.13 503.53 731.6 398 713.23 241.59 667.06 99.11 636.43 -34.43 656.31 -69.33 676.19 13.91 742.82 179.17 815.05 332.65 859.48 488.26 861.13 587.39 788.81 607.27Q788.81 607.27 788.81 607.27" opacity="0.89"></path></g></svg>