<svg id="visual" viewBox="0 0 900 30" width="900" height="30" xmlns="http://www.w3.org/2000/svg" xmlns:xlink="http://www.w3.org/1999/xlink" version="1.1"><path d="M0 14L4.8 13.3C9.7 12.7 19.3 11.3 29 13.2C38.7 15 48.3 20 58 21.2C67.7 22.3 77.3 19.7 87 16.7C96.7 13.7 106.3 10.3 116 8.8C125.7 7.3 135.3 7.7 145 7.2C154.7 6.7 164.3 5.3 174 7.8C183.7 10.3 193.3 16.7 203 18.8C212.7 21 222.3 19 232 16.8C241.7 14.7 251.3 12.3 261 10.7C270.7 9 280.3 8 290 8.2C299.7 8.3 309.3 9.7 319 12.3C328.7 15 338.3 19 348 17.2C357.7 15.3 367.3 7.7 377 5.5C386.7 3.3 396.3 6.7 406 8C415.7 9.3 425.3 8.7 435.2 8.8C445 9 455 10 464.8 12.8C474.7 15.7 484.3 20.3 494 22.3C503.7 24.3 513.3 23.7 523 22.5C532.7 21.3 542.3 19.7 552 16.3C561.7 13 571.3 8 581 8.8C590.7 9.7 600.3 16.3 610 18.2C619.7 20 629.3 17 639 13.2C648.7 9.3 658.3 4.7 668 5.7C677.7 6.7 687.3 13.3 697 14C706.7 14.7 716.3 9.3 726 7.3C735.7 5.3 745.3 6.7 755 9.5C764.7 12.3 774.3 16.7 784 15.8C793.7 15 803.3 9 813 10C822.7 11 832.3 19 842 21.3C851.7 23.7 861.3 20.3 871 16.5C880.7 12.7 890.3 8.3 895.2 6.2L900 4L900 31L895.2 31C890.3 31 880.7 31 871 31C861.3 31 851.7 31 842 31C832.3 31 822.7 31 813 31C803.3 31 793.7 31 784 31C774.3 31 764.7 31 755 31C745.3 31 735.7 31 726 31C716.3 31 706.7 31 697 31C687.3 31 677.7 31 668 31C658.3 31 648.7 31 639 31C629.3 31 619.7 31 610 31C600.3 31 590.7 31 581 31C571.3 31 561.7 31 552 31C542.3 31 532.7 31 523 31C513.3 31 503.7 31 494 31C484.3 31 474.7 31 464.8 31C455 31 445 31 435.2 31C425.3 31 415.7 31 406 31C396.3 31 386.7 31 377 31C367.3 31 357.7 31 348 31C338.3 31 328.7 31 319 31C309.3 31 299.7 31 290 31C280.3 31 270.7 31 261 31C251.3 31 241.7 31 232 31C222.3 31 212.7 31 203 31C193.3 31 183.7 31 174 31C164.3 31 154.7 31 145 31C135.3 31 125.7 31 116 31C106.3 31 96.7 31 87 31C77.3 31 67.7 31 58 31C48.3 31 38.7 31 29 31C19.3 31 9.7 31 4.8 31L0 31Z" fill="#3a3a3a" stroke-linecap="round" stroke-linejoin="miter"></path></svg>