<svg id="visual" viewBox="0 0 900 600" width="900" height="600" xmlns="http://www.w3.org/2000/svg" xmlns:xlink="http://www.w3.org/1999/xlink" version="1.1"><rect x="0" y="0" width="900" height="600" fill="#f5f5dc"></rect><g fill="none" stroke="#8B4513" stroke-width="2"><circle r="12" cx="806" cy="434"></circle><circle r="3" cx="366" cy="277"></circle><circle r="9" cx="337" cy="79"></circle><circle r="10" cx="582" cy="546"></circle><circle r="5" cx="46" cy="480"></circle><circle r="6" cx="82" cy="410"></circle><circle r="10" cx="727" cy="206"></circle><circle r="5" cx="151" cy="424"></circle><circle r="3" cx="76" cy="476"></circle><circle r="9" cx="830" cy="215"></circle><circle r="5" cx="561" cy="162"></circle><circle r="7" cx="697" cy="130"></circle><circle r="6" cx="284" cy="174"></circle><circle r="5" cx="349" cy="361"></circle><circle r="2" cx="408" cy="170"></circle><circle r="5" cx="744" cy="535"></circle><circle r="2" cx="878" cy="580"></circle><circle r="7" cx="829" cy="393"></circle><circle r="4" cx="637" cy="498"></circle><circle r="5" cx="394" cy="550"></circle><circle r="8" cx="864" cy="335"></circle><circle r="7" cx="820" cy="265"></circle><circle r="7" cx="685" cy="315"></circle><circle r="2" cx="21" cy="533"></circle><circle r="7" cx="362" cy="98"></circle><circle r="7" cx="570" cy="465"></circle><circle r="10" cx="188" cy="559"></circle><circle r="6" cx="364" cy="222"></circle><circle r="8" cx="569" cy="96"></circle><circle r="9" cx="458" cy="87"></circle><circle r="10" cx="786" cy="68"></circle><circle r="6" cx="720" cy="559"></circle><circle r="3" cx="695" cy="437"></circle><circle r="8" cx="788" cy="148"></circle><circle r="4" cx="117" cy="71"></circle><circle r="5" cx="78" cy="40"></circle><circle r="10" cx="618" cy="296"></circle><circle r="3" cx="431" cy="344"></circle><circle r="6" cx="542" cy="585"></circle><circle r="6" cx="242" cy="159"></circle><circle r="6" cx="671" cy="208"></circle><circle r="8" cx="788" cy="27"></circle><circle r="9" cx="314" cy="98"></circle><circle r="8" cx="618" cy="462"></circle><circle r="6" cx="469" cy="58"></circle><circle r="4" cx="398" cy="88"></circle><circle r="4" cx="742" cy="133"></circle><circle r="10" cx="488" cy="98"></circle><circle r="10" cx="396" cy="418"></circle><circle r="10" cx="442" cy="416"></circle><circle r="6" cx="794" cy="515"></circle><circle r="6" cx="140" cy="539"></circle><circle r="7" cx="382" cy="312"></circle><circle r="4" cx="134" cy="506"></circle><circle r="8" cx="432" cy="99"></circle><circle r="10" cx="451" cy="459"></circle><circle r="9" cx="594" cy="312"></circle><circle r="6" cx="720" cy="170"></circle><circle r="10" cx="535" cy="99"></circle><circle r="5" cx="643" cy="193"></circle><circle r="8" cx="883" cy="218"></circle><circle r="9" cx="651" cy="143"></circle><circle r="7" cx="231" cy="448"></circle><circle r="3" cx="188" cy="386"></circle><circle r="4" cx="278" cy="486"></circle><circle r="3" cx="641" cy="379"></circle><circle r="9" cx="217" cy="541"></circle><circle r="7" cx="752" cy="303"></circle><circle r="9" cx="262" cy="409"></circle><circle r="9" cx="475" cy="182"></circle><circle r="10" cx="803" cy="579"></circle><circle r="6" cx="709" cy="229"></circle><circle r="2" cx="495" cy="215"></circle><circle r="3" cx="38" cy="184"></circle><circle r="2" cx="462" cy="322"></circle><circle r="10" cx="865" cy="397"></circle><circle r="7" cx="46" cy="425"></circle><circle r="7" cx="596" cy="194"></circle><circle r="9" cx="489" cy="374"></circle><circle r="2" cx="153" cy="567"></circle><circle r="5" cx="828" cy="486"></circle><circle r="4" cx="746" cy="479"></circle><circle r="7" cx="313" cy="210"></circle><circle r="9" cx="126" cy="165"></circle><circle r="3" cx="141" cy="93"></circle><circle r="10" cx="73" cy="180"></circle><circle r="10" cx="387" cy="382"></circle><circle r="7" cx="660" cy="25"></circle><circle r="7" cx="181" cy="431"></circle><circle r="10" cx="689" cy="366"></circle><circle r="6" cx="59" cy="451"></circle><circle r="3" cx="797" cy="382"></circle><circle r="2" cx="325" cy="22"></circle><circle r="6" cx="882" cy="249"></circle><circle r="10" cx="507" cy="294"></circle><circle r="8" cx="615" cy="16"></circle><circle r="10" cx="517" cy="350"></circle><circle r="4" cx="415" cy="236"></circle><circle r="9" cx="420" cy="287"></circle><circle r="6" cx="201" cy="210"></circle><circle r="4" cx="740" cy="580"></circle><circle r="10" cx="750" cy="18"></circle><circle r="6" cx="577" cy="514"></circle><circle r="2" cx="33" cy="560"></circle><circle r="7" cx="663" cy="273"></circle><circle r="6" cx="163" cy="206"></circle><circle r="9" cx="879" cy="365"></circle><circle r="8" cx="481" cy="290"></circle><circle r="3" cx="284" cy="519"></circle><circle r="6" cx="828" cy="304"></circle><circle r="7" cx="595" cy="386"></circle><circle r="6" cx="864" cy="94"></circle><circle r="9" cx="687" cy="284"></circle><circle r="7" cx="162" cy="334"></circle><circle r="9" cx="131" cy="285"></circle><circle r="2" cx="241" cy="14"></circle><circle r="9" cx="24" cy="395"></circle><circle r="9" cx="678" cy="555"></circle><circle r="4" cx="536" cy="458"></circle><circle r="7" cx="438" cy="173"></circle><circle r="6" cx="269" cy="350"></circle><circle r="5" cx="227" cy="482"></circle><circle r="8" cx="333" cy="572"></circle><circle r="10" cx="866" cy="15"></circle></g></svg>