<svg id="visual" viewBox="0 0 900 600" width="900" height="600" xmlns="http://www.w3.org/2000/svg" xmlns:xlink="http://www.w3.org/1999/xlink" version="1.1"><g stroke-width="1" stroke-linejoin="bevel"><path d="M412 358.7L395 391.4L430 375.9Z" fill="#1c3e44" stroke="#1c3e44"></path><path d="M455 413.4L451 373.9L430 375.9Z" fill="#1c3e44" stroke="#1c3e44"></path><path d="M430 375.9L451 373.9L412 358.7Z" fill="#2f4f4f" stroke="#2f4f4f"></path><path d="M395 391.4L437 419.6L430 375.9Z" fill="#062836" stroke="#062836"></path><path d="M412 358.7L364 348L395 391.4Z" fill="#1c3e44" stroke="#1c3e44"></path><path d="M437 419.6L455 413.4L430 375.9Z" fill="#28494b" stroke="#28494b"></path><path d="M364 348L348 408.9L395 391.4Z" fill="#2f4f4f" stroke="#2f4f4f"></path><path d="M395 391.4L368 438.6L437 419.6Z" fill="#011d2d" stroke="#011d2d"></path><path d="M348 408.9L368 438.6L395 391.4Z" fill="#032332" stroke="#032332"></path><path d="M455 413.4L492 381L451 373.9Z" fill="#224448" stroke="#224448"></path><path d="M451 373.9L499 329.1L412 358.7Z" fill="#062836" stroke="#062836"></path><path d="M368 438.6L422 461.3L437 419.6Z" fill="#0b2d39" stroke="#0b2d39"></path><path d="M437 419.6L433 466.3L455 413.4Z" fill="#062836" stroke="#062836"></path><path d="M455 413.4L497 413.6L492 381Z" fill="#0b2d39" stroke="#0b2d39"></path><path d="M404 522.6L433 466.3L422 461.3Z" fill="#2f4f4f" stroke="#2f4f4f"></path><path d="M422 461.3L433 466.3L437 419.6Z" fill="#10333d" stroke="#10333d"></path><path d="M492 448.4L497 413.6L455 413.4Z" fill="#224448" stroke="#224448"></path><path d="M364 348L318 347.7L348 408.9Z" fill="#001829" stroke="#001829"></path><path d="M288 428.9L327 432.7L348 408.9Z" fill="#062836" stroke="#062836"></path><path d="M348 408.9L327 432.7L368 438.6Z" fill="#10333d" stroke="#10333d"></path><path d="M368 438.6L363 473.7L422 461.3Z" fill="#163941" stroke="#163941"></path><path d="M517 318.9L499 329.1L532 342.6Z" fill="#032332" stroke="#032332"></path><path d="M492 381L499 329.1L451 373.9Z" fill="#224448" stroke="#224448"></path><path d="M412 358.7L338 304.9L364 348Z" fill="#28494b" stroke="#28494b"></path><path d="M364 348L332 311.1L318 347.7Z" fill="#28494b" stroke="#28494b"></path><path d="M327 432.7L343 455.7L368 438.6Z" fill="#0b2d39" stroke="#0b2d39"></path><path d="M384 212L338 304.9L412 358.7Z" fill="#224448" stroke="#224448"></path><path d="M338 304.9L332 311.1L364 348Z" fill="#062836" stroke="#062836"></path><path d="M343 455.7L363 473.7L368 438.6Z" fill="#224448" stroke="#224448"></path><path d="M343 455.7L362 474.3L363 473.7Z" fill="#032332" stroke="#032332"></path><path d="M363 473.7L404 522.6L422 461.3Z" fill="#1c3e44" stroke="#1c3e44"></path><path d="M433 466.3L492 448.4L455 413.4Z" fill="#28494b" stroke="#28494b"></path><path d="M327 432.7L328 461.6L343 455.7Z" fill="#062836" stroke="#062836"></path><path d="M343 455.7L328 461.6L362 474.3Z" fill="#011d2d" stroke="#011d2d"></path><path d="M318 470.4L328 461.6L327 432.7Z" fill="#1c3e44" stroke="#1c3e44"></path><path d="M532 342.6L499 329.1L492 381Z" fill="#10333d" stroke="#10333d"></path><path d="M468 210.3L384 212L412 358.7Z" fill="#2f4f4f" stroke="#2f4f4f"></path><path d="M532 342.6L492 381L545 417.7Z" fill="#224448" stroke="#224448"></path><path d="M545 417.7L492 381L497 413.6Z" fill="#2f4f4f" stroke="#2f4f4f"></path><path d="M288 428.9L318 470.4L327 432.7Z" fill="#163941" stroke="#163941"></path><path d="M328 461.6L318 470.4L362 474.3Z" fill="#001829" stroke="#001829"></path><path d="M318 347.7L288 428.9L348 408.9Z" fill="#163941" stroke="#163941"></path><path d="M492 448.4L545 417.7L497 413.6Z" fill="#2f4f4f" stroke="#2f4f4f"></path><path d="M433 466.3L490 496.3L492 448.4Z" fill="#1c3e44" stroke="#1c3e44"></path><path d="M492 448.4L534 475.6L545 417.7Z" fill="#2f4f4f" stroke="#2f4f4f"></path><path d="M489 523.3L490 496.3L433 466.3Z" fill="#163941" stroke="#163941"></path><path d="M404 522.6L363 473.7L362 474.3Z" fill="#10333d" stroke="#10333d"></path><path d="M490 496.3L511 480.4L492 448.4Z" fill="#224448" stroke="#224448"></path><path d="M331 543.1L404 522.6L362 474.3Z" fill="#001829" stroke="#001829"></path><path d="M332 311.1L274 325.1L318 347.7Z" fill="#0b2d39" stroke="#0b2d39"></path><path d="M318 347.7L257 411.7L288 428.9Z" fill="#163941" stroke="#163941"></path><path d="M276 287.3L274 325.1L332 311.1Z" fill="#224448" stroke="#224448"></path><path d="M274 325.1L257 411.7L318 347.7Z" fill="#10333d" stroke="#10333d"></path><path d="M267 499.3L300 526.6L318 470.4Z" fill="#10333d" stroke="#10333d"></path><path d="M511 480.4L534 475.6L492 448.4Z" fill="#10333d" stroke="#10333d"></path><path d="M537 500.6L534 475.6L511 480.4Z" fill="#10333d" stroke="#10333d"></path><path d="M338 304.9L276 287.3L332 311.1Z" fill="#001829" stroke="#001829"></path><path d="M274 325.1L220 354.1L257 411.7Z" fill="#032332" stroke="#032332"></path><path d="M305 232L276 287.3L338 304.9Z" fill="#062836" stroke="#062836"></path><path d="M404 522.6L489 523.3L433 466.3Z" fill="#224448" stroke="#224448"></path><path d="M490 496.3L502 522.1L511 480.4Z" fill="#28494b" stroke="#28494b"></path><path d="M532 342.6L554 294.7L517 318.9Z" fill="#10333d" stroke="#10333d"></path><path d="M468 210.3L412 358.7L499 329.1Z" fill="#163941" stroke="#163941"></path><path d="M595 350.1L554 294.7L532 342.6Z" fill="#032332" stroke="#032332"></path><path d="M468 210.3L499 329.1L517 318.9Z" fill="#001829" stroke="#001829"></path><path d="M489 523.3L502 522.1L490 496.3Z" fill="#062836" stroke="#062836"></path><path d="M384 212L330 227.3L338 304.9Z" fill="#1c3e44" stroke="#1c3e44"></path><path d="M384 212L366 209L330 227.3Z" fill="#163941" stroke="#163941"></path><path d="M502 522.1L537 500.6L511 480.4Z" fill="#1c3e44" stroke="#1c3e44"></path><path d="M534 475.6L582 478.7L545 417.7Z" fill="#163941" stroke="#163941"></path><path d="M554 294.7L468 210.3L517 318.9Z" fill="#1c3e44" stroke="#1c3e44"></path><path d="M384 212L392 175.7L366 209Z" fill="#163941" stroke="#163941"></path><path d="M278 212.4L305 232L309 180.3Z" fill="#1c3e44" stroke="#1c3e44"></path><path d="M330 227.3L305 232L338 304.9Z" fill="#1c3e44" stroke="#1c3e44"></path><path d="M300 526.6L331 543.1L318 470.4Z" fill="#1c3e44" stroke="#1c3e44"></path><path d="M318 470.4L331 543.1L362 474.3Z" fill="#062836" stroke="#062836"></path><path d="M404 522.6L399 565.1L489 523.3Z" fill="#032332" stroke="#032332"></path><path d="M489 523.3L494 589.1L502 522.1Z" fill="#062836" stroke="#062836"></path><path d="M267 499.3L318 470.4L288 428.9Z" fill="#0b2d39" stroke="#0b2d39"></path><path d="M591 289.3L567 278.1L554 294.7Z" fill="#163941" stroke="#163941"></path><path d="M554 294.7L567 260.3L468 210.3Z" fill="#10333d" stroke="#10333d"></path><path d="M595 350.1L532 342.6L545 417.7Z" fill="#0b2d39" stroke="#0b2d39"></path><path d="M331 543.1L399 565.1L404 522.6Z" fill="#224448" stroke="#224448"></path><path d="M609 370.9L595 350.1L545 417.7Z" fill="#032332" stroke="#032332"></path><path d="M257 411.7L267 499.3L288 428.9Z" fill="#032332" stroke="#032332"></path><path d="M229 267L230 317L276 287.3Z" fill="#224448" stroke="#224448"></path><path d="M276 287.3L230 317L274 325.1Z" fill="#0b2d39" stroke="#0b2d39"></path><path d="M257 411.7L198 428.6L267 499.3Z" fill="#163941" stroke="#163941"></path><path d="M230 317L220 354.1L274 325.1Z" fill="#10333d" stroke="#10333d"></path><path d="M591 289.3L567 260.3L567 278.1Z" fill="#0b2d39" stroke="#0b2d39"></path><path d="M567 278.1L567 260.3L554 294.7Z" fill="#001829" stroke="#001829"></path><path d="M502 522.1L556 513.3L537 500.6Z" fill="#1c3e44" stroke="#1c3e44"></path><path d="M537 500.6L582 478.7L534 475.6Z" fill="#1c3e44" stroke="#1c3e44"></path><path d="M530 600L556 513.3L502 522.1Z" fill="#163941" stroke="#163941"></path><path d="M501 190.4L460 186.4L468 210.3Z" fill="#224448" stroke="#224448"></path><path d="M468 210.3L433 177.1L384 212Z" fill="#1c3e44" stroke="#1c3e44"></path><path d="M556 513.3L582 478.7L537 500.6Z" fill="#001829" stroke="#001829"></path><path d="M582 478.7L609 370.9L545 417.7Z" fill="#10333d" stroke="#10333d"></path><path d="M595 350.1L591 289.3L554 294.7Z" fill="#011d2d" stroke="#011d2d"></path><path d="M627 280.9L591 289.3L650 311Z" fill="#062836" stroke="#062836"></path><path d="M460 186.4L433 177.1L468 210.3Z" fill="#062836" stroke="#062836"></path><path d="M309 180.3L305 232L330 227.3Z" fill="#062836" stroke="#062836"></path><path d="M433 177.1L392 175.7L384 212Z" fill="#0b2d39" stroke="#0b2d39"></path><path d="M268 529.4L280 535.3L300 526.6Z" fill="#1c3e44" stroke="#1c3e44"></path><path d="M300 526.6L297 554.4L331 543.1Z" fill="#001829" stroke="#001829"></path><path d="M331 543.1L365 590.1L399 565.1Z" fill="#163941" stroke="#163941"></path><path d="M162 364L205 373.4L220 354.1Z" fill="#1c3e44" stroke="#1c3e44"></path><path d="M220 354.1L205 373.4L257 411.7Z" fill="#0b2d39" stroke="#0b2d39"></path><path d="M267 499.3L268 529.4L300 526.6Z" fill="#032332" stroke="#032332"></path><path d="M223 526.1L268 529.4L267 499.3Z" fill="#001829" stroke="#001829"></path><path d="M567 260.3L501 190.4L468 210.3Z" fill="#10333d" stroke="#10333d"></path><path d="M460 186.4L458 171.1L433 177.1Z" fill="#1c3e44" stroke="#1c3e44"></path><path d="M234 550.1L297 554.4L280 535.3Z" fill="#224448" stroke="#224448"></path><path d="M280 535.3L297 554.4L300 526.6Z" fill="#001829" stroke="#001829"></path><path d="M309 180.3L330 227.3L366 209Z" fill="#001829" stroke="#001829"></path><path d="M305 232L240 236.4L276 287.3Z" fill="#28494b" stroke="#28494b"></path><path d="M240 236.4L229 267L276 287.3Z" fill="#001829" stroke="#001829"></path><path d="M174 298.3L162 364L220 354.1Z" fill="#032332" stroke="#032332"></path><path d="M501 190.4L458 171.1L460 186.4Z" fill="#163941" stroke="#163941"></path><path d="M433 177.1L407 132.3L392 175.7Z" fill="#062836" stroke="#062836"></path><path d="M310 599.3L365 590.1L331 543.1Z" fill="#011d2d" stroke="#011d2d"></path><path d="M399 565.1L441 600L489 523.3Z" fill="#163941" stroke="#163941"></path><path d="M194 418.6L198 428.6L257 411.7Z" fill="#001829" stroke="#001829"></path><path d="M205 373.4L194 418.6L257 411.7Z" fill="#10333d" stroke="#10333d"></path><path d="M173 435.7L194 418.6L162 364Z" fill="#0b2d39" stroke="#0b2d39"></path><path d="M278 212.4L240 236.4L305 232Z" fill="#062836" stroke="#062836"></path><path d="M392 175.7L309 180.3L366 209Z" fill="#001829" stroke="#001829"></path><path d="M206 161.7L197 221.1L240 236.4Z" fill="#001829" stroke="#001829"></path><path d="M335 118.4L309 180.3L392 175.7Z" fill="#2f4f4f" stroke="#2f4f4f"></path><path d="M365 590.1L441 600L399 565.1Z" fill="#2f4f4f" stroke="#2f4f4f"></path><path d="M441 600L494 589.1L489 523.3Z" fill="#224448" stroke="#224448"></path><path d="M591 289.3L581 229.1L567 260.3Z" fill="#224448" stroke="#224448"></path><path d="M567 260.3L567 202L501 190.4Z" fill="#032332" stroke="#032332"></path><path d="M627 280.9L581 229.1L591 289.3Z" fill="#001829" stroke="#001829"></path><path d="M556 513.3L607 500.4L582 478.7Z" fill="#0b2d39" stroke="#0b2d39"></path><path d="M675 409.4L659 373.7L609 370.9Z" fill="#011d2d" stroke="#011d2d"></path><path d="M600 600L607 500.4L556 513.3Z" fill="#001829" stroke="#001829"></path><path d="M581 229.1L567 202L567 260.3Z" fill="#2f4f4f" stroke="#2f4f4f"></path><path d="M501 190.4L501 147.4L458 171.1Z" fill="#1c3e44" stroke="#1c3e44"></path><path d="M575 209.6L567 202L581 229.1Z" fill="#1c3e44" stroke="#1c3e44"></path><path d="M630 278L627 280.9L650 311Z" fill="#10333d" stroke="#10333d"></path><path d="M650 311L591 289.3L595 350.1Z" fill="#2f4f4f" stroke="#2f4f4f"></path><path d="M581 229.1L593 206L575 209.6Z" fill="#163941" stroke="#163941"></path><path d="M173 435.7L223 526.1L198 428.6Z" fill="#28494b" stroke="#28494b"></path><path d="M198 428.6L223 526.1L267 499.3Z" fill="#10333d" stroke="#10333d"></path><path d="M268 529.4L234 550.1L280 535.3Z" fill="#001829" stroke="#001829"></path><path d="M297 554.4L310 599.3L331 543.1Z" fill="#011d2d" stroke="#011d2d"></path><path d="M632 275.3L630 278L667 298.1Z" fill="#224448" stroke="#224448"></path><path d="M627 280.9L632 275.3L581 229.1Z" fill="#062836" stroke="#062836"></path><path d="M307 600L310 599.3L297 554.4Z" fill="#28494b" stroke="#28494b"></path><path d="M365 590.1L464 642.1L441 600Z" fill="#163941" stroke="#163941"></path><path d="M162 364L194 418.6L205 373.4Z" fill="#28494b" stroke="#28494b"></path><path d="M194 418.6L173 435.7L198 428.6Z" fill="#011d2d" stroke="#011d2d"></path><path d="M247 600L307 600L297 554.4Z" fill="#28494b" stroke="#28494b"></path><path d="M469 652.1L464 642.1L365 590.1Z" fill="#163941" stroke="#163941"></path><path d="M650 311L595 350.1L609 370.9Z" fill="#28494b" stroke="#28494b"></path><path d="M630 278L632 275.3L627 280.9Z" fill="#163941" stroke="#163941"></path><path d="M247 600L234 550.1L236 600Z" fill="#0b2d39" stroke="#0b2d39"></path><path d="M223 526.1L234 550.1L268 529.4Z" fill="#224448" stroke="#224448"></path><path d="M443 125.7L433 177.1L458 171.1Z" fill="#062836" stroke="#062836"></path><path d="M443 125.7L407 132.3L433 177.1Z" fill="#2f4f4f" stroke="#2f4f4f"></path><path d="M567 202L501 147.4L501 190.4Z" fill="#10333d" stroke="#10333d"></path><path d="M174 298.3L230 317L229 267Z" fill="#062836" stroke="#062836"></path><path d="M174 298.3L220 354.1L230 317Z" fill="#163941" stroke="#163941"></path><path d="M651 461.4L609 370.9L582 478.7Z" fill="#28494b" stroke="#28494b"></path><path d="M659 373.7L650 311L609 370.9Z" fill="#011d2d" stroke="#011d2d"></path><path d="M187 256.1L174 298.3L229 267Z" fill="#0b2d39" stroke="#0b2d39"></path><path d="M464 642.1L527 600L494 589.1Z" fill="#10333d" stroke="#10333d"></path><path d="M494 589.1L527 600L502 522.1Z" fill="#062836" stroke="#062836"></path><path d="M575 209.6L593 206L567 202Z" fill="#28494b" stroke="#28494b"></path><path d="M567 202L508 135.9L501 147.4Z" fill="#28494b" stroke="#28494b"></path><path d="M652 248.4L593 206L581 229.1Z" fill="#224448" stroke="#224448"></path><path d="M527 600L530 600L502 522.1Z" fill="#011d2d" stroke="#011d2d"></path><path d="M679 508.3L651 461.4L607 500.4Z" fill="#2f4f4f" stroke="#2f4f4f"></path><path d="M607 500.4L651 461.4L582 478.7Z" fill="#10333d" stroke="#10333d"></path><path d="M197 221.1L187 256.1L229 267Z" fill="#163941" stroke="#163941"></path><path d="M197 221.1L229 267L240 236.4Z" fill="#10333d" stroke="#10333d"></path><path d="M469 113.7L443 125.7L458 171.1Z" fill="#28494b" stroke="#28494b"></path><path d="M675 409.4L670 380.4L659 373.7Z" fill="#1c3e44" stroke="#1c3e44"></path><path d="M659 373.7L675 366.9L650 311Z" fill="#224448" stroke="#224448"></path><path d="M553 102.6L508 135.9L567 202Z" fill="#10333d" stroke="#10333d"></path><path d="M501 147.4L469 113.7L458 171.1Z" fill="#001829" stroke="#001829"></path><path d="M686 416.7L675 366.9L670 380.4Z" fill="#032332" stroke="#032332"></path><path d="M670 380.4L675 366.9L659 373.7Z" fill="#224448" stroke="#224448"></path><path d="M206 161.7L240 236.4L278 212.4Z" fill="#032332" stroke="#032332"></path><path d="M117 322.7L126 329.9L118 305Z" fill="#2f4f4f" stroke="#2f4f4f"></path><path d="M262 146.6L278 212.4L309 180.3Z" fill="#011d2d" stroke="#011d2d"></path><path d="M651 461.4L675 409.4L609 370.9Z" fill="#28494b" stroke="#28494b"></path><path d="M281 624.1L365 590.1L310 599.3Z" fill="#2f4f4f" stroke="#2f4f4f"></path><path d="M441 600L464 642.1L494 589.1Z" fill="#011d2d" stroke="#011d2d"></path><path d="M527 600L572 634.1L530 600Z" fill="#224448" stroke="#224448"></path><path d="M650 311L667 298.1L630 278Z" fill="#011d2d" stroke="#011d2d"></path><path d="M632 275.3L652 248.4L581 229.1Z" fill="#0b2d39" stroke="#0b2d39"></path><path d="M696 331L667 298.1L650 311Z" fill="#1c3e44" stroke="#1c3e44"></path><path d="M572 634.1L564 600L530 600Z" fill="#10333d" stroke="#10333d"></path><path d="M530 600L564 600L556 513.3Z" fill="#1c3e44" stroke="#1c3e44"></path><path d="M353 87.9L335 118.4L407 132.3Z" fill="#2f4f4f" stroke="#2f4f4f"></path><path d="M407 132.3L335 118.4L392 175.7Z" fill="#224448" stroke="#224448"></path><path d="M501 114.3L469 113.7L501 147.4Z" fill="#224448" stroke="#224448"></path><path d="M443 125.7L418 93.9L407 132.3Z" fill="#011d2d" stroke="#011d2d"></path><path d="M675 264.9L652 248.4L632 275.3Z" fill="#032332" stroke="#032332"></path><path d="M553 102.6L501 114.3L508 135.9Z" fill="#2f4f4f" stroke="#2f4f4f"></path><path d="M236 600L234 550.1L216 600Z" fill="#2f4f4f" stroke="#2f4f4f"></path><path d="M234 550.1L247 600L297 554.4Z" fill="#062836" stroke="#062836"></path><path d="M307 600L281 624.1L310 599.3Z" fill="#224448" stroke="#224448"></path><path d="M335 118.4L262 146.6L309 180.3Z" fill="#0b2d39" stroke="#0b2d39"></path><path d="M247 600L281 624.1L307 600Z" fill="#0b2d39" stroke="#0b2d39"></path><path d="M206 161.7L185 216.3L197 221.1Z" fill="#032332" stroke="#032332"></path><path d="M197 221.1L185 216.3L187 256.1Z" fill="#032332" stroke="#032332"></path><path d="M174 298.3L126 329.9L162 364Z" fill="#011d2d" stroke="#011d2d"></path><path d="M651 461.4L686 416.7L675 409.4Z" fill="#28494b" stroke="#28494b"></path><path d="M675 409.4L686 416.7L670 380.4Z" fill="#011d2d" stroke="#011d2d"></path><path d="M717 285.3L675 264.9L667 298.1Z" fill="#163941" stroke="#163941"></path><path d="M723 444.6L686 416.7L651 461.4Z" fill="#1c3e44" stroke="#1c3e44"></path><path d="M622 164.4L567 202L593 206Z" fill="#10333d" stroke="#10333d"></path><path d="M508 135.9L501 114.3L501 147.4Z" fill="#163941" stroke="#163941"></path><path d="M281 624.1L469 652.1L365 590.1Z" fill="#1c3e44" stroke="#1c3e44"></path><path d="M464 642.1L469 652.1L527 600Z" fill="#032332" stroke="#032332"></path><path d="M247 600L236 600L281 624.1Z" fill="#001829" stroke="#001829"></path><path d="M191 559.3L234 550.1L223 526.1Z" fill="#163941" stroke="#163941"></path><path d="M175 564.3L191 559.3L105 496.6Z" fill="#032332" stroke="#032332"></path><path d="M191 559.3L223 526.1L105 496.6Z" fill="#062836" stroke="#062836"></path><path d="M424 89.7L443 125.7L469 113.7Z" fill="#011d2d" stroke="#011d2d"></path><path d="M424 89.7L418 93.9L443 125.7Z" fill="#224448" stroke="#224448"></path><path d="M652 248.4L633 199.4L593 206Z" fill="#10333d" stroke="#10333d"></path><path d="M667 298.1L675 264.9L632 275.3Z" fill="#032332" stroke="#032332"></path><path d="M661 187.3L634 182.1L633 199.4Z" fill="#2f4f4f" stroke="#2f4f4f"></path><path d="M696 331L650 311L675 366.9Z" fill="#28494b" stroke="#28494b"></path><path d="M126 329.9L174 298.3L118 305Z" fill="#163941" stroke="#163941"></path><path d="M162 364L93 395.4L173 435.7Z" fill="#001829" stroke="#001829"></path><path d="M425 82.6L424 89.7L472 84.9Z" fill="#224448" stroke="#224448"></path><path d="M418 93.9L353 87.9L407 132.3Z" fill="#224448" stroke="#224448"></path><path d="M767 330.9L696 331L776 381.7Z" fill="#2f4f4f" stroke="#2f4f4f"></path><path d="M572 634.1L600 600L564 600Z" fill="#10333d" stroke="#10333d"></path><path d="M564 600L600 600L556 513.3Z" fill="#0b2d39" stroke="#0b2d39"></path><path d="M191 559.3L216 600L234 550.1Z" fill="#001829" stroke="#001829"></path><path d="M236 600L216 600L281 624.1Z" fill="#163941" stroke="#163941"></path><path d="M365 66.6L353 87.9L418 93.9Z" fill="#28494b" stroke="#28494b"></path><path d="M335 118.4L263 100.9L262 146.6Z" fill="#163941" stroke="#163941"></path><path d="M472 84.9L424 89.7L469 113.7Z" fill="#001829" stroke="#001829"></path><path d="M424 89.7L425 82.6L418 93.9Z" fill="#0b2d39" stroke="#0b2d39"></path><path d="M641 174.3L634 182.1L661 187.3Z" fill="#2f4f4f" stroke="#2f4f4f"></path><path d="M633 199.4L634 182.1L593 206Z" fill="#011d2d" stroke="#011d2d"></path><path d="M236 115.7L206 161.7L262 146.6Z" fill="#032332" stroke="#032332"></path><path d="M262 146.6L206 161.7L278 212.4Z" fill="#032332" stroke="#032332"></path><path d="M126 282.9L174 298.3L187 256.1Z" fill="#1c3e44" stroke="#1c3e44"></path><path d="M670 554.3L679 508.3L607 500.4Z" fill="#1c3e44" stroke="#1c3e44"></path><path d="M767 330.9L720 302.9L696 331Z" fill="#001829" stroke="#001829"></path><path d="M126 282.9L118 241.3L109 263.4Z" fill="#2f4f4f" stroke="#2f4f4f"></path><path d="M126 329.9L97 366L162 364Z" fill="#032332" stroke="#032332"></path><path d="M639 637.1L612 600L600 600Z" fill="#062836" stroke="#062836"></path><path d="M600 600L612 600L607 500.4Z" fill="#062836" stroke="#062836"></path><path d="M105 496.6L223 526.1L173 435.7Z" fill="#011d2d" stroke="#011d2d"></path><path d="M191 559.3L177 580.1L216 600Z" fill="#224448" stroke="#224448"></path><path d="M98 299.7L126 282.9L109 263.4Z" fill="#28494b" stroke="#28494b"></path><path d="M528 57.6L472 84.9L501 114.3Z" fill="#224448" stroke="#224448"></path><path d="M501 114.3L472 84.9L469 113.7Z" fill="#10333d" stroke="#10333d"></path><path d="M770 551.4L685 501.6L679 508.3Z" fill="#032332" stroke="#032332"></path><path d="M679 508.3L685 501.6L651 461.4Z" fill="#032332" stroke="#032332"></path><path d="M634 182.1L622 164.4L593 206Z" fill="#0b2d39" stroke="#0b2d39"></path><path d="M126 282.9L118 305L174 298.3Z" fill="#1c3e44" stroke="#1c3e44"></path><path d="M469 652.1L572 634.1L527 600Z" fill="#001829" stroke="#001829"></path><path d="M661 187.3L633 199.4L682 210.6Z" fill="#001829" stroke="#001829"></path><path d="M634 182.1L641 174.3L622 164.4Z" fill="#10333d" stroke="#10333d"></path><path d="M622 164.4L553 102.6L567 202Z" fill="#001829" stroke="#001829"></path><path d="M142 600L177 580.1L175 564.3Z" fill="#2f4f4f" stroke="#2f4f4f"></path><path d="M175 564.3L177 580.1L191 559.3Z" fill="#2f4f4f" stroke="#2f4f4f"></path><path d="M331 63.9L323 80.6L353 87.9Z" fill="#0b2d39" stroke="#0b2d39"></path><path d="M353 87.9L323 80.6L335 118.4Z" fill="#032332" stroke="#032332"></path><path d="M629 98.7L553 102.6L622 164.4Z" fill="#163941" stroke="#163941"></path><path d="M639 637.1L631 600L612 600Z" fill="#062836" stroke="#062836"></path><path d="M612 600L670 554.3L607 500.4Z" fill="#032332" stroke="#032332"></path><path d="M98 299.7L97 366L117 322.7Z" fill="#163941" stroke="#163941"></path><path d="M117 322.7L97 366L126 329.9Z" fill="#0b2d39" stroke="#0b2d39"></path><path d="M717 285.3L696 249.4L675 264.9Z" fill="#163941" stroke="#163941"></path><path d="M675 264.9L696 249.4L652 248.4Z" fill="#011d2d" stroke="#011d2d"></path><path d="M631 600L670 554.3L612 600Z" fill="#1c3e44" stroke="#1c3e44"></path><path d="M290 77.4L263 100.9L335 118.4Z" fill="#001829" stroke="#001829"></path><path d="M394 46.7L365 66.6L418 93.9Z" fill="#001829" stroke="#001829"></path><path d="M394 46.7L418 93.9L425 82.6Z" fill="#10333d" stroke="#10333d"></path><path d="M263 100.9L236 115.7L262 146.6Z" fill="#224448" stroke="#224448"></path><path d="M126 282.9L187 256.1L118 241.3Z" fill="#0b2d39" stroke="#0b2d39"></path><path d="M682 210.6L633 199.4L652 248.4Z" fill="#2f4f4f" stroke="#2f4f4f"></path><path d="M641 174.3L636 151.6L622 164.4Z" fill="#011d2d" stroke="#011d2d"></path><path d="M97 366L93 395.4L162 364Z" fill="#011d2d" stroke="#011d2d"></path><path d="M696 331L675 366.9L776 381.7Z" fill="#2f4f4f" stroke="#2f4f4f"></path><path d="M696 331L720 302.9L667 298.1Z" fill="#2f4f4f" stroke="#2f4f4f"></path><path d="M699 187.6L682 210.6L732 222Z" fill="#2f4f4f" stroke="#2f4f4f"></path><path d="M696 249.4L682 210.6L652 248.4Z" fill="#062836" stroke="#062836"></path><path d="M724 462.1L651 461.4L722 472.4Z" fill="#062836" stroke="#062836"></path><path d="M724 462.1L723 444.6L651 461.4Z" fill="#28494b" stroke="#28494b"></path><path d="M719 147.4L636 151.6L661 187.3Z" fill="#001829" stroke="#001829"></path><path d="M661 187.3L636 151.6L641 174.3Z" fill="#0b2d39" stroke="#0b2d39"></path><path d="M720 302.9L717 285.3L667 298.1Z" fill="#2f4f4f" stroke="#2f4f4f"></path><path d="M118 305L98 299.7L117 322.7Z" fill="#001829" stroke="#001829"></path><path d="M97 366L62 373.9L93 395.4Z" fill="#10333d" stroke="#10333d"></path><path d="M126 282.9L98 299.7L118 305Z" fill="#011d2d" stroke="#011d2d"></path><path d="M187 256.1L185 216.3L118 241.3Z" fill="#011d2d" stroke="#011d2d"></path><path d="M118 241.3L185 216.3L126 199.1Z" fill="#032332" stroke="#032332"></path><path d="M158 162.1L185 216.3L206 161.7Z" fill="#0b2d39" stroke="#0b2d39"></path><path d="M263 100.9L230 110.6L236 115.7Z" fill="#062836" stroke="#062836"></path><path d="M236 115.7L230 110.6L206 161.7Z" fill="#28494b" stroke="#28494b"></path><path d="M206 70.9L230 110.6L263 100.9Z" fill="#011d2d" stroke="#011d2d"></path><path d="M290 77.4L335 118.4L323 80.6Z" fill="#28494b" stroke="#28494b"></path><path d="M331 63.9L290 77.4L323 80.6Z" fill="#011d2d" stroke="#011d2d"></path><path d="M365 66.6L331 63.9L353 87.9Z" fill="#001829" stroke="#001829"></path><path d="M722 472.4L651 461.4L685 501.6Z" fill="#2f4f4f" stroke="#2f4f4f"></path><path d="M776 381.7L675 366.9L686 416.7Z" fill="#032332" stroke="#032332"></path><path d="M752 482.1L722 472.4L685 501.6Z" fill="#062836" stroke="#062836"></path><path d="M93 395.4L105 496.6L173 435.7Z" fill="#1c3e44" stroke="#1c3e44"></path><path d="M394 46.7L425 82.6L463 0Z" fill="#0b2d39" stroke="#0b2d39"></path><path d="M405 0L394 46.7L463 0Z" fill="#001829" stroke="#001829"></path><path d="M365 66.6L326 21.9L331 63.9Z" fill="#1c3e44" stroke="#1c3e44"></path><path d="M177 129.4L158 162.1L206 161.7Z" fill="#032332" stroke="#032332"></path><path d="M158 162.1L126 199.1L185 216.3Z" fill="#011d2d" stroke="#011d2d"></path><path d="M-3 208.3L0 261.3L109 263.4Z" fill="#224448" stroke="#224448"></path><path d="M49 369.7L62 373.9L98 299.7Z" fill="#062836" stroke="#062836"></path><path d="M230 110.6L177 129.4L206 161.7Z" fill="#2f4f4f" stroke="#2f4f4f"></path><path d="M158 162.1L106 180.1L126 199.1Z" fill="#163941" stroke="#163941"></path><path d="M186 75.4L177 129.4L230 110.6Z" fill="#2f4f4f" stroke="#2f4f4f"></path><path d="M560 48.9L528 57.6L553 102.6Z" fill="#1c3e44" stroke="#1c3e44"></path><path d="M553 102.6L528 57.6L501 114.3Z" fill="#001829" stroke="#001829"></path><path d="M65 565.3L102 527.6L36 562.4Z" fill="#224448" stroke="#224448"></path><path d="M105 496.6L102 527.6L175 564.3Z" fill="#032332" stroke="#032332"></path><path d="M572 634.1L639 637.1L600 600Z" fill="#062836" stroke="#062836"></path><path d="M631 600L684 591.1L670 554.3Z" fill="#2f4f4f" stroke="#2f4f4f"></path><path d="M770 551.4L752 482.1L685 501.6Z" fill="#10333d" stroke="#10333d"></path><path d="M469 652.1L639 637.1L572 634.1Z" fill="#224448" stroke="#224448"></path><path d="M732 222L682 210.6L696 249.4Z" fill="#0b2d39" stroke="#0b2d39"></path><path d="M682 210.6L699 187.6L661 187.3Z" fill="#001829" stroke="#001829"></path><path d="M636 151.6L629 98.7L622 164.4Z" fill="#062836" stroke="#062836"></path><path d="M639 637.1L684 591.1L631 600Z" fill="#10333d" stroke="#10333d"></path><path d="M127 600L142 600L175 564.3Z" fill="#10333d" stroke="#10333d"></path><path d="M177 580.1L142 600L216 600Z" fill="#224448" stroke="#224448"></path><path d="M216 600L142 600L281 624.1Z" fill="#001829" stroke="#001829"></path><path d="M49 369.7L98 299.7L15 330.9Z" fill="#011d2d" stroke="#011d2d"></path><path d="M98 299.7L62 373.9L97 366Z" fill="#28494b" stroke="#28494b"></path><path d="M93 395.4L0 438.4L105 496.6Z" fill="#2f4f4f" stroke="#2f4f4f"></path><path d="M646 80.9L629 98.7L636 151.6Z" fill="#011d2d" stroke="#011d2d"></path><path d="M770 551.4L679 508.3L670 554.3Z" fill="#0b2d39" stroke="#0b2d39"></path><path d="M722 472.4L752 482.1L724 462.1Z" fill="#0b2d39" stroke="#0b2d39"></path><path d="M724 462.1L773 465.6L723 444.6Z" fill="#2f4f4f" stroke="#2f4f4f"></path><path d="M768 299.7L732 222L717 285.3Z" fill="#2f4f4f" stroke="#2f4f4f"></path><path d="M717 285.3L732 222L696 249.4Z" fill="#2f4f4f" stroke="#2f4f4f"></path><path d="M646 80.9L627 93.9L629 98.7Z" fill="#2f4f4f" stroke="#2f4f4f"></path><path d="M768 299.7L717 285.3L720 302.9Z" fill="#2f4f4f" stroke="#2f4f4f"></path><path d="M616 72.7L627 93.9L646 80.9Z" fill="#062836" stroke="#062836"></path><path d="M629 98.7L627 93.9L553 102.6Z" fill="#0b2d39" stroke="#0b2d39"></path><path d="M331 63.9L285 42.6L290 77.4Z" fill="#1c3e44" stroke="#1c3e44"></path><path d="M290 77.4L285 42.6L263 100.9Z" fill="#001829" stroke="#001829"></path><path d="M326 21.9L285 42.6L331 63.9Z" fill="#0b2d39" stroke="#0b2d39"></path><path d="M102 527.6L127 600L175 564.3Z" fill="#2f4f4f" stroke="#2f4f4f"></path><path d="M142 600L5 633.1L281 624.1Z" fill="#001829" stroke="#001829"></path><path d="M776 381.7L686 416.7L723 444.6Z" fill="#011d2d" stroke="#011d2d"></path><path d="M15 330.9L98 299.7L0 261.3Z" fill="#2f4f4f" stroke="#2f4f4f"></path><path d="M62 373.9L0 436.9L93 395.4Z" fill="#1c3e44" stroke="#1c3e44"></path><path d="M65 565.3L124 600L102 527.6Z" fill="#2f4f4f" stroke="#2f4f4f"></path><path d="M102 527.6L124 600L127 600Z" fill="#001829" stroke="#001829"></path><path d="M127 600L5 633.1L142 600Z" fill="#1c3e44" stroke="#1c3e44"></path><path d="M606 61.7L560 48.9L553 102.6Z" fill="#062836" stroke="#062836"></path><path d="M463 0L425 82.6L472 84.9Z" fill="#032332" stroke="#032332"></path><path d="M381 0L326 21.9L365 66.6Z" fill="#062836" stroke="#062836"></path><path d="M98 177.4L106 180.1L113 138.6Z" fill="#062836" stroke="#062836"></path><path d="M126 199.1L106 180.1L118 241.3Z" fill="#10333d" stroke="#10333d"></path><path d="M106 180.1L158 162.1L113 138.6Z" fill="#062836" stroke="#062836"></path><path d="M773 465.6L776 381.7L723 444.6Z" fill="#001829" stroke="#001829"></path><path d="M780 337.1L768 299.7L767 330.9Z" fill="#011d2d" stroke="#011d2d"></path><path d="M767 330.9L768 299.7L720 302.9Z" fill="#10333d" stroke="#10333d"></path><path d="M381 0L365 66.6L394 46.7Z" fill="#28494b" stroke="#28494b"></path><path d="M719 147.4L661 187.3L699 187.6Z" fill="#001829" stroke="#001829"></path><path d="M627 93.9L616 72.7L553 102.6Z" fill="#011d2d" stroke="#011d2d"></path><path d="M186 75.4L149 34.7L135 65.6Z" fill="#0b2d39" stroke="#0b2d39"></path><path d="M285 42.6L206 70.9L263 100.9Z" fill="#0b2d39" stroke="#0b2d39"></path><path d="M113 138.6L158 162.1L177 129.4Z" fill="#224448" stroke="#224448"></path><path d="M106 180.1L98 177.4L118 241.3Z" fill="#0b2d39" stroke="#0b2d39"></path><path d="M776 381.7L780 337.1L767 330.9Z" fill="#163941" stroke="#163941"></path><path d="M616 72.7L606 61.7L553 102.6Z" fill="#28494b" stroke="#28494b"></path><path d="M752 482.1L773 465.6L724 462.1Z" fill="#011d2d" stroke="#011d2d"></path><path d="M776 381.7L797 333.9L780 337.1Z" fill="#1c3e44" stroke="#1c3e44"></path><path d="M792 476.3L773 465.6L752 482.1Z" fill="#2f4f4f" stroke="#2f4f4f"></path><path d="M798 218.6L721 167.1L732 222Z" fill="#001829" stroke="#001829"></path><path d="M732 222L721 167.1L699 187.6Z" fill="#10333d" stroke="#10333d"></path><path d="M616 72.7L646 80.9L606 61.7Z" fill="#011d2d" stroke="#011d2d"></path><path d="M203 0L206 70.9L285 42.6Z" fill="#011d2d" stroke="#011d2d"></path><path d="M206 70.9L186 75.4L230 110.6Z" fill="#062836" stroke="#062836"></path><path d="M463 0L528 57.6L522 0Z" fill="#0b2d39" stroke="#0b2d39"></path><path d="M463 0L472 84.9L528 57.6Z" fill="#011d2d" stroke="#011d2d"></path><path d="M405 0L381 0L394 46.7Z" fill="#001829" stroke="#001829"></path><path d="M326 21.9L322 3.7L285 42.6Z" fill="#28494b" stroke="#28494b"></path><path d="M719 147.4L646 80.9L636 151.6Z" fill="#011d2d" stroke="#011d2d"></path><path d="M135 65.6L113 138.6L177 129.4Z" fill="#163941" stroke="#163941"></path><path d="M522 0L528 57.6L560 48.9Z" fill="#28494b" stroke="#28494b"></path><path d="M334 0L322 3.7L326 21.9Z" fill="#1c3e44" stroke="#1c3e44"></path><path d="M381 0L339 0L326 21.9Z" fill="#011d2d" stroke="#011d2d"></path><path d="M799 153.4L719 147.4L721 167.1Z" fill="#2f4f4f" stroke="#2f4f4f"></path><path d="M721 167.1L719 147.4L699 187.6Z" fill="#10333d" stroke="#10333d"></path><path d="M339 0L334 0L326 21.9Z" fill="#10333d" stroke="#10333d"></path><path d="M334 0L322 0L322 3.7Z" fill="#0b2d39" stroke="#0b2d39"></path><path d="M322 3.7L322 0L285 42.6Z" fill="#1c3e44" stroke="#1c3e44"></path><path d="M780 337.1L797 333.9L768 299.7Z" fill="#0b2d39" stroke="#0b2d39"></path><path d="M768 299.7L798 218.6L732 222Z" fill="#2f4f4f" stroke="#2f4f4f"></path><path d="M819 341L797 333.9L823 358.6Z" fill="#032332" stroke="#032332"></path><path d="M639 637.1L733 600L684 591.1Z" fill="#062836" stroke="#062836"></path><path d="M684 591.1L733 600L670 554.3Z" fill="#062836" stroke="#062836"></path><path d="M36 562.4L102 527.6L1 519.4Z" fill="#032332" stroke="#032332"></path><path d="M770 551.4L792 476.3L752 482.1Z" fill="#10333d" stroke="#10333d"></path><path d="M773 465.6L850 407.6L776 381.7Z" fill="#001829" stroke="#001829"></path><path d="M586 0L522 0L560 48.9Z" fill="#2f4f4f" stroke="#2f4f4f"></path><path d="M586 0L560 48.9L591 0Z" fill="#28494b" stroke="#28494b"></path><path d="M0 261.3L98 299.7L109 263.4Z" fill="#001829" stroke="#001829"></path><path d="M49 369.7L0 436.9L62 373.9Z" fill="#2f4f4f" stroke="#2f4f4f"></path><path d="M109 263.4L118 241.3L-3 208.3Z" fill="#011d2d" stroke="#011d2d"></path><path d="M733 600L770 551.4L670 554.3Z" fill="#011d2d" stroke="#011d2d"></path><path d="M106 58.7L79 145.3L113 138.6Z" fill="#011d2d" stroke="#011d2d"></path><path d="M113 138.6L79 145.3L98 177.4Z" fill="#0b2d39" stroke="#0b2d39"></path><path d="M522 0L491 -19.1L463 0Z" fill="#001829" stroke="#001829"></path><path d="M463 0L491 -19.1L405 0Z" fill="#28494b" stroke="#28494b"></path><path d="M405 0L491 -19.1L381 0Z" fill="#10333d" stroke="#10333d"></path><path d="M381 0L491 -19.1L339 0Z" fill="#28494b" stroke="#28494b"></path><path d="M339 0L491 -19.1L334 0Z" fill="#163941" stroke="#163941"></path><path d="M334 0L491 -19.1L322 0Z" fill="#1c3e44" stroke="#1c3e44"></path><path d="M823 358.6L797 333.9L776 381.7Z" fill="#1c3e44" stroke="#1c3e44"></path><path d="M797 333.9L811 289.7L768 299.7Z" fill="#163941" stroke="#163941"></path><path d="M825 322.1L811 289.7L797 333.9Z" fill="#10333d" stroke="#10333d"></path><path d="M0 349.1L0 355L15 330.9Z" fill="#163941" stroke="#163941"></path><path d="M15 330.9L0 355L49 369.7Z" fill="#062836" stroke="#062836"></path><path d="M0 342.7L0 349.1L15 330.9Z" fill="#163941" stroke="#163941"></path><path d="M-33 292L0 342.7L15 330.9Z" fill="#1c3e44" stroke="#1c3e44"></path><path d="M850 407.6L823 358.6L776 381.7Z" fill="#2f4f4f" stroke="#2f4f4f"></path><path d="M819 341L825 322.1L797 333.9Z" fill="#062836" stroke="#062836"></path><path d="M0 355L0 436.9L49 369.7Z" fill="#2f4f4f" stroke="#2f4f4f"></path><path d="M0 436.9L0 438.4L93 395.4Z" fill="#1c3e44" stroke="#1c3e44"></path><path d="M149 34.7L186 75.4L183 0Z" fill="#28494b" stroke="#28494b"></path><path d="M186 75.4L135 65.6L177 129.4Z" fill="#011d2d" stroke="#011d2d"></path><path d="M0 510.6L102 527.6L105 496.6Z" fill="#163941" stroke="#163941"></path><path d="M65 565.3L53 600L124 600Z" fill="#032332" stroke="#032332"></path><path d="M591 0L560 48.9L606 61.7Z" fill="#011d2d" stroke="#011d2d"></path><path d="M522 0L586 0L491 -19.1Z" fill="#28494b" stroke="#28494b"></path><path d="M591 0L606 61.7L711 0Z" fill="#032332" stroke="#032332"></path><path d="M862 310.3L825 322.1L819 341Z" fill="#163941" stroke="#163941"></path><path d="M811 289.7L798 218.6L768 299.7Z" fill="#28494b" stroke="#28494b"></path><path d="M711 0L606 61.7L646 80.9Z" fill="#2f4f4f" stroke="#2f4f4f"></path><path d="M883 245L798 218.6L811 289.7Z" fill="#062836" stroke="#062836"></path><path d="M722 80.7L646 80.9L719 147.4Z" fill="#001829" stroke="#001829"></path><path d="M586 0L591 0L491 -19.1Z" fill="#28494b" stroke="#28494b"></path><path d="M36 562.4L53 600L65 565.3Z" fill="#0b2d39" stroke="#0b2d39"></path><path d="M124 600L5 633.1L127 600Z" fill="#032332" stroke="#032332"></path><path d="M281 624.1L5 633.1L469 652.1Z" fill="#224448" stroke="#224448"></path><path d="M821 529.4L824 471.3L792 476.3Z" fill="#011d2d" stroke="#011d2d"></path><path d="M792 476.3L824 471.3L773 465.6Z" fill="#1c3e44" stroke="#1c3e44"></path><path d="M823 358.6L862 310.3L819 341Z" fill="#163941" stroke="#163941"></path><path d="M-3 208.3L118 241.3L98 177.4Z" fill="#224448" stroke="#224448"></path><path d="M0 438.4L0 499.1L105 496.6Z" fill="#1c3e44" stroke="#1c3e44"></path><path d="M36 562.4L0 600L53 600Z" fill="#0b2d39" stroke="#0b2d39"></path><path d="M0 499.1L0 510.6L105 496.6Z" fill="#062836" stroke="#062836"></path><path d="M774 107.7L722 80.7L719 147.4Z" fill="#1c3e44" stroke="#1c3e44"></path><path d="M322 0L203 0L285 42.6Z" fill="#163941" stroke="#163941"></path><path d="M491 -19.1L203 0L322 0Z" fill="#0b2d39" stroke="#0b2d39"></path><path d="M183 0L186 75.4L206 70.9Z" fill="#10333d" stroke="#10333d"></path><path d="M135 65.6L106 58.7L113 138.6Z" fill="#163941" stroke="#163941"></path><path d="M79 145.3L-3 208.3L98 177.4Z" fill="#163941" stroke="#163941"></path><path d="M0 510.6L1 519.4L102 527.6Z" fill="#0b2d39" stroke="#0b2d39"></path><path d="M106 58.7L90 23.7L82 33.9Z" fill="#032332" stroke="#032332"></path><path d="M149 34.7L123 50.7L135 65.6Z" fill="#011d2d" stroke="#011d2d"></path><path d="M792 600L821 529.4L770 551.4Z" fill="#1c3e44" stroke="#1c3e44"></path><path d="M770 551.4L821 529.4L792 476.3Z" fill="#10333d" stroke="#10333d"></path><path d="M862 434.3L850 407.6L824 471.3Z" fill="#28494b" stroke="#28494b"></path><path d="M824 471.3L850 407.6L773 465.6Z" fill="#2f4f4f" stroke="#2f4f4f"></path><path d="M815 117.9L799 153.4L830 132.9Z" fill="#10333d" stroke="#10333d"></path><path d="M733 600L792 600L770 551.4Z" fill="#001829" stroke="#001829"></path><path d="M639 637.1L792 600L733 600Z" fill="#011d2d" stroke="#011d2d"></path><path d="M118 0L123 50.7L149 34.7Z" fill="#224448" stroke="#224448"></path><path d="M123 50.7L106 58.7L135 65.6Z" fill="#28494b" stroke="#28494b"></path><path d="M491 -19.1L183 0L203 0Z" fill="#163941" stroke="#163941"></path><path d="M203 0L183 0L206 70.9Z" fill="#1c3e44" stroke="#1c3e44"></path><path d="M850 407.6L852 383.9L823 358.6Z" fill="#163941" stroke="#163941"></path><path d="M-18 172.6L-3 208.3L0 134.4Z" fill="#163941" stroke="#163941"></path><path d="M-51 347.6L0 349.1L0 342.7Z" fill="#224448" stroke="#224448"></path><path d="M-51 347.6L0 355L0 349.1Z" fill="#224448" stroke="#224448"></path><path d="M-44 437.9L0 436.9L0 355Z" fill="#224448" stroke="#224448"></path><path d="M-44 437.9L0 438.4L0 436.9Z" fill="#28494b" stroke="#28494b"></path><path d="M-52 467.4L-23 501.1L0 438.4Z" fill="#10333d" stroke="#10333d"></path><path d="M0 438.4L-23 501.1L0 499.1Z" fill="#10333d" stroke="#10333d"></path><path d="M0 499.1L-23 501.1L0 510.6Z" fill="#032332" stroke="#032332"></path><path d="M862 310.3L811 289.7L825 322.1Z" fill="#10333d" stroke="#10333d"></path><path d="M798 218.6L799 153.4L721 167.1Z" fill="#011d2d" stroke="#011d2d"></path><path d="M-33 292L15 330.9L0 261.3Z" fill="#224448" stroke="#224448"></path><path d="M0 510.6L-23 501.1L1 519.4Z" fill="#062836" stroke="#062836"></path><path d="M1 519.4L0 575.3L36 562.4Z" fill="#2f4f4f" stroke="#2f4f4f"></path><path d="M-3 208.3L-33 292L0 261.3Z" fill="#1c3e44" stroke="#1c3e44"></path><path d="M799 153.4L774 107.7L719 147.4Z" fill="#10333d" stroke="#10333d"></path><path d="M722 80.7L711 0L646 80.9Z" fill="#032332" stroke="#032332"></path><path d="M-23 501.1L0 575.3L1 519.4Z" fill="#011d2d" stroke="#011d2d"></path><path d="M850 407.6L881 389.7L852 383.9Z" fill="#224448" stroke="#224448"></path><path d="M900 441.6L862 434.3L824 471.3Z" fill="#062836" stroke="#062836"></path><path d="M852 534.1L824 471.3L821 529.4Z" fill="#1c3e44" stroke="#1c3e44"></path><path d="M900 337.9L862 310.3L852 383.9Z" fill="#10333d" stroke="#10333d"></path><path d="M852 383.9L862 310.3L823 358.6Z" fill="#163941" stroke="#163941"></path><path d="M-51 347.6L-44 437.9L0 355Z" fill="#224448" stroke="#224448"></path><path d="M-23 501.1L-3 591.3L0 575.3Z" fill="#1c3e44" stroke="#1c3e44"></path><path d="M-33 292L-51 347.6L0 342.7Z" fill="#224448" stroke="#224448"></path><path d="M183 0L139 2.9L149 34.7Z" fill="#10333d" stroke="#10333d"></path><path d="M0 134.4L-3 208.3L79 145.3Z" fill="#011d2d" stroke="#011d2d"></path><path d="M-52 467.4L-3 591.3L-23 501.1Z" fill="#28494b" stroke="#28494b"></path><path d="M0 575.3L0 600L36 562.4Z" fill="#001829" stroke="#001829"></path><path d="M-3 591.3L0 600L0 575.3Z" fill="#10333d" stroke="#10333d"></path><path d="M53 600L5 633.1L124 600Z" fill="#1c3e44" stroke="#1c3e44"></path><path d="M863 607.3L822 600L792 600Z" fill="#28494b" stroke="#28494b"></path><path d="M792 600L822 600L821 529.4Z" fill="#062836" stroke="#062836"></path><path d="M822 600L852 534.1L821 529.4Z" fill="#062836" stroke="#062836"></path><path d="M-51 347.6L-52 467.4L-44 437.9Z" fill="#163941" stroke="#163941"></path><path d="M-44 437.9L-52 467.4L0 438.4Z" fill="#2f4f4f" stroke="#2f4f4f"></path><path d="M-3 591.3L5 633.1L0 600Z" fill="#10333d" stroke="#10333d"></path><path d="M900 373.4L881 389.7L900 408.7Z" fill="#001829" stroke="#001829"></path><path d="M862 434.3L881 389.7L850 407.6Z" fill="#032332" stroke="#032332"></path><path d="M25 72.9L79 145.3L106 58.7Z" fill="#0b2d39" stroke="#0b2d39"></path><path d="M-3 208.3L-18 172.6L-33 292Z" fill="#28494b" stroke="#28494b"></path><path d="M-33 292L-18 172.6L-51 347.6Z" fill="#28494b" stroke="#28494b"></path><path d="M90 23.7L106 58.7L123 50.7Z" fill="#10333d" stroke="#10333d"></path><path d="M25 72.9L0 134.4L79 145.3Z" fill="#011d2d" stroke="#011d2d"></path><path d="M118 0L90 23.7L123 50.7Z" fill="#0b2d39" stroke="#0b2d39"></path><path d="M82 33.9L25 72.9L106 58.7Z" fill="#011d2d" stroke="#011d2d"></path><path d="M183 0L118 0L139 2.9Z" fill="#001829" stroke="#001829"></path><path d="M139 2.9L118 0L149 34.7Z" fill="#2f4f4f" stroke="#2f4f4f"></path><path d="M491 -19.1L118 0L183 0Z" fill="#224448" stroke="#224448"></path><path d="M-52 467.4L5 633.1L-3 591.3Z" fill="#10333d" stroke="#10333d"></path><path d="M0 600L5 633.1L53 600Z" fill="#001829" stroke="#001829"></path><path d="M830 132.9L799 153.4L877 190.4Z" fill="#224448" stroke="#224448"></path><path d="M799 153.4L815 117.9L774 107.7Z" fill="#2f4f4f" stroke="#2f4f4f"></path><path d="M724 0L711 0L722 80.7Z" fill="#011d2d" stroke="#011d2d"></path><path d="M724 0L722 80.7L763 21.9Z" fill="#062836" stroke="#062836"></path><path d="M591 0L711 0L491 -19.1Z" fill="#10333d" stroke="#10333d"></path><path d="M877 190.4L799 153.4L798 218.6Z" fill="#001829" stroke="#001829"></path><path d="M804 77.4L722 80.7L774 107.7Z" fill="#032332" stroke="#032332"></path><path d="M883 245L811 289.7L862 310.3Z" fill="#011d2d" stroke="#011d2d"></path><path d="M900 408.7L881 389.7L862 434.3Z" fill="#0b2d39" stroke="#0b2d39"></path><path d="M881 389.7L900 373.4L852 383.9Z" fill="#011d2d" stroke="#011d2d"></path><path d="M900 421.3L900 408.7L862 434.3Z" fill="#062836" stroke="#062836"></path><path d="M900 280L883 245L862 310.3Z" fill="#011d2d" stroke="#011d2d"></path><path d="M900 373.4L900 337.9L852 383.9Z" fill="#032332" stroke="#032332"></path><path d="M900 441.6L900 421.3L862 434.3Z" fill="#001829" stroke="#001829"></path><path d="M804 77.4L774 107.7L815 117.9Z" fill="#032332" stroke="#032332"></path><path d="M711 0L724 0L491 -19.1Z" fill="#0b2d39" stroke="#0b2d39"></path><path d="M0 49.6L25 72.9L0 21.7Z" fill="#2f4f4f" stroke="#2f4f4f"></path><path d="M0 134.4L-10 55.6L-18 172.6Z" fill="#10333d" stroke="#10333d"></path><path d="M81 0L82 33.9L90 23.7Z" fill="#062836" stroke="#062836"></path><path d="M900 526.1L900 441.6L824 471.3Z" fill="#10333d" stroke="#10333d"></path><path d="M900 526.1L824 471.3L852 534.1Z" fill="#10333d" stroke="#10333d"></path><path d="M900 60.7L815 117.9L830 132.9Z" fill="#28494b" stroke="#28494b"></path><path d="M900 60.7L804 77.4L815 117.9Z" fill="#0b2d39" stroke="#0b2d39"></path><path d="M491 -19.1L89 0L118 0Z" fill="#224448" stroke="#224448"></path><path d="M118 0L89 0L90 23.7Z" fill="#032332" stroke="#032332"></path><path d="M900 337.9L900 280L862 310.3Z" fill="#2f4f4f" stroke="#2f4f4f"></path><path d="M883 245L877 190.4L798 218.6Z" fill="#011d2d" stroke="#011d2d"></path><path d="M804 77.4L763 21.9L722 80.7Z" fill="#2f4f4f" stroke="#2f4f4f"></path><path d="M491 -19.1L81 0L89 0Z" fill="#011d2d" stroke="#011d2d"></path><path d="M89 0L81 0L90 23.7Z" fill="#1c3e44" stroke="#1c3e44"></path><path d="M891 195.6L877 190.4L883 245Z" fill="#10333d" stroke="#10333d"></path><path d="M639 637.1L863 607.3L792 600Z" fill="#062836" stroke="#062836"></path><path d="M822 600L863 607.3L852 534.1Z" fill="#163941" stroke="#163941"></path><path d="M900 280L900 243.4L883 245Z" fill="#0b2d39" stroke="#0b2d39"></path><path d="M900 243.4L900 234.3L883 245Z" fill="#032332" stroke="#032332"></path><path d="M894 600L900 526.1L852 534.1Z" fill="#062836" stroke="#062836"></path><path d="M900 234.3L891 195.6L883 245Z" fill="#224448" stroke="#224448"></path><path d="M877 190.4L879 143.6L830 132.9Z" fill="#224448" stroke="#224448"></path><path d="M900 234.3L900 203.1L891 195.6Z" fill="#28494b" stroke="#28494b"></path><path d="M917 162.3L879 143.6L877 190.4Z" fill="#1c3e44" stroke="#1c3e44"></path><path d="M804 77.4L801 0L763 21.9Z" fill="#032332" stroke="#032332"></path><path d="M917 162.3L877 190.4L891 195.6Z" fill="#163941" stroke="#163941"></path><path d="M0 21.7L25 72.9L82 33.9Z" fill="#28494b" stroke="#28494b"></path><path d="M25 72.9L-10 55.6L0 134.4Z" fill="#1c3e44" stroke="#1c3e44"></path><path d="M-18 172.6L-10 55.6L-51 347.6Z" fill="#001829" stroke="#001829"></path><path d="M0 21.7L-10 55.6L0 49.6Z" fill="#001829" stroke="#001829"></path><path d="M0 49.6L-10 55.6L25 72.9Z" fill="#0b2d39" stroke="#0b2d39"></path><path d="M863 607.3L894 600L852 534.1Z" fill="#10333d" stroke="#10333d"></path><path d="M863 607.3L900 600L894 600Z" fill="#163941" stroke="#163941"></path><path d="M894 600L900 600L900 526.1Z" fill="#10333d" stroke="#10333d"></path><path d="M0 18.9L0 21.7L82 33.9Z" fill="#062836" stroke="#062836"></path><path d="M802 0L801 0L804 77.4Z" fill="#10333d" stroke="#10333d"></path><path d="M763 21.9L801 0L724 0Z" fill="#1c3e44" stroke="#1c3e44"></path><path d="M724 0L801 0L491 -19.1Z" fill="#10333d" stroke="#10333d"></path><path d="M837 0.9L802 0L804 77.4Z" fill="#001829" stroke="#001829"></path><path d="M801 0L802 0L491 -19.1Z" fill="#032332" stroke="#032332"></path><path d="M81 0L0 18.9L82 33.9Z" fill="#10333d" stroke="#10333d"></path><path d="M0 21.7L0 18.9L-10 55.6Z" fill="#28494b" stroke="#28494b"></path><path d="M900 203.1L917 162.3L891 195.6Z" fill="#2f4f4f" stroke="#2f4f4f"></path><path d="M879 143.6L900 123.6L830 132.9Z" fill="#011d2d" stroke="#011d2d"></path><path d="M900 234.3L917 162.3L900 203.1Z" fill="#0b2d39" stroke="#0b2d39"></path><path d="M900 243.4L917 162.3L900 234.3Z" fill="#011d2d" stroke="#011d2d"></path><path d="M900 280L917 162.3L900 243.4Z" fill="#0b2d39" stroke="#0b2d39"></path><path d="M931 121.7L917 162.3L900 280Z" fill="#2f4f4f" stroke="#2f4f4f"></path><path d="M931 121.7L900 280L900 337.9Z" fill="#1c3e44" stroke="#1c3e44"></path><path d="M931 121.7L900 337.9L900 373.4Z" fill="#2f4f4f" stroke="#2f4f4f"></path><path d="M931 121.7L900 373.4L900 408.7Z" fill="#032332" stroke="#032332"></path><path d="M931 121.7L900 408.7L900 421.3Z" fill="#163941" stroke="#163941"></path><path d="M931 121.7L900 421.3L900 441.6Z" fill="#1c3e44" stroke="#1c3e44"></path><path d="M931 121.7L900 441.6L900 526.1Z" fill="#001829" stroke="#001829"></path><path d="M917 162.3L900 123.6L879 143.6Z" fill="#011d2d" stroke="#011d2d"></path><path d="M491 -19.1L4 0L81 0Z" fill="#2f4f4f" stroke="#2f4f4f"></path><path d="M81 0L4 0L0 18.9Z" fill="#1c3e44" stroke="#1c3e44"></path><path d="M0 18.9L0 0L-10 55.6Z" fill="#032332" stroke="#032332"></path><path d="M491 -19.1L0 0L4 0Z" fill="#2f4f4f" stroke="#2f4f4f"></path><path d="M4 0L0 0L0 18.9Z" fill="#28494b" stroke="#28494b"></path><path d="M858 5.7L837 0.9L804 77.4Z" fill="#163941" stroke="#163941"></path><path d="M802 0L900 0L491 -19.1Z" fill="#163941" stroke="#163941"></path><path d="M917 162.3L931 121.7L900 123.6Z" fill="#163941" stroke="#163941"></path><path d="M900 50.9L858 5.7L804 77.4Z" fill="#032332" stroke="#032332"></path><path d="M900 600L931 121.7L900 526.1Z" fill="#224448" stroke="#224448"></path><path d="M900 60.7L830 132.9L900 123.6Z" fill="#163941" stroke="#163941"></path><path d="M931 121.7L900 60.7L900 123.6Z" fill="#1c3e44" stroke="#1c3e44"></path><path d="M931 121.7L900 50.9L900 60.7Z" fill="#032332" stroke="#032332"></path><path d="M900 60.7L900 50.9L804 77.4Z" fill="#1c3e44" stroke="#1c3e44"></path><path d="M931 121.7L900 0L900 50.9Z" fill="#10333d" stroke="#10333d"></path><path d="M900 50.9L900 0L858 5.7Z" fill="#10333d" stroke="#10333d"></path><path d="M858 5.7L900 0L837 0.9Z" fill="#062836" stroke="#062836"></path><path d="M837 0.9L900 0L802 0Z" fill="#062836" stroke="#062836"></path></g></svg>