<svg id="visual" viewBox="0 0 900 600" width="900" height="600" xmlns="http://www.w3.org/2000/svg" xmlns:xlink="http://www.w3.org/1999/xlink" version="1.1"><g stroke-width="1" stroke-linejoin="bevel"><path d="M466 284.9L430 281.1L420 292.9Z" fill="#e2f7ab" stroke="#e2f7ab"></path><path d="M397 269.1L394 294.1L420 292.9Z" fill="#cdeeb2" stroke="#cdeeb2"></path><path d="M394 294.1L398 334.7L420 292.9Z" fill="#b1d8bb" stroke="#b1d8bb"></path><path d="M420 292.9L454 370.6L466 284.9Z" fill="#fcffa4" stroke="#fcffa4"></path><path d="M403 258L397 269.1L430 281.1Z" fill="#d7f3af" stroke="#d7f3af"></path><path d="M430 281.1L397 269.1L420 292.9Z" fill="#aaccbb" stroke="#aaccbb"></path><path d="M432 224.3L403 258L430 281.1Z" fill="#c4e9b5" stroke="#c4e9b5"></path><path d="M398 334.7L454 370.6L420 292.9Z" fill="#e2f7ab" stroke="#e2f7ab"></path><path d="M531 280L493 255.9L466 284.9Z" fill="#aaccbb" stroke="#aaccbb"></path><path d="M466 284.9L432 224.3L430 281.1Z" fill="#add2bb" stroke="#add2bb"></path><path d="M493 255.9L432 224.3L466 284.9Z" fill="#add2bb" stroke="#add2bb"></path><path d="M539 313.3L531 280L466 284.9Z" fill="#fcffa4" stroke="#fcffa4"></path><path d="M403 258L366 265.4L397 269.1Z" fill="#c4e9b5" stroke="#c4e9b5"></path><path d="M397 269.1L366 265.4L394 294.1Z" fill="#e2f7ab" stroke="#e2f7ab"></path><path d="M394 294.1L348 299.7L398 334.7Z" fill="#c4e9b5" stroke="#c4e9b5"></path><path d="M361 248.1L366 265.4L403 258Z" fill="#b1d8bb" stroke="#b1d8bb"></path><path d="M520 363.9L539 313.3L466 284.9Z" fill="#effba7" stroke="#effba7"></path><path d="M520 363.9L466 284.9L454 370.6Z" fill="#bce4b8" stroke="#bce4b8"></path><path d="M484 388.7L520 363.9L454 370.6Z" fill="#add2bb" stroke="#add2bb"></path><path d="M366 265.4L348 299.7L394 294.1Z" fill="#e2f7ab" stroke="#e2f7ab"></path><path d="M432 224.3L361 248.1L403 258Z" fill="#aaccbb" stroke="#aaccbb"></path><path d="M366 265.4L319 274L348 299.7Z" fill="#effba7" stroke="#effba7"></path><path d="M348 299.7L355 351.1L398 334.7Z" fill="#b6deba" stroke="#b6deba"></path><path d="M398 334.7L389 397L454 370.6Z" fill="#add2bb" stroke="#add2bb"></path><path d="M454 370.6L441 425.4L484 388.7Z" fill="#b1d8bb" stroke="#b1d8bb"></path><path d="M582 297.7L542 261L531 280Z" fill="#fcffa4" stroke="#fcffa4"></path><path d="M531 280L542 261L493 255.9Z" fill="#e2f7ab" stroke="#e2f7ab"></path><path d="M493 255.9L461 191.4L432 224.3Z" fill="#bce4b8" stroke="#bce4b8"></path><path d="M355 351.1L389 397L398 334.7Z" fill="#aaccbb" stroke="#aaccbb"></path><path d="M531 169.1L461 191.4L493 255.9Z" fill="#b1d8bb" stroke="#b1d8bb"></path><path d="M432 224.3L365 169.3L361 248.1Z" fill="#effba7" stroke="#effba7"></path><path d="M557 344.7L558 333L539 313.3Z" fill="#b6deba" stroke="#b6deba"></path><path d="M539 313.3L582 297.7L531 280Z" fill="#b1d8bb" stroke="#b1d8bb"></path><path d="M567 380.6L557 344.7L520 363.9Z" fill="#c4e9b5" stroke="#c4e9b5"></path><path d="M520 363.9L557 344.7L539 313.3Z" fill="#fcffa4" stroke="#fcffa4"></path><path d="M389 397L441 425.4L454 370.6Z" fill="#effba7" stroke="#effba7"></path><path d="M484 388.7L548 415.4L520 363.9Z" fill="#e2f7ab" stroke="#e2f7ab"></path><path d="M348 299.7L337 358.6L355 351.1Z" fill="#fcffa4" stroke="#fcffa4"></path><path d="M355 351.1L337 358.6L389 397Z" fill="#cdeeb2" stroke="#cdeeb2"></path><path d="M361 248.1L319 274L366 265.4Z" fill="#e2f7ab" stroke="#e2f7ab"></path><path d="M284 337.9L303 363.9L337 358.6Z" fill="#e2f7ab" stroke="#e2f7ab"></path><path d="M586 295.9L582 297.7L593 312.1Z" fill="#cdeeb2" stroke="#cdeeb2"></path><path d="M558 333L582 297.7L539 313.3Z" fill="#d7f3af" stroke="#d7f3af"></path><path d="M588 257.4L561 230.4L542 261Z" fill="#d7f3af" stroke="#d7f3af"></path><path d="M542 261L561 230.4L493 255.9Z" fill="#add2bb" stroke="#add2bb"></path><path d="M441 425.4L505 431.4L484 388.7Z" fill="#c4e9b5" stroke="#c4e9b5"></path><path d="M593 312.1L582 297.7L558 333Z" fill="#bce4b8" stroke="#bce4b8"></path><path d="M582 297.7L588 257.4L542 261Z" fill="#aaccbb" stroke="#aaccbb"></path><path d="M303 363.9L324 375L337 358.6Z" fill="#bce4b8" stroke="#bce4b8"></path><path d="M337 358.6L324 375L389 397Z" fill="#effba7" stroke="#effba7"></path><path d="M389 397L363 436.9L441 425.4Z" fill="#cdeeb2" stroke="#cdeeb2"></path><path d="M548 415.4L567 380.6L520 363.9Z" fill="#add2bb" stroke="#add2bb"></path><path d="M557 344.7L593 312.1L558 333Z" fill="#aaccbb" stroke="#aaccbb"></path><path d="M567 380.6L593 312.1L557 344.7Z" fill="#cdeeb2" stroke="#cdeeb2"></path><path d="M586 295.9L588 257.4L582 297.7Z" fill="#cdeeb2" stroke="#cdeeb2"></path><path d="M593 257.9L588 257.4L586 295.9Z" fill="#b1d8bb" stroke="#b1d8bb"></path><path d="M505 431.4L548 415.4L484 388.7Z" fill="#e2f7ab" stroke="#e2f7ab"></path><path d="M606 252.1L593 257.9L586 295.9Z" fill="#b6deba" stroke="#b6deba"></path><path d="M588 257.4L606 252.1L561 230.4Z" fill="#bce4b8" stroke="#bce4b8"></path><path d="M284 337.9L337 358.6L348 299.7Z" fill="#cdeeb2" stroke="#cdeeb2"></path><path d="M355 436.4L389 397L324 375Z" fill="#e2f7ab" stroke="#e2f7ab"></path><path d="M355 436.4L363 436.9L389 397Z" fill="#b6deba" stroke="#b6deba"></path><path d="M441 425.4L479 460.3L505 431.4Z" fill="#effba7" stroke="#effba7"></path><path d="M461 191.4L365 169.3L432 224.3Z" fill="#b1d8bb" stroke="#b1d8bb"></path><path d="M361 248.1L280 187.4L319 274Z" fill="#b6deba" stroke="#b6deba"></path><path d="M442 482.6L479 460.3L441 425.4Z" fill="#cdeeb2" stroke="#cdeeb2"></path><path d="M505 431.4L524 446.6L548 415.4Z" fill="#c4e9b5" stroke="#c4e9b5"></path><path d="M320 449.6L355 436.4L324 375Z" fill="#b1d8bb" stroke="#b1d8bb"></path><path d="M489 499.1L492 468.7L479 460.3Z" fill="#fcffa4" stroke="#fcffa4"></path><path d="M548 164.7L531 169.1L561 230.4Z" fill="#aaccbb" stroke="#aaccbb"></path><path d="M561 230.4L531 169.1L493 255.9Z" fill="#cdeeb2" stroke="#cdeeb2"></path><path d="M418 124.7L356 158.7L365 169.3Z" fill="#e2f7ab" stroke="#e2f7ab"></path><path d="M492 468.7L524 446.6L505 431.4Z" fill="#e2f7ab" stroke="#e2f7ab"></path><path d="M271 320.1L284 337.9L319 274Z" fill="#bce4b8" stroke="#bce4b8"></path><path d="M319 274L284 337.9L348 299.7Z" fill="#add2bb" stroke="#add2bb"></path><path d="M372 477.6L363 436.9L366 475.4Z" fill="#bce4b8" stroke="#bce4b8"></path><path d="M593 312.1L606 252.1L586 295.9Z" fill="#d7f3af" stroke="#d7f3af"></path><path d="M593 257.9L606 252.1L588 257.4Z" fill="#b6deba" stroke="#b6deba"></path><path d="M442 482.6L441 425.4L384 478.3Z" fill="#e2f7ab" stroke="#e2f7ab"></path><path d="M479 460.3L492 468.7L505 431.4Z" fill="#bce4b8" stroke="#bce4b8"></path><path d="M418 124.7L365 169.3L461 191.4Z" fill="#cdeeb2" stroke="#cdeeb2"></path><path d="M365 169.3L280 187.4L361 248.1Z" fill="#b1d8bb" stroke="#b1d8bb"></path><path d="M604 187.4L548 164.7L561 230.4Z" fill="#d7f3af" stroke="#d7f3af"></path><path d="M531 169.1L473 131.6L461 191.4Z" fill="#effba7" stroke="#effba7"></path><path d="M520 116.3L473 131.6L531 169.1Z" fill="#b1d8bb" stroke="#b1d8bb"></path><path d="M262 292.3L271 320.1L319 274Z" fill="#b1d8bb" stroke="#b1d8bb"></path><path d="M320 449.6L324 375L261 385.4Z" fill="#add2bb" stroke="#add2bb"></path><path d="M384 478.3L441 425.4L363 436.9Z" fill="#aaccbb" stroke="#aaccbb"></path><path d="M473 131.6L418 124.7L461 191.4Z" fill="#effba7" stroke="#effba7"></path><path d="M280 187.4L262 292.3L319 274Z" fill="#aaccbb" stroke="#aaccbb"></path><path d="M267 355.6L303 363.9L284 337.9Z" fill="#bce4b8" stroke="#bce4b8"></path><path d="M372 477.6L384 478.3L363 436.9Z" fill="#bce4b8" stroke="#bce4b8"></path><path d="M235 374.9L267 355.6L213 350.7Z" fill="#e2f7ab" stroke="#e2f7ab"></path><path d="M271 320.1L267 355.6L284 337.9Z" fill="#e2f7ab" stroke="#e2f7ab"></path><path d="M489 499.1L508 480.6L492 468.7Z" fill="#e2f7ab" stroke="#e2f7ab"></path><path d="M492 468.7L508 480.6L524 446.6Z" fill="#d7f3af" stroke="#d7f3af"></path><path d="M524 446.6L551 476.7L548 415.4Z" fill="#fcffa4" stroke="#fcffa4"></path><path d="M605 134.7L540 142.6L548 164.7Z" fill="#b1d8bb" stroke="#b1d8bb"></path><path d="M548 164.7L540 142.6L531 169.1Z" fill="#b1d8bb" stroke="#b1d8bb"></path><path d="M366 475.4L363 436.9L355 436.4Z" fill="#fcffa4" stroke="#fcffa4"></path><path d="M441 533.1L489 499.1L442 482.6Z" fill="#cdeeb2" stroke="#cdeeb2"></path><path d="M354 480.7L366 475.4L355 436.4Z" fill="#c4e9b5" stroke="#c4e9b5"></path><path d="M261 385.4L324 375L303 363.9Z" fill="#add2bb" stroke="#add2bb"></path><path d="M695 292.1L627 239.1L606 252.1Z" fill="#bce4b8" stroke="#bce4b8"></path><path d="M606 252.1L620 217L561 230.4Z" fill="#fcffa4" stroke="#fcffa4"></path><path d="M662 228L627 239.1L695 292.1Z" fill="#c4e9b5" stroke="#c4e9b5"></path><path d="M627 239.1L620 217L606 252.1Z" fill="#e2f7ab" stroke="#e2f7ab"></path><path d="M620 217L604 187.4L561 230.4Z" fill="#fcffa4" stroke="#fcffa4"></path><path d="M508 480.6L544 476.1L524 446.6Z" fill="#aaccbb" stroke="#aaccbb"></path><path d="M548 415.4L599 442.4L567 380.6Z" fill="#c4e9b5" stroke="#c4e9b5"></path><path d="M673 386.6L679 341.9L593 312.1Z" fill="#fcffa4" stroke="#fcffa4"></path><path d="M320 449.6L354 480.7L355 436.4Z" fill="#cdeeb2" stroke="#cdeeb2"></path><path d="M366 475.4L354 480.7L372 477.6Z" fill="#add2bb" stroke="#add2bb"></path><path d="M372 477.6L397 578.3L384 478.3Z" fill="#b6deba" stroke="#b6deba"></path><path d="M442 482.6L489 499.1L479 460.3Z" fill="#c4e9b5" stroke="#c4e9b5"></path><path d="M508 480.6L489 499.1L544 476.1Z" fill="#e2f7ab" stroke="#e2f7ab"></path><path d="M441 533.1L442 482.6L384 478.3Z" fill="#bce4b8" stroke="#bce4b8"></path><path d="M235 374.9L261 385.4L267 355.6Z" fill="#b1d8bb" stroke="#b1d8bb"></path><path d="M267 355.6L261 385.4L303 363.9Z" fill="#c4e9b5" stroke="#c4e9b5"></path><path d="M500 563.4L551 476.7L544 476.1Z" fill="#aaccbb" stroke="#aaccbb"></path><path d="M544 476.1L551 476.7L524 446.6Z" fill="#cdeeb2" stroke="#cdeeb2"></path><path d="M627 239.1L627 216.3L620 217Z" fill="#b6deba" stroke="#b6deba"></path><path d="M620 217L627 216.3L604 187.4Z" fill="#e2f7ab" stroke="#e2f7ab"></path><path d="M540 142.6L520 116.3L531 169.1Z" fill="#c4e9b5" stroke="#c4e9b5"></path><path d="M473 131.6L483 98.6L418 124.7Z" fill="#e2f7ab" stroke="#e2f7ab"></path><path d="M576 102.4L520 116.3L540 142.6Z" fill="#d7f3af" stroke="#d7f3af"></path><path d="M318 144.3L280 187.4L356 158.7Z" fill="#bce4b8" stroke="#bce4b8"></path><path d="M356 158.7L280 187.4L365 169.3Z" fill="#fcffa4" stroke="#fcffa4"></path><path d="M370 58.6L318 144.3L356 158.7Z" fill="#effba7" stroke="#effba7"></path><path d="M551 476.7L599 442.4L548 415.4Z" fill="#c4e9b5" stroke="#c4e9b5"></path><path d="M499 98.7L483 98.6L473 131.6Z" fill="#b6deba" stroke="#b6deba"></path><path d="M418 124.7L370 58.6L356 158.7Z" fill="#b1d8bb" stroke="#b1d8bb"></path><path d="M267 153.3L273 182.1L280 187.4Z" fill="#cdeeb2" stroke="#cdeeb2"></path><path d="M280 187.4L212 215.6L262 292.3Z" fill="#aaccbb" stroke="#aaccbb"></path><path d="M520 116.3L499 98.7L473 131.6Z" fill="#aaccbb" stroke="#aaccbb"></path><path d="M320 449.6L314 475.3L354 480.7Z" fill="#b6deba" stroke="#b6deba"></path><path d="M397 578.3L441 533.1L384 478.3Z" fill="#c4e9b5" stroke="#c4e9b5"></path><path d="M280 457.3L314 475.3L320 449.6Z" fill="#effba7" stroke="#effba7"></path><path d="M627 216.3L642 213.6L604 187.4Z" fill="#b6deba" stroke="#b6deba"></path><path d="M604 187.4L605 134.7L548 164.7Z" fill="#e2f7ab" stroke="#e2f7ab"></path><path d="M520 116.3L543 76.9L499 98.7Z" fill="#aaccbb" stroke="#aaccbb"></path><path d="M627 239.1L642 213.6L627 216.3Z" fill="#bce4b8" stroke="#bce4b8"></path><path d="M662 228L642 213.6L627 239.1Z" fill="#cdeeb2" stroke="#cdeeb2"></path><path d="M216 333.1L267 355.6L271 320.1Z" fill="#b6deba" stroke="#b6deba"></path><path d="M261 385.4L280 457.3L320 449.6Z" fill="#b1d8bb" stroke="#b1d8bb"></path><path d="M216 333.1L271 320.1L262 292.3Z" fill="#b6deba" stroke="#b6deba"></path><path d="M271 469.6L280 457.3L235 458.1Z" fill="#c4e9b5" stroke="#c4e9b5"></path><path d="M397 578.3L372 477.6L354 480.7Z" fill="#b1d8bb" stroke="#b1d8bb"></path><path d="M489 499.1L500 563.4L544 476.1Z" fill="#fcffa4" stroke="#fcffa4"></path><path d="M695 292.1L606 252.1L593 312.1Z" fill="#d7f3af" stroke="#d7f3af"></path><path d="M618 145.3L605 134.7L604 187.4Z" fill="#bce4b8" stroke="#bce4b8"></path><path d="M267 153.3L258 169.4L273 182.1Z" fill="#aaccbb" stroke="#aaccbb"></path><path d="M273 182.1L212 215.6L280 187.4Z" fill="#bce4b8" stroke="#bce4b8"></path><path d="M201 336L216 333.1L198 261Z" fill="#cdeeb2" stroke="#cdeeb2"></path><path d="M618 145.3L604 187.4L623 145.7Z" fill="#effba7" stroke="#effba7"></path><path d="M282 95.7L267 153.3L318 144.3Z" fill="#bce4b8" stroke="#bce4b8"></path><path d="M318 144.3L267 153.3L280 187.4Z" fill="#e2f7ab" stroke="#e2f7ab"></path><path d="M623 145.7L604 187.4L669 169.6Z" fill="#c4e9b5" stroke="#c4e9b5"></path><path d="M267 153.3L256 165.3L258 169.4Z" fill="#bce4b8" stroke="#bce4b8"></path><path d="M198 261L216 333.1L262 292.3Z" fill="#e2f7ab" stroke="#e2f7ab"></path><path d="M673 386.6L593 312.1L567 380.6Z" fill="#add2bb" stroke="#add2bb"></path><path d="M551 476.7L621 464.1L599 442.4Z" fill="#b1d8bb" stroke="#b1d8bb"></path><path d="M599 442.4L673 386.6L567 380.6Z" fill="#fcffa4" stroke="#fcffa4"></path><path d="M620 507.6L621 464.1L551 476.7Z" fill="#add2bb" stroke="#add2bb"></path><path d="M216 333.1L213 350.7L267 355.6Z" fill="#b1d8bb" stroke="#b1d8bb"></path><path d="M235 458.1L280 457.3L261 385.4Z" fill="#bce4b8" stroke="#bce4b8"></path><path d="M624 144.3L623 145.7L669 169.6Z" fill="#cdeeb2" stroke="#cdeeb2"></path><path d="M618 145.3L625 121.7L605 134.7Z" fill="#d7f3af" stroke="#d7f3af"></path><path d="M621 464.1L635 451.3L599 442.4Z" fill="#e2f7ab" stroke="#e2f7ab"></path><path d="M201 336L213 350.7L216 333.1Z" fill="#b1d8bb" stroke="#b1d8bb"></path><path d="M201 336L211 352L213 350.7Z" fill="#e2f7ab" stroke="#e2f7ab"></path><path d="M213 350.7L211 352L235 374.9Z" fill="#cdeeb2" stroke="#cdeeb2"></path><path d="M669 169.6L604 187.4L642 213.6Z" fill="#b1d8bb" stroke="#b1d8bb"></path><path d="M623 145.7L624 144.3L618 145.3Z" fill="#fcffa4" stroke="#fcffa4"></path><path d="M280 457.3L271 469.6L314 475.3Z" fill="#add2bb" stroke="#add2bb"></path><path d="M367 605.1L397 578.3L322 600Z" fill="#fcffa4" stroke="#fcffa4"></path><path d="M269 490.1L271 469.6L229 484.7Z" fill="#b1d8bb" stroke="#b1d8bb"></path><path d="M590 101.6L576 102.4L605 134.7Z" fill="#aaccbb" stroke="#aaccbb"></path><path d="M605 134.7L576 102.4L540 142.6Z" fill="#b1d8bb" stroke="#b1d8bb"></path><path d="M635 451.3L673 386.6L599 442.4Z" fill="#e2f7ab" stroke="#e2f7ab"></path><path d="M212 215.6L273 182.1L222 183.6Z" fill="#d7f3af" stroke="#d7f3af"></path><path d="M235 458.1L261 385.4L235 374.9Z" fill="#add2bb" stroke="#add2bb"></path><path d="M499 98.7L464 40.9L483 98.6Z" fill="#b1d8bb" stroke="#b1d8bb"></path><path d="M409 34.6L370 58.6L418 124.7Z" fill="#aaccbb" stroke="#aaccbb"></path><path d="M576 102.4L543 76.9L520 116.3Z" fill="#b1d8bb" stroke="#b1d8bb"></path><path d="M625 121.7L590 101.6L605 134.7Z" fill="#bce4b8" stroke="#bce4b8"></path><path d="M576 102.4L564 33.7L543 76.9Z" fill="#bce4b8" stroke="#bce4b8"></path><path d="M702 354.7L695 292.1L679 341.9Z" fill="#add2bb" stroke="#add2bb"></path><path d="M679 341.9L695 292.1L593 312.1Z" fill="#e2f7ab" stroke="#e2f7ab"></path><path d="M672 129.6L625 121.7L624 144.3Z" fill="#e2f7ab" stroke="#e2f7ab"></path><path d="M222 183.6L273 182.1L258 169.4Z" fill="#aaccbb" stroke="#aaccbb"></path><path d="M212 215.6L198 261L262 292.3Z" fill="#aaccbb" stroke="#aaccbb"></path><path d="M256 165.3L222 183.6L258 169.4Z" fill="#aaccbb" stroke="#aaccbb"></path><path d="M225 137.4L222 183.6L256 165.3Z" fill="#add2bb" stroke="#add2bb"></path><path d="M669 169.6L642 213.6L662 228Z" fill="#aaccbb" stroke="#aaccbb"></path><path d="M624 144.3L625 121.7L618 145.3Z" fill="#b1d8bb" stroke="#b1d8bb"></path><path d="M235 458.1L235 374.9L174 395.9Z" fill="#effba7" stroke="#effba7"></path><path d="M271 469.6L269 490.1L314 475.3Z" fill="#aaccbb" stroke="#aaccbb"></path><path d="M464 40.9L418 124.7L483 98.6Z" fill="#cdeeb2" stroke="#cdeeb2"></path><path d="M267 153.3L225 137.4L256 165.3Z" fill="#aaccbb" stroke="#aaccbb"></path><path d="M695 292.1L701 260L662 228Z" fill="#b1d8bb" stroke="#b1d8bb"></path><path d="M229 484.7L235 458.1L194 462.1Z" fill="#b1d8bb" stroke="#b1d8bb"></path><path d="M708 466.1L693 387.9L673 386.6Z" fill="#c4e9b5" stroke="#c4e9b5"></path><path d="M673 386.6L702 354.7L679 341.9Z" fill="#aaccbb" stroke="#aaccbb"></path><path d="M695 292.1L712 277L701 260Z" fill="#add2bb" stroke="#add2bb"></path><path d="M725 209.4L669 169.6L662 228Z" fill="#aaccbb" stroke="#aaccbb"></path><path d="M693 387.9L702 354.7L673 386.6Z" fill="#add2bb" stroke="#add2bb"></path><path d="M212 215.6L193 234.3L198 261Z" fill="#d7f3af" stroke="#d7f3af"></path><path d="M142 301L171 378.7L201 336Z" fill="#cdeeb2" stroke="#cdeeb2"></path><path d="M181 166.6L193 234.3L212 215.6Z" fill="#bce4b8" stroke="#bce4b8"></path><path d="M453 600L500 563.4L441 533.1Z" fill="#e2f7ab" stroke="#e2f7ab"></path><path d="M441 533.1L500 563.4L489 499.1Z" fill="#d7f3af" stroke="#d7f3af"></path><path d="M543 76.9L464 40.9L499 98.7Z" fill="#effba7" stroke="#effba7"></path><path d="M370 58.6L282 95.7L318 144.3Z" fill="#add2bb" stroke="#add2bb"></path><path d="M609 535.3L620 507.6L551 476.7Z" fill="#fcffa4" stroke="#fcffa4"></path><path d="M621 464.1L681 492.3L635 451.3Z" fill="#effba7" stroke="#effba7"></path><path d="M635 451.3L708 466.1L673 386.6Z" fill="#b1d8bb" stroke="#b1d8bb"></path><path d="M729 280.1L712 277L695 292.1Z" fill="#fcffa4" stroke="#fcffa4"></path><path d="M725 209.4L688 141.4L669 169.6Z" fill="#b6deba" stroke="#b6deba"></path><path d="M672 129.6L626 104.6L625 121.7Z" fill="#bce4b8" stroke="#bce4b8"></path><path d="M625 121.7L626 104.6L590 101.6Z" fill="#fcffa4" stroke="#fcffa4"></path><path d="M590 101.6L564 33.7L576 102.4Z" fill="#fcffa4" stroke="#fcffa4"></path><path d="M543 76.9L514 0L464 40.9Z" fill="#effba7" stroke="#effba7"></path><path d="M464 40.9L409 34.6L418 124.7Z" fill="#b1d8bb" stroke="#b1d8bb"></path><path d="M370 58.6L293 41.9L282 95.7Z" fill="#bce4b8" stroke="#bce4b8"></path><path d="M282 95.7L225 137.4L267 153.3Z" fill="#b6deba" stroke="#b6deba"></path><path d="M222 183.6L198 166.7L212 215.6Z" fill="#bce4b8" stroke="#bce4b8"></path><path d="M397 578.3L354 480.7L322 600Z" fill="#c4e9b5" stroke="#c4e9b5"></path><path d="M235 458.1L229 484.7L271 469.6Z" fill="#c4e9b5" stroke="#c4e9b5"></path><path d="M367 605.1L398 600L397 578.3Z" fill="#c4e9b5" stroke="#c4e9b5"></path><path d="M174 395.9L235 374.9L211 352Z" fill="#c4e9b5" stroke="#c4e9b5"></path><path d="M601 547.4L609 535.3L551 476.7Z" fill="#fcffa4" stroke="#fcffa4"></path><path d="M620 507.6L681 492.3L621 464.1Z" fill="#b1d8bb" stroke="#b1d8bb"></path><path d="M225 137.4L198 166.7L222 183.6Z" fill="#aaccbb" stroke="#aaccbb"></path><path d="M741 293.3L729 280.1L695 292.1Z" fill="#fcffa4" stroke="#fcffa4"></path><path d="M712 277L729 280.1L701 260Z" fill="#e2f7ab" stroke="#e2f7ab"></path><path d="M741 293.3L695 292.1L749 317.7Z" fill="#fcffa4" stroke="#fcffa4"></path><path d="M142 301L201 336L198 261Z" fill="#fcffa4" stroke="#fcffa4"></path><path d="M201 336L171 378.7L211 352Z" fill="#cdeeb2" stroke="#cdeeb2"></path><path d="M142 301L198 261L130 261.1Z" fill="#effba7" stroke="#effba7"></path><path d="M688 141.4L672 129.6L669 169.6Z" fill="#d7f3af" stroke="#d7f3af"></path><path d="M669 169.6L672 129.6L624 144.3Z" fill="#c4e9b5" stroke="#c4e9b5"></path><path d="M171 378.7L174 395.9L211 352Z" fill="#fcffa4" stroke="#fcffa4"></path><path d="M500 563.4L601 547.4L551 476.7Z" fill="#c4e9b5" stroke="#c4e9b5"></path><path d="M725 209.4L662 228L701 260Z" fill="#add2bb" stroke="#add2bb"></path><path d="M729 280.1L725 209.4L701 260Z" fill="#effba7" stroke="#effba7"></path><path d="M397 578.3L453 600L441 533.1Z" fill="#b6deba" stroke="#b6deba"></path><path d="M500 563.4L598 568.1L601 547.4Z" fill="#b1d8bb" stroke="#b1d8bb"></path><path d="M749 317.7L695 292.1L702 354.7Z" fill="#aaccbb" stroke="#aaccbb"></path><path d="M729 280.1L812 290.9L725 209.4Z" fill="#b1d8bb" stroke="#b1d8bb"></path><path d="M638 42.9L590 101.6L626 104.6Z" fill="#e2f7ab" stroke="#e2f7ab"></path><path d="M638 42.9L564 33.7L590 101.6Z" fill="#cdeeb2" stroke="#cdeeb2"></path><path d="M464 40.9L430 5.9L409 34.6Z" fill="#d7f3af" stroke="#d7f3af"></path><path d="M682 125.7L626 104.6L672 129.6Z" fill="#e2f7ab" stroke="#e2f7ab"></path><path d="M717 134.4L682 125.7L688 141.4Z" fill="#d7f3af" stroke="#d7f3af"></path><path d="M688 141.4L682 125.7L672 129.6Z" fill="#cdeeb2" stroke="#cdeeb2"></path><path d="M174 395.9L194 462.1L235 458.1Z" fill="#e2f7ab" stroke="#e2f7ab"></path><path d="M453 600L481 600L500 563.4Z" fill="#b1d8bb" stroke="#b1d8bb"></path><path d="M162 126.6L181 166.6L198 166.7Z" fill="#c4e9b5" stroke="#c4e9b5"></path><path d="M198 166.7L181 166.6L212 215.6Z" fill="#c4e9b5" stroke="#c4e9b5"></path><path d="M162 126.6L198 166.7L225 137.4Z" fill="#cdeeb2" stroke="#cdeeb2"></path><path d="M354 480.7L314 475.3L322 600Z" fill="#effba7" stroke="#effba7"></path><path d="M397 578.3L398 600L453 600Z" fill="#add2bb" stroke="#add2bb"></path><path d="M367 605.1L322 600L367 605.3Z" fill="#effba7" stroke="#effba7"></path><path d="M449 0L430 5.9L464 40.9Z" fill="#b6deba" stroke="#b6deba"></path><path d="M339 0L293 41.9L370 58.6Z" fill="#cdeeb2" stroke="#cdeeb2"></path><path d="M481 600L501 600L500 563.4Z" fill="#effba7" stroke="#effba7"></path><path d="M640 540.4L681 492.3L620 507.6Z" fill="#add2bb" stroke="#add2bb"></path><path d="M775 356.7L749 317.7L702 354.7Z" fill="#e2f7ab" stroke="#e2f7ab"></path><path d="M640 540.4L620 507.6L609 535.3Z" fill="#d7f3af" stroke="#d7f3af"></path><path d="M775 356.7L702 354.7L781 393.6Z" fill="#bce4b8" stroke="#bce4b8"></path><path d="M837 242L766 163.1L725 209.4Z" fill="#add2bb" stroke="#add2bb"></path><path d="M130 261.1L198 261L193 234.3Z" fill="#cdeeb2" stroke="#cdeeb2"></path><path d="M119 414.3L146 432.4L174 395.9Z" fill="#bce4b8" stroke="#bce4b8"></path><path d="M146 432.4L179 471.7L194 462.1Z" fill="#aaccbb" stroke="#aaccbb"></path><path d="M339 0L370 58.6L409 34.6Z" fill="#bce4b8" stroke="#bce4b8"></path><path d="M227 46.7L162 126.6L225 137.4Z" fill="#c4e9b5" stroke="#c4e9b5"></path><path d="M558 623.1L598 568.1L500 563.4Z" fill="#c4e9b5" stroke="#c4e9b5"></path><path d="M601 547.4L640 540.4L609 535.3Z" fill="#d7f3af" stroke="#d7f3af"></path><path d="M455 0L449 0L464 40.9Z" fill="#cdeeb2" stroke="#cdeeb2"></path><path d="M397 -32.1L339 0L409 34.6Z" fill="#b1d8bb" stroke="#b1d8bb"></path><path d="M514 0L455 0L464 40.9Z" fill="#fcffa4" stroke="#fcffa4"></path><path d="M598 568.1L640 540.4L601 547.4Z" fill="#fcffa4" stroke="#fcffa4"></path><path d="M735 519.3L708 466.1L681 492.3Z" fill="#cdeeb2" stroke="#cdeeb2"></path><path d="M681 492.3L708 466.1L635 451.3Z" fill="#add2bb" stroke="#add2bb"></path><path d="M314 475.3L269 490.1L322 600Z" fill="#effba7" stroke="#effba7"></path><path d="M398 600L367 605.3L453 600Z" fill="#fcffa4" stroke="#fcffa4"></path><path d="M453 600L558 623.1L481 600Z" fill="#bce4b8" stroke="#bce4b8"></path><path d="M481 600L558 623.1L501 600Z" fill="#add2bb" stroke="#add2bb"></path><path d="M322 600L269 490.1L279 600Z" fill="#cdeeb2" stroke="#cdeeb2"></path><path d="M367 605.1L367 605.3L398 600Z" fill="#aaccbb" stroke="#aaccbb"></path><path d="M564 33.7L514 0L543 76.9Z" fill="#e2f7ab" stroke="#e2f7ab"></path><path d="M181 166.6L142 222.4L193 234.3Z" fill="#c4e9b5" stroke="#c4e9b5"></path><path d="M146 432.4L194 462.1L174 395.9Z" fill="#e2f7ab" stroke="#e2f7ab"></path><path d="M194 462.1L179 471.7L229 484.7Z" fill="#e2f7ab" stroke="#e2f7ab"></path><path d="M142 222.4L130 261.1L193 234.3Z" fill="#bce4b8" stroke="#bce4b8"></path><path d="M139 437.9L146 432.4L137 435.6Z" fill="#cdeeb2" stroke="#cdeeb2"></path><path d="M593 0L541 0L564 33.7Z" fill="#bce4b8" stroke="#bce4b8"></path><path d="M564 33.7L541 0L514 0Z" fill="#effba7" stroke="#effba7"></path><path d="M279 600L269 490.1L263 600Z" fill="#aaccbb" stroke="#aaccbb"></path><path d="M725 209.4L717 134.4L688 141.4Z" fill="#b6deba" stroke="#b6deba"></path><path d="M673 51.6L638 42.9L626 104.6Z" fill="#d7f3af" stroke="#d7f3af"></path><path d="M766 163.1L717 134.4L725 209.4Z" fill="#d7f3af" stroke="#d7f3af"></path><path d="M397 -32.1L409 34.6L430 5.9Z" fill="#b1d8bb" stroke="#b1d8bb"></path><path d="M673 51.6L626 104.6L682 125.7Z" fill="#effba7" stroke="#effba7"></path><path d="M146 432.4L119 414.3L137 435.6Z" fill="#b6deba" stroke="#b6deba"></path><path d="M142 222.4L124 241.3L130 261.1Z" fill="#bce4b8" stroke="#bce4b8"></path><path d="M130 261.1L115 281L142 301Z" fill="#effba7" stroke="#effba7"></path><path d="M79 203.6L124 241.3L142 222.4Z" fill="#fcffa4" stroke="#fcffa4"></path><path d="M124 241.3L115 281L130 261.1Z" fill="#add2bb" stroke="#add2bb"></path><path d="M781 393.6L702 354.7L693 387.9Z" fill="#aaccbb" stroke="#aaccbb"></path><path d="M749 317.7L812 290.9L741 293.3Z" fill="#effba7" stroke="#effba7"></path><path d="M174 395.9L171 378.7L119 414.3Z" fill="#effba7" stroke="#effba7"></path><path d="M146 432.4L139 437.9L179 471.7Z" fill="#effba7" stroke="#effba7"></path><path d="M263 600L269 490.1L253 600Z" fill="#effba7" stroke="#effba7"></path><path d="M227 46.7L225 137.4L282 95.7Z" fill="#b1d8bb" stroke="#b1d8bb"></path><path d="M181 166.6L124 180.3L142 222.4Z" fill="#b1d8bb" stroke="#b1d8bb"></path><path d="M227 46.7L282 95.7L293 41.9Z" fill="#e2f7ab" stroke="#e2f7ab"></path><path d="M119 414.3L171 378.7L79 352.6Z" fill="#aaccbb" stroke="#aaccbb"></path><path d="M598 568.1L622 600L640 540.4Z" fill="#cdeeb2" stroke="#cdeeb2"></path><path d="M708 569.4L735 519.3L681 492.3Z" fill="#aaccbb" stroke="#aaccbb"></path><path d="M558 623.1L607 600L598 568.1Z" fill="#cdeeb2" stroke="#cdeeb2"></path><path d="M558 623.1L500 563.4L501 600Z" fill="#e2f7ab" stroke="#e2f7ab"></path><path d="M367 605.3L558 623.1L453 600Z" fill="#fcffa4" stroke="#fcffa4"></path><path d="M269 -5.1L227 46.7L293 41.9Z" fill="#b6deba" stroke="#b6deba"></path><path d="M605 0L593 0L564 33.7Z" fill="#b6deba" stroke="#b6deba"></path><path d="M229 484.7L179 471.7L174 525.4Z" fill="#effba7" stroke="#effba7"></path><path d="M269 490.1L229 484.7L253 600Z" fill="#aaccbb" stroke="#aaccbb"></path><path d="M322 600L279 600L367 605.3Z" fill="#b1d8bb" stroke="#b1d8bb"></path><path d="M367 605.3L46 646.1L558 623.1Z" fill="#c4e9b5" stroke="#c4e9b5"></path><path d="M749 77.9L673 51.6L682 125.7Z" fill="#cdeeb2" stroke="#cdeeb2"></path><path d="M638 42.9L605 0L564 33.7Z" fill="#fcffa4" stroke="#fcffa4"></path><path d="M449 0L397 -32.1L430 5.9Z" fill="#bce4b8" stroke="#bce4b8"></path><path d="M339 0L289 0L293 41.9Z" fill="#effba7" stroke="#effba7"></path><path d="M455 0L397 -32.1L449 0Z" fill="#c4e9b5" stroke="#c4e9b5"></path><path d="M514 0L397 -32.1L455 0Z" fill="#b1d8bb" stroke="#b1d8bb"></path><path d="M617 -32.1L397 -32.1L514 0Z" fill="#effba7" stroke="#effba7"></path><path d="M617 -32.1L514 0L541 0Z" fill="#fcffa4" stroke="#fcffa4"></path><path d="M358 -34.1L289 0L339 0Z" fill="#bce4b8" stroke="#bce4b8"></path><path d="M609 0L605 0L638 42.9Z" fill="#d7f3af" stroke="#d7f3af"></path><path d="M593 0L617 -32.1L541 0Z" fill="#d7f3af" stroke="#d7f3af"></path><path d="M630 603.3L622 600L607 600Z" fill="#effba7" stroke="#effba7"></path><path d="M607 600L622 600L598 568.1Z" fill="#c4e9b5" stroke="#c4e9b5"></path><path d="M79 352.6L171 378.7L142 301Z" fill="#fcffa4" stroke="#fcffa4"></path><path d="M162 126.6L124 180.3L181 166.6Z" fill="#c4e9b5" stroke="#c4e9b5"></path><path d="M124 241.3L87 234.1L115 281Z" fill="#e2f7ab" stroke="#e2f7ab"></path><path d="M617 -32.1L609 0L625 -32.1Z" fill="#b6deba" stroke="#b6deba"></path><path d="M605 0L617 -32.1L593 0Z" fill="#bce4b8" stroke="#bce4b8"></path><path d="M708 466.1L781 393.6L693 387.9Z" fill="#cdeeb2" stroke="#cdeeb2"></path><path d="M766 470.6L781 393.6L708 466.1Z" fill="#b1d8bb" stroke="#b1d8bb"></path><path d="M174 525.4L179 471.7L154 533.3Z" fill="#e2f7ab" stroke="#e2f7ab"></path><path d="M279 600L46 646.1L367 605.3Z" fill="#cdeeb2" stroke="#cdeeb2"></path><path d="M179 471.7L115 484.4L154 533.3Z" fill="#e2f7ab" stroke="#e2f7ab"></path><path d="M397 -32.1L358 -34.1L339 0Z" fill="#bce4b8" stroke="#bce4b8"></path><path d="M115 484.4L139 437.9L137 435.6Z" fill="#fcffa4" stroke="#fcffa4"></path><path d="M812 290.9L729 280.1L741 293.3Z" fill="#effba7" stroke="#effba7"></path><path d="M717 134.4L749 77.9L682 125.7Z" fill="#e2f7ab" stroke="#e2f7ab"></path><path d="M812 290.9L749 317.7L775 356.7Z" fill="#fcffa4" stroke="#fcffa4"></path><path d="M558 623.1L630 603.3L607 600Z" fill="#d7f3af" stroke="#d7f3af"></path><path d="M622 600L630 603.3L640 540.4Z" fill="#b1d8bb" stroke="#b1d8bb"></path><path d="M174 525.4L253 600L229 484.7Z" fill="#b6deba" stroke="#b6deba"></path><path d="M263 600L46 646.1L279 600Z" fill="#b6deba" stroke="#b6deba"></path><path d="M358 -34.1L269 -5.1L289 0Z" fill="#d7f3af" stroke="#d7f3af"></path><path d="M289 0L269 -5.1L293 41.9Z" fill="#b1d8bb" stroke="#b1d8bb"></path><path d="M127 94.9L105 160.4L162 126.6Z" fill="#c4e9b5" stroke="#c4e9b5"></path><path d="M69 367.9L108 421.9L119 414.3Z" fill="#e2f7ab" stroke="#e2f7ab"></path><path d="M119 414.3L108 421.9L137 435.6Z" fill="#add2bb" stroke="#add2bb"></path><path d="M708 569.4L681 492.3L640 540.4Z" fill="#d7f3af" stroke="#d7f3af"></path><path d="M735 519.3L766 470.6L708 466.1Z" fill="#fcffa4" stroke="#fcffa4"></path><path d="M671 600L656 600L630 603.3Z" fill="#d7f3af" stroke="#d7f3af"></path><path d="M630 603.3L656 600L640 540.4Z" fill="#b6deba" stroke="#b6deba"></path><path d="M79 203.6L87 234.1L124 241.3Z" fill="#bce4b8" stroke="#bce4b8"></path><path d="M73 312L79 352.6L142 301Z" fill="#fcffa4" stroke="#fcffa4"></path><path d="M826 311.3L775 356.7L842 324.7Z" fill="#b6deba" stroke="#b6deba"></path><path d="M826 311.3L812 290.9L775 356.7Z" fill="#c4e9b5" stroke="#c4e9b5"></path><path d="M656 600L676 594.1L640 540.4Z" fill="#aaccbb" stroke="#aaccbb"></path><path d="M73 312L142 301L115 281Z" fill="#b1d8bb" stroke="#b1d8bb"></path><path d="M162 126.6L105 160.4L124 180.3Z" fill="#add2bb" stroke="#add2bb"></path><path d="M124 180.3L79 203.6L142 222.4Z" fill="#aaccbb" stroke="#aaccbb"></path><path d="M127 94.9L162 126.6L136 75.4Z" fill="#add2bb" stroke="#add2bb"></path><path d="M115 484.4L137 435.6L108 421.9Z" fill="#e2f7ab" stroke="#e2f7ab"></path><path d="M115 484.4L179 471.7L139 437.9Z" fill="#b6deba" stroke="#b6deba"></path><path d="M174 525.4L186 600L253 600Z" fill="#add2bb" stroke="#add2bb"></path><path d="M558 623.1L671 600L630 603.3Z" fill="#b1d8bb" stroke="#b1d8bb"></path><path d="M656 600L671 600L676 594.1Z" fill="#b6deba" stroke="#b6deba"></path><path d="M79 203.6L79 241.4L87 234.1Z" fill="#e2f7ab" stroke="#e2f7ab"></path><path d="M87 234.1L79 241.4L115 281Z" fill="#effba7" stroke="#effba7"></path><path d="M683 600L708 569.4L676 594.1Z" fill="#e2f7ab" stroke="#e2f7ab"></path><path d="M676 594.1L708 569.4L640 540.4Z" fill="#c4e9b5" stroke="#c4e9b5"></path><path d="M808 537.3L802 470.4L766 470.6Z" fill="#effba7" stroke="#effba7"></path><path d="M79 241.4L73 312L115 281Z" fill="#aaccbb" stroke="#aaccbb"></path><path d="M34 460.4L115 484.4L108 421.9Z" fill="#d7f3af" stroke="#d7f3af"></path><path d="M703 24.9L638 42.9L673 51.6Z" fill="#add2bb" stroke="#add2bb"></path><path d="M625 -32.1L609 0L638 42.9Z" fill="#c4e9b5" stroke="#c4e9b5"></path><path d="M609 0L617 -32.1L605 0Z" fill="#b6deba" stroke="#b6deba"></path><path d="M397 -32.1L693 -45.1L358 -34.1Z" fill="#b6deba" stroke="#b6deba"></path><path d="M770 80.6L717 134.4L766 163.1Z" fill="#cdeeb2" stroke="#cdeeb2"></path><path d="M770 80.6L749 77.9L717 134.4Z" fill="#cdeeb2" stroke="#cdeeb2"></path><path d="M558 623.1L683 600L671 600Z" fill="#e2f7ab" stroke="#e2f7ab"></path><path d="M671 600L683 600L676 594.1Z" fill="#b1d8bb" stroke="#b1d8bb"></path><path d="M717 30.9L703 24.9L673 51.6Z" fill="#b6deba" stroke="#b6deba"></path><path d="M842 324.7L775 356.7L781 393.6Z" fill="#b1d8bb" stroke="#b1d8bb"></path><path d="M837 111.4L770 80.6L766 163.1Z" fill="#bce4b8" stroke="#bce4b8"></path><path d="M105 160.4L79 203.6L124 180.3Z" fill="#d7f3af" stroke="#d7f3af"></path><path d="M79 241.4L48 314.7L73 312Z" fill="#c4e9b5" stroke="#c4e9b5"></path><path d="M87 564.3L154 549.4L154 533.3Z" fill="#cdeeb2" stroke="#cdeeb2"></path><path d="M154 533.3L154 549.4L174 525.4Z" fill="#effba7" stroke="#effba7"></path><path d="M709 0L625 -32.1L638 42.9Z" fill="#effba7" stroke="#effba7"></path><path d="M617 -32.1L693 -45.1L397 -32.1Z" fill="#c4e9b5" stroke="#c4e9b5"></path><path d="M136 75.4L162 126.6L227 46.7Z" fill="#aaccbb" stroke="#aaccbb"></path><path d="M105 160.4L63 113.9L79 203.6Z" fill="#e2f7ab" stroke="#e2f7ab"></path><path d="M48 314.7L69 367.9L79 352.6Z" fill="#fcffa4" stroke="#fcffa4"></path><path d="M79 352.6L69 367.9L119 414.3Z" fill="#b1d8bb" stroke="#b1d8bb"></path><path d="M48 314.7L79 352.6L73 312Z" fill="#b6deba" stroke="#b6deba"></path><path d="M172 0L136 75.4L227 46.7Z" fill="#add2bb" stroke="#add2bb"></path><path d="M749 77.9L717 30.9L673 51.6Z" fill="#aaccbb" stroke="#aaccbb"></path><path d="M703 24.9L709 0L638 42.9Z" fill="#effba7" stroke="#effba7"></path><path d="M146 580.1L156 559.1L154 549.4Z" fill="#bce4b8" stroke="#bce4b8"></path><path d="M154 549.4L156 559.1L174 525.4Z" fill="#c4e9b5" stroke="#c4e9b5"></path><path d="M808 537.3L766 470.6L735 519.3Z" fill="#b1d8bb" stroke="#b1d8bb"></path><path d="M766 470.6L802 470.4L781 393.6Z" fill="#c4e9b5" stroke="#c4e9b5"></path><path d="M727 579.3L735 519.3L708 569.4Z" fill="#cdeeb2" stroke="#cdeeb2"></path><path d="M683 600L727 579.3L708 569.4Z" fill="#c4e9b5" stroke="#c4e9b5"></path><path d="M156 559.1L186 600L174 525.4Z" fill="#add2bb" stroke="#add2bb"></path><path d="M253 600L46 646.1L263 600Z" fill="#effba7" stroke="#effba7"></path><path d="M837 242L725 209.4L812 290.9Z" fill="#d7f3af" stroke="#d7f3af"></path><path d="M749 77.9L779 31.7L717 30.9Z" fill="#c4e9b5" stroke="#c4e9b5"></path><path d="M847 266.3L812 290.9L826 311.3Z" fill="#e2f7ab" stroke="#e2f7ab"></path><path d="M847 266.3L837 242L812 290.9Z" fill="#bce4b8" stroke="#bce4b8"></path><path d="M900 373.4L842 324.7L781 393.6Z" fill="#b1d8bb" stroke="#b1d8bb"></path><path d="M358 -34.1L191 0L269 -5.1Z" fill="#fcffa4" stroke="#fcffa4"></path><path d="M269 -5.1L191 0L227 46.7Z" fill="#add2bb" stroke="#add2bb"></path><path d="M0 306.1L48 314.7L0 288Z" fill="#c4e9b5" stroke="#c4e9b5"></path><path d="M152 603.3L146 580.1L87 564.3Z" fill="#b6deba" stroke="#b6deba"></path><path d="M721 0L703 24.9L717 30.9Z" fill="#cdeeb2" stroke="#cdeeb2"></path><path d="M721 0L709 0L703 24.9Z" fill="#effba7" stroke="#effba7"></path><path d="M867 298.9L847 266.3L826 311.3Z" fill="#effba7" stroke="#effba7"></path><path d="M87 564.3L146 580.1L154 549.4Z" fill="#add2bb" stroke="#add2bb"></path><path d="M156 559.1L146 580.1L186 600Z" fill="#effba7" stroke="#effba7"></path><path d="M154 533.3L115 484.4L87 564.3Z" fill="#d7f3af" stroke="#d7f3af"></path><path d="M110 46.7L127 94.9L136 75.4Z" fill="#aaccbb" stroke="#aaccbb"></path><path d="M110 46.7L87 109.7L127 94.9Z" fill="#effba7" stroke="#effba7"></path><path d="M127 94.9L87 109.7L105 160.4Z" fill="#d7f3af" stroke="#d7f3af"></path><path d="M0 288L48 314.7L0 285.3Z" fill="#cdeeb2" stroke="#cdeeb2"></path><path d="M358 -34.1L172 0L191 0Z" fill="#bce4b8" stroke="#bce4b8"></path><path d="M191 0L172 0L227 46.7Z" fill="#e2f7ab" stroke="#e2f7ab"></path><path d="M826 481.1L826 459.3L802 470.4Z" fill="#add2bb" stroke="#add2bb"></path><path d="M802 470.4L826 459.3L781 393.6Z" fill="#cdeeb2" stroke="#cdeeb2"></path><path d="M779 31.7L721 0L717 30.9Z" fill="#cdeeb2" stroke="#cdeeb2"></path><path d="M709 0L693 -45.1L625 -32.1Z" fill="#effba7" stroke="#effba7"></path><path d="M727 579.3L772 558.1L735 519.3Z" fill="#b1d8bb" stroke="#b1d8bb"></path><path d="M760 600L772 558.1L727 579.3Z" fill="#d7f3af" stroke="#d7f3af"></path><path d="M34 460.4L108 421.9L69 367.9Z" fill="#c4e9b5" stroke="#c4e9b5"></path><path d="M146 580.1L152 603.3L186 600Z" fill="#effba7" stroke="#effba7"></path><path d="M186 600L46 646.1L253 600Z" fill="#fcffa4" stroke="#fcffa4"></path><path d="M808 537.3L826 481.1L802 470.4Z" fill="#b1d8bb" stroke="#b1d8bb"></path><path d="M900 286.3L867 298.9L900 323.7Z" fill="#cdeeb2" stroke="#cdeeb2"></path><path d="M842 324.7L867 298.9L826 311.3Z" fill="#aaccbb" stroke="#aaccbb"></path><path d="M847 266.3L862 227L837 242Z" fill="#e2f7ab" stroke="#e2f7ab"></path><path d="M837 242L862 227L766 163.1Z" fill="#cdeeb2" stroke="#cdeeb2"></path><path d="M855 448.6L781 393.6L826 459.3Z" fill="#cdeeb2" stroke="#cdeeb2"></path><path d="M880 271.9L862 227L847 266.3Z" fill="#bce4b8" stroke="#bce4b8"></path><path d="M770 80.6L779 31.7L749 77.9Z" fill="#b1d8bb" stroke="#b1d8bb"></path><path d="M131 0L110 46.7L136 75.4Z" fill="#cdeeb2" stroke="#cdeeb2"></path><path d="M69 35.7L63 113.9L87 109.7Z" fill="#b1d8bb" stroke="#b1d8bb"></path><path d="M87 109.7L63 113.9L105 160.4Z" fill="#e2f7ab" stroke="#e2f7ab"></path><path d="M873 484.1L845 459.6L826 481.1Z" fill="#b1d8bb" stroke="#b1d8bb"></path><path d="M826 481.1L845 459.6L826 459.3Z" fill="#b6deba" stroke="#b6deba"></path><path d="M775 -33.1L693 -45.1L721 0Z" fill="#b1d8bb" stroke="#b1d8bb"></path><path d="M721 0L693 -45.1L709 0Z" fill="#cdeeb2" stroke="#cdeeb2"></path><path d="M625 -32.1L693 -45.1L617 -32.1Z" fill="#b6deba" stroke="#b6deba"></path><path d="M772 558.1L808 537.3L735 519.3Z" fill="#bce4b8" stroke="#bce4b8"></path><path d="M852 65.6L779 31.7L770 80.6Z" fill="#add2bb" stroke="#add2bb"></path><path d="M558 623.1L760 600L683 600Z" fill="#c4e9b5" stroke="#c4e9b5"></path><path d="M683 600L760 600L727 579.3Z" fill="#b6deba" stroke="#b6deba"></path><path d="M772 558.1L789 600L808 537.3Z" fill="#b1d8bb" stroke="#b1d8bb"></path><path d="M873 484.1L855 448.6L845 459.6Z" fill="#aaccbb" stroke="#aaccbb"></path><path d="M845 459.6L855 448.6L826 459.3Z" fill="#c4e9b5" stroke="#c4e9b5"></path><path d="M867 298.9L880 271.9L847 266.3Z" fill="#b6deba" stroke="#b6deba"></path><path d="M900 286.3L880 271.9L867 298.9Z" fill="#d7f3af" stroke="#d7f3af"></path><path d="M899 147.4L837 111.4L862 227Z" fill="#fcffa4" stroke="#fcffa4"></path><path d="M862 227L837 111.4L766 163.1Z" fill="#fcffa4" stroke="#fcffa4"></path><path d="M88 -8.1L131 0L172 0Z" fill="#b6deba" stroke="#b6deba"></path><path d="M172 0L131 0L136 75.4Z" fill="#effba7" stroke="#effba7"></path><path d="M110 46.7L93 40.9L87 109.7Z" fill="#d7f3af" stroke="#d7f3af"></path><path d="M0 330.7L69 367.9L48 314.7Z" fill="#aaccbb" stroke="#aaccbb"></path><path d="M4 401.6L34 460.4L69 367.9Z" fill="#c4e9b5" stroke="#c4e9b5"></path><path d="M113 0L93 40.9L110 46.7Z" fill="#b1d8bb" stroke="#b1d8bb"></path><path d="M34 460.4L87 564.3L115 484.4Z" fill="#c4e9b5" stroke="#c4e9b5"></path><path d="M48 314.7L0 268.4L0 285.3Z" fill="#c4e9b5" stroke="#c4e9b5"></path><path d="M48 314.7L79 241.4L0 268.4Z" fill="#fcffa4" stroke="#fcffa4"></path><path d="M0 268.4L79 241.4L-18 228.3Z" fill="#c4e9b5" stroke="#c4e9b5"></path><path d="M0 306.1L0 330.7L48 314.7Z" fill="#add2bb" stroke="#add2bb"></path><path d="M-18 228.3L79 241.4L79 203.6Z" fill="#effba7" stroke="#effba7"></path><path d="M0 288L-3 326.1L0 306.1Z" fill="#b6deba" stroke="#b6deba"></path><path d="M0 306.1L-3 326.1L0 330.7Z" fill="#effba7" stroke="#effba7"></path><path d="M0 330.7L0 380.9L69 367.9Z" fill="#add2bb" stroke="#add2bb"></path><path d="M-18 228.3L-3 326.1L0 288Z" fill="#bce4b8" stroke="#bce4b8"></path><path d="M-18 228.3L0 288L0 285.3Z" fill="#c4e9b5" stroke="#c4e9b5"></path><path d="M88 -8.1L113 0L131 0Z" fill="#d7f3af" stroke="#d7f3af"></path><path d="M131 0L113 0L110 46.7Z" fill="#d7f3af" stroke="#d7f3af"></path><path d="M-3 326.1L0 380.9L0 330.7Z" fill="#b6deba" stroke="#b6deba"></path><path d="M0 380.9L4 401.6L69 367.9Z" fill="#bce4b8" stroke="#bce4b8"></path><path d="M558 623.1L789 600L760 600Z" fill="#e2f7ab" stroke="#e2f7ab"></path><path d="M760 600L789 600L772 558.1Z" fill="#bce4b8" stroke="#bce4b8"></path><path d="M864 512.4L873 484.1L826 481.1Z" fill="#effba7" stroke="#effba7"></path><path d="M900 323.7L867 298.9L842 324.7Z" fill="#aaccbb" stroke="#aaccbb"></path><path d="M931 239.1L900 197.1L862 227Z" fill="#fcffa4" stroke="#fcffa4"></path><path d="M900 351.9L900 323.7L842 324.7Z" fill="#b6deba" stroke="#b6deba"></path><path d="M900 355L900 351.9L842 324.7Z" fill="#add2bb" stroke="#add2bb"></path><path d="M900 355L842 324.7L900 373.4Z" fill="#effba7" stroke="#effba7"></path><path d="M900 373.4L781 393.6L900 400.6Z" fill="#effba7" stroke="#effba7"></path><path d="M900 400.6L781 393.6L855 448.6Z" fill="#cdeeb2" stroke="#cdeeb2"></path><path d="M93 40.9L69 35.7L87 109.7Z" fill="#add2bb" stroke="#add2bb"></path><path d="M-6 115.4L-18 228.3L79 203.6Z" fill="#effba7" stroke="#effba7"></path><path d="M96 0L69 35.7L93 40.9Z" fill="#add2bb" stroke="#add2bb"></path><path d="M864 512.4L826 481.1L808 537.3Z" fill="#e2f7ab" stroke="#e2f7ab"></path><path d="M88 -8.1L96 0L113 0Z" fill="#e2f7ab" stroke="#e2f7ab"></path><path d="M113 0L96 0L93 40.9Z" fill="#c4e9b5" stroke="#c4e9b5"></path><path d="M873 484.1L900 400.6L855 448.6Z" fill="#bce4b8" stroke="#bce4b8"></path><path d="M96 0L66 33.7L69 35.7Z" fill="#b1d8bb" stroke="#b1d8bb"></path><path d="M69 35.7L21 73.6L63 113.9Z" fill="#e2f7ab" stroke="#e2f7ab"></path><path d="M931 239.1L862 227L880 271.9Z" fill="#effba7" stroke="#effba7"></path><path d="M837 111.4L852 65.6L770 80.6Z" fill="#e2f7ab" stroke="#e2f7ab"></path><path d="M900 591.3L864 512.4L808 537.3Z" fill="#b1d8bb" stroke="#b1d8bb"></path><path d="M943 395.4L918 378.7L900 400.6Z" fill="#aaccbb" stroke="#aaccbb"></path><path d="M-6 115.4L79 203.6L63 113.9Z" fill="#b1d8bb" stroke="#b1d8bb"></path><path d="M0 268.4L-18 228.3L0 285.3Z" fill="#b1d8bb" stroke="#b1d8bb"></path><path d="M-36 480.3L-8 449.7L0 380.9Z" fill="#add2bb" stroke="#add2bb"></path><path d="M900 79.9L852 65.6L837 111.4Z" fill="#aaccbb" stroke="#aaccbb"></path><path d="M779 31.7L775 -33.1L721 0Z" fill="#add2bb" stroke="#add2bb"></path><path d="M812 0L775 -33.1L779 31.7Z" fill="#add2bb" stroke="#add2bb"></path><path d="M358 -34.1L88 -8.1L172 0Z" fill="#bce4b8" stroke="#bce4b8"></path><path d="M96 0L88 -8.1L66 33.7Z" fill="#bce4b8" stroke="#bce4b8"></path><path d="M4 401.6L-8 449.7L34 460.4Z" fill="#b1d8bb" stroke="#b1d8bb"></path><path d="M34 460.4L0 510.1L87 564.3Z" fill="#aaccbb" stroke="#aaccbb"></path><path d="M0 380.9L-8 449.7L4 401.6Z" fill="#d7f3af" stroke="#d7f3af"></path><path d="M-36 480.3L0 380.9L-3 326.1Z" fill="#cdeeb2" stroke="#cdeeb2"></path><path d="M852 65.6L812 0L779 31.7Z" fill="#b1d8bb" stroke="#b1d8bb"></path><path d="M-8 449.7L0 475.3L34 460.4Z" fill="#c4e9b5" stroke="#c4e9b5"></path><path d="M943 395.4L900 400.6L873 484.1Z" fill="#c4e9b5" stroke="#c4e9b5"></path><path d="M900 400.6L918 378.7L900 373.4Z" fill="#aaccbb" stroke="#aaccbb"></path><path d="M900 373.4L918 378.7L900 355Z" fill="#e2f7ab" stroke="#e2f7ab"></path><path d="M900 355L918 378.7L900 351.9Z" fill="#e2f7ab" stroke="#e2f7ab"></path><path d="M900 351.9L918 378.7L900 323.7Z" fill="#c4e9b5" stroke="#c4e9b5"></path><path d="M900 323.7L931 239.1L900 286.3Z" fill="#d7f3af" stroke="#d7f3af"></path><path d="M900 286.3L931 239.1L880 271.9Z" fill="#b6deba" stroke="#b6deba"></path><path d="M900 197.1L899 147.4L862 227Z" fill="#cdeeb2" stroke="#cdeeb2"></path><path d="M902 145.3L899 147.4L900 197.1Z" fill="#add2bb" stroke="#add2bb"></path><path d="M-36 480.3L0 482.6L0 475.3Z" fill="#bce4b8" stroke="#bce4b8"></path><path d="M0 475.3L0 482.6L34 460.4Z" fill="#add2bb" stroke="#add2bb"></path><path d="M931 239.1L902 145.3L900 197.1Z" fill="#aaccbb" stroke="#aaccbb"></path><path d="M899 147.4L900 118.4L837 111.4Z" fill="#d7f3af" stroke="#d7f3af"></path><path d="M852 65.6L867 2.7L812 0Z" fill="#b1d8bb" stroke="#b1d8bb"></path><path d="M0 59.6L21 73.6L0 22.7Z" fill="#e2f7ab" stroke="#e2f7ab"></path><path d="M66 33.7L21 73.6L69 35.7Z" fill="#add2bb" stroke="#add2bb"></path><path d="M943 395.4L931 239.1L900 323.7Z" fill="#add2bb" stroke="#add2bb"></path><path d="M0 95.9L-6 115.4L63 113.9Z" fill="#aaccbb" stroke="#aaccbb"></path><path d="M-36 480.3L0 510.1L0 482.6Z" fill="#effba7" stroke="#effba7"></path><path d="M0 482.6L0 510.1L34 460.4Z" fill="#aaccbb" stroke="#aaccbb"></path><path d="M948 0L900 118.4L902 145.3Z" fill="#add2bb" stroke="#add2bb"></path><path d="M902 145.3L900 118.4L899 147.4Z" fill="#d7f3af" stroke="#d7f3af"></path><path d="M0 59.6L0 95.9L21 73.6Z" fill="#d7f3af" stroke="#d7f3af"></path><path d="M21 73.6L0 95.9L63 113.9Z" fill="#effba7" stroke="#effba7"></path><path d="M0 568.4L45 600L87 564.3Z" fill="#c4e9b5" stroke="#c4e9b5"></path><path d="M87 564.3L45 600L152 603.3Z" fill="#c4e9b5" stroke="#c4e9b5"></path><path d="M152 603.3L46 646.1L186 600Z" fill="#b6deba" stroke="#b6deba"></path><path d="M900 591.3L943 395.4L873 484.1Z" fill="#b1d8bb" stroke="#b1d8bb"></path><path d="M918 378.7L943 395.4L900 323.7Z" fill="#d7f3af" stroke="#d7f3af"></path><path d="M948 0L900 79.9L900 118.4Z" fill="#cdeeb2" stroke="#cdeeb2"></path><path d="M900 118.4L900 79.9L837 111.4Z" fill="#c4e9b5" stroke="#c4e9b5"></path><path d="M0 22.7L21 73.6L66 33.7Z" fill="#bce4b8" stroke="#bce4b8"></path><path d="M0 95.9L0 59.6L-6 115.4Z" fill="#b6deba" stroke="#b6deba"></path><path d="M948 0L900 71.6L900 79.9Z" fill="#aaccbb" stroke="#aaccbb"></path><path d="M900 79.9L900 71.6L852 65.6Z" fill="#add2bb" stroke="#add2bb"></path><path d="M812 0L867 2.7L775 -33.1Z" fill="#b6deba" stroke="#b6deba"></path><path d="M-8 449.7L-36 480.3L0 475.3Z" fill="#b1d8bb" stroke="#b1d8bb"></path><path d="M0 510.1L0 568.4L87 564.3Z" fill="#aaccbb" stroke="#aaccbb"></path><path d="M-18 228.3L-36 480.3L-3 326.1Z" fill="#fcffa4" stroke="#fcffa4"></path><path d="M-36 480.3L0 568.4L0 510.1Z" fill="#b1d8bb" stroke="#b1d8bb"></path><path d="M903 13.7L867 2.7L852 65.6Z" fill="#bce4b8" stroke="#bce4b8"></path><path d="M0 568.4L16 600L45 600Z" fill="#b6deba" stroke="#b6deba"></path><path d="M45 600L46 646.1L152 603.3Z" fill="#add2bb" stroke="#add2bb"></path><path d="M16 600L46 646.1L45 600Z" fill="#d7f3af" stroke="#d7f3af"></path><path d="M88 -8.1L16 0L66 33.7Z" fill="#cdeeb2" stroke="#cdeeb2"></path><path d="M16 0L0 22.7L66 33.7Z" fill="#effba7" stroke="#effba7"></path><path d="M0 59.6L0 22.7L-6 115.4Z" fill="#b6deba" stroke="#b6deba"></path><path d="M-6 115.4L0 0L-18 228.3Z" fill="#b1d8bb" stroke="#b1d8bb"></path><path d="M0 568.4L0 600L16 600Z" fill="#c4e9b5" stroke="#c4e9b5"></path><path d="M16 600L0 600L46 646.1Z" fill="#add2bb" stroke="#add2bb"></path><path d="M-36 611.1L0 600L0 568.4Z" fill="#d7f3af" stroke="#d7f3af"></path><path d="M789 600L900 591.3L808 537.3Z" fill="#c4e9b5" stroke="#c4e9b5"></path><path d="M864 512.4L900 591.3L873 484.1Z" fill="#bce4b8" stroke="#bce4b8"></path><path d="M900 593.1L900 591.3L789 600Z" fill="#cdeeb2" stroke="#cdeeb2"></path><path d="M900 600L900 593.1L789 600Z" fill="#e2f7ab" stroke="#e2f7ab"></path><path d="M900 591.3L900 593.1L943 395.4Z" fill="#bce4b8" stroke="#bce4b8"></path><path d="M88 -8.1L0 0L16 0Z" fill="#fcffa4" stroke="#fcffa4"></path><path d="M16 0L0 0L0 22.7Z" fill="#c4e9b5" stroke="#c4e9b5"></path><path d="M0 22.7L0 0L-6 115.4Z" fill="#c4e9b5" stroke="#c4e9b5"></path><path d="M358 -34.1L0 0L88 -8.1Z" fill="#e2f7ab" stroke="#e2f7ab"></path><path d="M558 623.1L900 600L789 600Z" fill="#effba7" stroke="#effba7"></path><path d="M900 593.1L900 600L943 395.4Z" fill="#cdeeb2" stroke="#cdeeb2"></path><path d="M948 0L903 13.7L900 71.6Z" fill="#aaccbb" stroke="#aaccbb"></path><path d="M900 71.6L903 13.7L852 65.6Z" fill="#b6deba" stroke="#b6deba"></path><path d="M867 2.7L900 0L775 -33.1Z" fill="#effba7" stroke="#effba7"></path><path d="M903 13.7L900 0.7L867 2.7Z" fill="#add2bb" stroke="#add2bb"></path><path d="M948 0L900 0L900 0.7Z" fill="#fcffa4" stroke="#fcffa4"></path><path d="M900 0.7L900 0L867 2.7Z" fill="#e2f7ab" stroke="#e2f7ab"></path><path d="M-36 480.3L-36 611.1L0 568.4Z" fill="#add2bb" stroke="#add2bb"></path><path d="M0 600L-36 611.1L46 646.1Z" fill="#cdeeb2" stroke="#cdeeb2"></path><path d="M931 239.1L948 0L902 145.3Z" fill="#cdeeb2" stroke="#cdeeb2"></path><path d="M903 13.7L948 0L900 0.7Z" fill="#aaccbb" stroke="#aaccbb"></path><path d="M900 0L948 0L775 -33.1Z" fill="#fcffa4" stroke="#fcffa4"></path><path d="M943 395.4L948 0L931 239.1Z" fill="#cdeeb2" stroke="#cdeeb2"></path></g></svg>