<svg id="visual" viewBox="0 0 900 600" width="900" height="600" xmlns="http://www.w3.org/2000/svg" xmlns:xlink="http://www.w3.org/1999/xlink" version="1.1"><rect width="900" height="600" fill="#f5f5dc"></rect><g><g transform="translate(25 561)"><path d="M0 -21.7L21.7 0L0 21.7L-21.7 0Z" fill="none" stroke="#8B4513" stroke-width="2"></path></g><g transform="translate(566 71)"><path d="M0 -5L5 0L0 5L-5 0Z" fill="none" stroke="#8B4513" stroke-width="2"></path></g><g transform="translate(342 545)"><path d="M0 -11L11 0L0 11L-11 0Z" fill="none" stroke="#8B4513" stroke-width="2"></path></g><g transform="translate(667 303)"><path d="M0 -16L16 0L0 16L-16 0Z" stroke="#8B4513" fill="none" stroke-width="2"></path></g><g transform="translate(246 175)"><path d="M0 -12L12 0L0 12L-12 0Z" stroke="#8B4513" fill="none" stroke-width="2"></path></g><g transform="translate(164 372)"><path d="M0 -2L2 0L0 2L-2 0Z" stroke="#8B4513" fill="none" stroke-width="2"></path></g><g transform="translate(562 181)"><path d="M0 -17L17 0L0 17L-17 0Z" stroke="#8B4513" fill="none" stroke-width="2"></path></g><g transform="translate(536 277)"><path d="M0 -20L20 0L0 20L-20 0Z" stroke="#8B4513" fill="none" stroke-width="2"></path></g><g transform="translate(678 107)"><path d="M0 -8L8 0L0 8L-8 0Z" stroke="#8B4513" fill="none" stroke-width="2"></path></g><g transform="translate(354 75)"><path d="M0 -15L15 0L0 15L-15 0Z" stroke="#8B4513" fill="none" stroke-width="2"></path></g><g transform="translate(64 283)"><path d="M0 -14L14 0L0 14L-14 0Z" stroke="#8B4513" fill="none" stroke-width="2"></path></g><g transform="translate(365 448)"><path d="M0 -20L20 0L0 20L-20 0Z" stroke="#8B4513" fill="none" stroke-width="2"></path></g><g transform="translate(796 94)"><path d="M0 -10L10 0L0 10L-10 0Z" stroke="#8B4513" fill="none" stroke-width="2"></path></g><g transform="translate(51 365)"><path d="M0 -11L11 0L0 11L-11 0Z" stroke="#8B4513" fill="none" stroke-width="2"></path></g><g transform="translate(200 479)"><path d="M0 -18L18 0L0 18L-18 0Z" stroke="#8B4513" fill="none" stroke-width="2"></path></g><g transform="translate(477 373)"><path d="M0 -9L9 0L0 9L-9 0Z" stroke="#8B4513" fill="none" stroke-width="2"></path></g><g transform="translate(126 222)"><path d="M0 -17L17 0L0 17L-17 0Z" stroke="#8B4513" fill="none" stroke-width="2"></path></g><g transform="translate(128 134)"><path d="M0 -16L16 0L0 16L-16 0Z" stroke="#8B4513" fill="none" stroke-width="2"></path></g><g transform="translate(147 437)"><path d="M0 -18L18 0L0 18L-18 0Z" stroke="#8B4513" fill="none" stroke-width="2"></path></g><g transform="translate(685 23)"><path d="M0 -13L13 0L0 13L-13 0Z" stroke="#8B4513" fill="none" stroke-width="2"></path></g><g transform="translate(867 131)"><path d="M0 -7L7 0L0 7L-7 0Z" stroke="#8B4513" fill="none" stroke-width="2"></path></g><g transform="translate(309 59)"><path d="M0 -11L11 0L0 11L-11 0Z" stroke="#8B4513" fill="none" stroke-width="2"></path></g><g transform="translate(402 310)"><path d="M0 -15L15 0L0 15L-15 0Z" stroke="#8B4513" fill="none" stroke-width="2"></path></g><g transform="translate(408 401)"><path d="M0 -3L3 0L0 3L-3 0Z" stroke="#8B4513" fill="none" stroke-width="2"></path></g><g transform="translate(465 538)"><path d="M0 -2L2 0L0 2L-2 0Z" stroke="#8B4513" fill="none" stroke-width="2"></path></g><g transform="translate(308 251)"><path d="M0 -16L16 0L0 16L-16 0Z" stroke="#8B4513" fill="none" stroke-width="2"></path></g><g transform="translate(715 272)"><path d="M0 -14L14 0L0 14L-14 0Z" stroke="#8B4513" fill="none" stroke-width="2"></path></g><g transform="translate(266 543)"><path d="M0 -12L12 0L0 12L-12 0Z" stroke="#8B4513" fill="none" stroke-width="2"></path></g><g transform="translate(275 462)"><path d="M0 -6L6 0L0 6L-6 0Z" stroke="#8B4513" fill="none" stroke-width="2"></path></g><g transform="translate(603 471)"><path d="M0 -6L6 0L0 6L-6 0Z" stroke="#8B4513" fill="none" stroke-width="2"></path></g><g transform="translate(656 361)"><path d="M0 -4L4 0L0 4L-4 0Z" stroke="#8B4513" fill="none" stroke-width="2"></path></g><g transform="translate(814 421)"><path d="M0 -20L20 0L0 20L-20 0Z" stroke="#8B4513" fill="none" stroke-width="2"></path></g><g transform="translate(766 192)"><path d="M0 -15L15 0L0 15L-15 0Z" stroke="#8B4513" fill="none" stroke-width="2"></path></g><g transform="translate(322 311)"><path d="M0 -7L7 0L0 7L-7 0Z" stroke="#8B4513" fill="none" stroke-width="2"></path></g><g transform="translate(692 207)"><path d="M0 -3L3 0L0 3L-3 0Z" stroke="#8B4513" fill="none" stroke-width="2"></path></g><g transform="translate(519 80)"><path d="M0 -19L19 0L0 19L-19 0Z" stroke="#8B4513" fill="none" stroke-width="2"></path></g><g transform="translate(360 339)"><path d="M0 -10L10 0L0 10L-10 0Z" stroke="#8B4513" fill="none" stroke-width="2"></path></g><g transform="translate(693 415)"><path d="M0 -19L19 0L0 19L-19 0Z" stroke="#8B4513" fill="none" stroke-width="2"></path></g><g transform="translate(702 371)"><path d="M0 -19L19 0L0 19L-19 0Z" stroke="#8B4513" fill="none" stroke-width="2"></path></g><g transform="translate(842 549)"><path d="M0 -5L5 0L0 5L-5 0Z" stroke="#8B4513" fill="none" stroke-width="2"></path></g><g transform="translate(517 474)"><path d="M0 -17L17 0L0 17L-17 0Z" stroke="#8B4513" fill="none" stroke-width="2"></path></g><g transform="translate(755 110)"><path d="M0 -2L2 0L0 2L-2 0Z" stroke="#8B4513" fill="none" stroke-width="2"></path></g><g transform="translate(763 533)"><path d="M0 -6L6 0L0 6L-6 0Z" stroke="#8B4513" fill="none" stroke-width="2"></path></g><g transform="translate(88 525)"><path d="M0 -4L4 0L0 4L-4 0Z" stroke="#8B4513" fill="none" stroke-width="2"></path></g><g transform="translate(406 356)"><path d="M0 -5L5 0L0 5L-5 0Z" stroke="#8B4513" fill="none" stroke-width="2"></path></g><g transform="translate(230 384)"><path d="M0 -9L9 0L0 9L-9 0Z" stroke="#8B4513" fill="none" stroke-width="2"></path></g><g transform="translate(853 504)"><path d="M0 -9L9 0L0 9L-9 0Z" stroke="#8B4513" fill="none" stroke-width="2"></path></g><g transform="translate(817 135)"><path d="M0 -11L11 0L0 11L-11 0Z" stroke="#8B4513" fill="none" stroke-width="2"></path></g><g transform="translate(91 53)"><path d="M0 -15L15 0L0 15L-15 0Z" stroke="#8B4513" fill="none" stroke-width="2"></path></g><g transform="translate(548 541)"><path d="M0 -9L9 0L0 9L-9 0Z" stroke="#8B4513" fill="none" stroke-width="2"></path></g><g transform="translate(496 573)"><path d="M0 -4L4 0L0 4L-4 0Z" stroke="#8B4513" fill="none" stroke-width="2"></path></g><g transform="translate(629 65)"><path d="M0 -16L16 0L0 16L-16 0Z" stroke="#8B4513" fill="none" stroke-width="2"></path></g><g transform="translate(817 369)"><path d="M0 -16L16 0L0 16L-16 0Z" stroke="#8B4513" fill="none" stroke-width="2"></path></g><g transform="translate(739 32)"><path d="M0 -17L17 0L0 17L-17 0Z" stroke="#8B4513" fill="none" stroke-width="2"></path></g><g transform="translate(604 565)"><path d="M0 -13L13 0L0 13L-13 0Z" stroke="#8B4513" fill="none" stroke-width="2"></path></g><g transform="translate(319 458)"><path d="M0 -20L20 0L0 20L-20 0Z" stroke="#8B4513" fill="none" stroke-width="2"></path></g><g transform="translate(144 40)"><path d="M0 -8L8 0L0 8L-8 0Z" stroke="#8B4513" fill="none" stroke-width="2"></path></g><g transform="translate(480 165)"><path d="M0 -13L13 0L0 13L-13 0Z" stroke="#8B4513" fill="none" stroke-width="2"></path></g><g transform="translate(751 468)"><path d="M0 -19L19 0L0 19L-19 0Z" stroke="#8B4513" fill="none" stroke-width="2"></path></g><g transform="translate(795 255)"><path d="M0 -13L13 0L0 13L-13 0Z" stroke="#8B4513" fill="none" stroke-width="2"></path></g><g transform="translate(819 200)"><path d="M0 -5L5 0L0 5L-5 0Z" stroke="#8B4513" fill="none" stroke-width="2"></path></g><g transform="translate(868 87)"><path d="M0 -14L14 0L0 14L-14 0Z" stroke="#8B4513" fill="none" stroke-width="2"></path></g><g transform="translate(430 444)"><path d="M0 -2L2 0L0 2L-2 0Z" stroke="#8B4513" fill="none" stroke-width="2"></path></g><g transform="translate(520 337)"><path d="M0 -14L14 0L0 14L-14 0Z" stroke="#8B4513" fill="none" stroke-width="2"></path></g><g transform="translate(250 320)"><path d="M0 -19L19 0L0 19L-19 0Z" stroke="#8B4513" fill="none" stroke-width="2"></path></g><g transform="translate(335 376)"><path d="M0 -2L2 0L0 2L-2 0Z" stroke="#8B4513" fill="none" stroke-width="2"></path></g><g transform="translate(848 339)"><path d="M0 -11L11 0L0 11L-11 0Z" stroke="#8B4513" fill="none" stroke-width="2"></path></g><g transform="translate(395 125)"><path d="M0 -4L4 0L0 4L-4 0Z" stroke="#8B4513" fill="none" stroke-width="2"></path></g><g transform="translate(55 137)"><path d="M0 -16L16 0L0 16L-16 0Z" stroke="#8B4513" fill="none" stroke-width="2"></path></g><g transform="translate(113 317)"><path d="M0 -17L17 0L0 17L-17 0Z" stroke="#8B4513" fill="none" stroke-width="2"></path></g><g transform="translate(521 420)"><path d="M0 -18L18 0L0 18L-18 0Z" stroke="#8B4513" fill="none" stroke-width="2"></path></g><g transform="translate(226 219)"><path d="M0 -8L8 0L0 8L-8 0Z" stroke="#8B4513" fill="none" stroke-width="2"></path></g><g transform="translate(450 202)"><path d="M0 -20L20 0L0 20L-20 0Z" stroke="#8B4513" fill="none" stroke-width="2"></path></g><g transform="translate(477 443)"><path d="M0 -16L16 0L0 16L-16 0Z" stroke="#8B4513" fill="none" stroke-width="2"></path></g><g transform="translate(367 493)"><path d="M0 -10L10 0L0 10L-10 0Z" stroke="#8B4513" fill="none" stroke-width="2"></path></g><g transform="translate(476 315)"><path d="M0 -5L5 0L0 5L-5 0Z" stroke="#8B4513" fill="none" stroke-width="2"></path></g><g transform="translate(459 29)"><path d="M0 -12L12 0L0 12L-12 0Z" stroke="#8B4513" fill="none" stroke-width="2"></path></g><g transform="translate(199 421)"><path d="M0 -6L6 0L0 6L-6 0Z" stroke="#8B4513" fill="none" stroke-width="2"></path></g><g transform="translate(206 76)"><path d="M0 -9L9 0L0 9L-9 0Z" stroke="#8B4513" fill="none" stroke-width="2"></path></g><g transform="translate(599 424)"><path d="M0 -2L2 0L0 2L-2 0Z" stroke="#8B4513" fill="none" stroke-width="2"></path></g><g transform="translate(171 263)"><path d="M0 -5L5 0L0 5L-5 0Z" stroke="#8B4513" fill="none" stroke-width="2"></path></g><g transform="translate(723 511)"><path d="M0 -3L3 0L0 3L-3 0Z" stroke="#8B4513" fill="none" stroke-width="2"></path></g><g transform="translate(857 432)"><path d="M0 -19L19 0L0 19L-19 0Z" stroke="#8B4513" fill="none" stroke-width="2"></path></g><g transform="translate(867 183)"><path d="M0 -4L4 0L0 4L-4 0Z" stroke="#8B4513" fill="none" stroke-width="2"></path></g><g transform="translate(860 251)"><path d="M0 -18L18 0L0 18L-18 0Z" stroke="#8B4513" fill="none" stroke-width="2"></path></g><g transform="translate(72 462)"><path d="M0 -8L8 0L0 8L-8 0Z" stroke="#8B4513" fill="none" stroke-width="2"></path></g><g transform="translate(180 119)"><path d="M0 -7L7 0L0 7L-7 0Z" stroke="#8B4513" fill="none" stroke-width="2"></path></g><g transform="translate(200 26)"><path d="M0 -11L11 0L0 11L-11 0Z" stroke="#8B4513" fill="none" stroke-width="2"></path></g><g transform="translate(724 573)"><path d="M0 -13L13 0L0 13L-13 0Z" stroke="#8B4513" fill="none" stroke-width="2"></path></g></g></svg>