<svg id="visual" viewBox="0 0 900 600" width="900" height="600" xmlns="http://www.w3.org/2000/svg" xmlns:xlink="http://www.w3.org/1999/xlink" version="1.1"><rect x="0" y="0" width="900" height="600" fill="#140021"></rect><path d="M0 43L39 43L39 24L78 24L78 51L117 51L117 58L157 58L157 24L196 24L196 67L235 67L235 29L274 29L274 44L313 44L313 33L352 33L352 61L391 61L391 26L430 26L430 33L470 33L470 42L509 42L509 45L548 45L548 23L587 23L587 44L626 44L626 38L665 38L665 44L704 44L704 59L743 59L743 27L783 27L783 54L822 54L822 63L861 63L861 52L900 52L900 38L900 601L900 601L861 601L861 601L822 601L822 601L783 601L783 601L743 601L743 601L704 601L704 601L665 601L665 601L626 601L626 601L587 601L587 601L548 601L548 601L509 601L509 601L470 601L470 601L430 601L430 601L391 601L391 601L352 601L352 601L313 601L313 601L274 601L274 601L235 601L235 601L196 601L196 601L157 601L157 601L117 601L117 601L78 601L78 601L39 601L39 601L0 601Z" fill="#9900ff"></path><path d="M0 100L39 100L39 104L78 104L78 94L117 94L117 110L157 110L157 71L196 71L196 81L235 81L235 81L274 81L274 105L313 105L313 104L352 104L352 88L391 88L391 73L430 73L430 80L470 80L470 88L509 88L509 85L548 85L548 112L587 112L587 91L626 91L626 91L665 91L665 101L704 101L704 76L743 76L743 105L783 105L783 76L822 76L822 95L861 95L861 96L900 96L900 69L900 601L900 601L861 601L861 601L822 601L822 601L783 601L783 601L743 601L743 601L704 601L704 601L665 601L665 601L626 601L626 601L587 601L587 601L548 601L548 601L509 601L509 601L470 601L470 601L430 601L430 601L391 601L391 601L352 601L352 601L313 601L313 601L274 601L274 601L235 601L235 601L196 601L196 601L157 601L157 601L117 601L117 601L78 601L78 601L39 601L39 601L0 601Z" fill="#9300f4"></path><path d="M0 118L39 118L39 136L78 136L78 128L117 128L117 130L157 130L157 146L196 146L196 121L235 121L235 125L274 125L274 128L313 128L313 132L352 132L352 141L391 141L391 150L430 150L430 157L470 157L470 139L509 139L509 154L548 154L548 141L587 141L587 119L626 119L626 123L665 123L665 132L704 132L704 132L743 132L743 147L783 147L783 119L822 119L822 144L861 144L861 132L900 132L900 151L900 601L900 601L861 601L861 601L822 601L822 601L783 601L783 601L743 601L743 601L704 601L704 601L665 601L665 601L626 601L626 601L587 601L587 601L548 601L548 601L509 601L509 601L470 601L470 601L430 601L430 601L391 601L391 601L352 601L352 601L313 601L313 601L274 601L274 601L235 601L235 601L196 601L196 601L157 601L157 601L117 601L117 601L78 601L78 601L39 601L39 601L0 601Z" fill="#8d00ea"></path><path d="M0 172L39 172L39 179L78 179L78 189L117 189L117 162L157 162L157 177L196 177L196 184L235 184L235 199L274 199L274 182L313 182L313 200L352 200L352 203L391 203L391 162L430 162L430 186L470 186L470 163L509 163L509 186L548 186L548 180L587 180L587 199L626 199L626 195L665 195L665 170L704 170L704 193L743 193L743 184L783 184L783 171L822 171L822 177L861 177L861 203L900 203L900 201L900 601L900 601L861 601L861 601L822 601L822 601L783 601L783 601L743 601L743 601L704 601L704 601L665 601L665 601L626 601L626 601L587 601L587 601L548 601L548 601L509 601L509 601L470 601L470 601L430 601L430 601L391 601L391 601L352 601L352 601L313 601L313 601L274 601L274 601L235 601L235 601L196 601L196 601L157 601L157 601L117 601L117 601L78 601L78 601L39 601L39 601L0 601Z" fill="#8600e0"></path><path d="M0 232L39 232L39 236L78 236L78 246L117 246L117 221L157 221L157 221L196 221L196 232L235 232L235 226L274 226L274 249L313 249L313 243L352 243L352 247L391 247L391 236L430 236L430 243L470 243L470 213L509 213L509 224L548 224L548 240L587 240L587 228L626 228L626 212L665 212L665 209L704 209L704 231L743 231L743 227L783 227L783 227L822 227L822 244L861 244L861 223L900 223L900 209L900 601L900 601L861 601L861 601L822 601L822 601L783 601L783 601L743 601L743 601L704 601L704 601L665 601L665 601L626 601L626 601L587 601L587 601L548 601L548 601L509 601L509 601L470 601L470 601L430 601L430 601L391 601L391 601L352 601L352 601L313 601L313 601L274 601L274 601L235 601L235 601L196 601L196 601L157 601L157 601L117 601L117 601L78 601L78 601L39 601L39 601L0 601Z" fill="#8000d5"></path><path d="M0 287L39 287L39 275L78 275L78 295L117 295L117 256L157 256L157 285L196 285L196 260L235 260L235 281L274 281L274 277L313 277L313 287L352 287L352 258L391 258L391 279L430 279L430 266L470 266L470 273L509 273L509 289L548 289L548 294L587 294L587 264L626 264L626 283L665 283L665 289L704 289L704 294L743 294L743 261L783 261L783 257L822 257L822 294L861 294L861 270L900 270L900 293L900 601L900 601L861 601L861 601L822 601L822 601L783 601L783 601L743 601L743 601L704 601L704 601L665 601L665 601L626 601L626 601L587 601L587 601L548 601L548 601L509 601L509 601L470 601L470 601L430 601L430 601L391 601L391 601L352 601L352 601L313 601L313 601L274 601L274 601L235 601L235 601L196 601L196 601L157 601L157 601L117 601L117 601L78 601L78 601L39 601L39 601L0 601Z" fill="#7a00cb"></path><path d="M0 331L39 331L39 335L78 335L78 344L117 344L117 326L157 326L157 312L196 312L196 303L235 303L235 319L274 319L274 320L313 320L313 315L352 315L352 326L391 326L391 304L430 304L430 300L470 300L470 308L509 308L509 303L548 303L548 307L587 307L587 331L626 331L626 333L665 333L665 330L704 330L704 344L743 344L743 319L783 319L783 312L822 312L822 311L861 311L861 328L900 328L900 305L900 601L900 601L861 601L861 601L822 601L822 601L783 601L783 601L743 601L743 601L704 601L704 601L665 601L665 601L626 601L626 601L587 601L587 601L548 601L548 601L509 601L509 601L470 601L470 601L430 601L430 601L391 601L391 601L352 601L352 601L313 601L313 601L274 601L274 601L235 601L235 601L196 601L196 601L157 601L157 601L117 601L117 601L78 601L78 601L39 601L39 601L0 601Z" fill="#7400c1"></path><path d="M0 382L39 382L39 371L78 371L78 359L117 359L117 376L157 376L157 372L196 372L196 350L235 350L235 383L274 383L274 365L313 365L313 358L352 358L352 374L391 374L391 372L430 372L430 378L470 378L470 371L509 371L509 357L548 357L548 348L587 348L587 357L626 357L626 353L665 353L665 361L704 361L704 365L743 365L743 369L783 369L783 348L822 348L822 375L861 375L861 356L900 356L900 366L900 601L900 601L861 601L861 601L822 601L822 601L783 601L783 601L743 601L743 601L704 601L704 601L665 601L665 601L626 601L626 601L587 601L587 601L548 601L548 601L509 601L509 601L470 601L470 601L430 601L430 601L391 601L391 601L352 601L352 601L313 601L313 601L274 601L274 601L235 601L235 601L196 601L196 601L157 601L157 601L117 601L117 601L78 601L78 601L39 601L39 601L0 601Z" fill="#6e00b7"></path><path d="M0 399L39 399L39 403L78 403L78 415L117 415L117 420L157 420L157 425L196 425L196 433L235 433L235 422L274 422L274 396L313 396L313 408L352 408L352 421L391 421L391 412L430 412L430 432L470 432L470 433L509 433L509 410L548 410L548 411L587 411L587 394L626 394L626 425L665 425L665 436L704 436L704 415L743 415L743 416L783 416L783 407L822 407L822 416L861 416L861 412L900 412L900 396L900 601L900 601L861 601L861 601L822 601L822 601L783 601L783 601L743 601L743 601L704 601L704 601L665 601L665 601L626 601L626 601L587 601L587 601L548 601L548 601L509 601L509 601L470 601L470 601L430 601L430 601L391 601L391 601L352 601L352 601L313 601L313 601L274 601L274 601L235 601L235 601L196 601L196 601L157 601L157 601L117 601L117 601L78 601L78 601L39 601L39 601L0 601Z" fill="#6800ad"></path><path d="M0 438L39 438L39 473L78 473L78 478L117 478L117 463L157 463L157 472L196 472L196 462L235 462L235 484L274 484L274 450L313 450L313 449L352 449L352 471L391 471L391 469L430 469L430 469L470 469L470 438L509 438L509 450L548 450L548 459L587 459L587 449L626 449L626 455L665 455L665 449L704 449L704 444L743 444L743 465L783 465L783 451L822 451L822 480L861 480L861 462L900 462L900 469L900 601L900 601L861 601L861 601L822 601L822 601L783 601L783 601L743 601L743 601L704 601L704 601L665 601L665 601L626 601L626 601L587 601L587 601L548 601L548 601L509 601L509 601L470 601L470 601L430 601L430 601L391 601L391 601L352 601L352 601L313 601L313 601L274 601L274 601L235 601L235 601L196 601L196 601L157 601L157 601L117 601L117 601L78 601L78 601L39 601L39 601L0 601Z" fill="#6200a3"></path><path d="M0 486L39 486L39 485L78 485L78 511L117 511L117 500L157 500L157 497L196 497L196 489L235 489L235 488L274 488L274 500L313 500L313 501L352 501L352 497L391 497L391 500L430 500L430 499L470 499L470 525L509 525L509 496L548 496L548 526L587 526L587 527L626 527L626 522L665 522L665 484L704 484L704 497L743 497L743 494L783 494L783 517L822 517L822 502L861 502L861 522L900 522L900 502L900 601L900 601L861 601L861 601L822 601L822 601L783 601L783 601L743 601L743 601L704 601L704 601L665 601L665 601L626 601L626 601L587 601L587 601L548 601L548 601L509 601L509 601L470 601L470 601L430 601L430 601L391 601L391 601L352 601L352 601L313 601L313 601L274 601L274 601L235 601L235 601L196 601L196 601L157 601L157 601L117 601L117 601L78 601L78 601L39 601L39 601L0 601Z" fill="#5c009a"></path><path d="M0 538L39 538L39 551L78 551L78 566L117 566L117 537L157 537L157 562L196 562L196 559L235 559L235 533L274 533L274 552L313 552L313 566L352 566L352 542L391 542L391 535L430 535L430 559L470 559L470 573L509 573L509 569L548 569L548 536L587 536L587 536L626 536L626 539L665 539L665 541L704 541L704 557L743 557L743 565L783 565L783 572L822 572L822 559L861 559L861 544L900 544L900 542L900 601L900 601L861 601L861 601L822 601L822 601L783 601L783 601L743 601L743 601L704 601L704 601L665 601L665 601L626 601L626 601L587 601L587 601L548 601L548 601L509 601L509 601L470 601L470 601L430 601L430 601L391 601L391 601L352 601L352 601L313 601L313 601L274 601L274 601L235 601L235 601L196 601L196 601L157 601L157 601L117 601L117 601L78 601L78 601L39 601L39 601L0 601Z" fill="#560090"></path></svg>