<svg id="visual" viewBox="0 0 900 30" width="900" height="30" xmlns="http://www.w3.org/2000/svg" xmlns:xlink="http://www.w3.org/1999/xlink" version="1.1"><path d="M0 14L4.8 14.7C9.7 15.3 19.3 16.7 29 14.8C38.7 13 48.3 8 58 6.8C67.7 5.7 77.3 8.3 87 11.3C96.7 14.3 106.3 17.7 116 19.2C125.7 20.7 135.3 20.3 145 20.8C154.7 21.3 164.3 22.7 174 20.2C183.7 17.7 193.3 11.3 203 9.2C212.7 7 222.3 9 232 11.2C241.7 13.3 251.3 15.7 261 17.3C270.7 19 280.3 20 290 19.8C299.7 19.7 309.3 18.3 319 15.7C328.7 13 338.3 9 348 10.8C357.7 12.7 367.3 20.3 377 22.5C386.7 24.7 396.3 21.3 406 20C415.7 18.7 425.3 19.3 435.2 19.2C445 19 455 18 464.8 15.2C474.7 12.3 484.3 7.7 494 5.7C503.7 3.7 513.3 4.3 523 5.5C532.7 6.7 542.3 8.3 552 11.7C561.7 15 571.3 20 581 19.2C590.7 18.3 600.3 11.7 610 9.8C619.7 8 629.3 11 639 14.8C648.7 18.7 658.3 23.3 668 22.3C677.7 21.3 687.3 14.7 697 14C706.7 13.3 716.3 18.7 726 20.7C735.7 22.7 745.3 21.3 755 18.5C764.7 15.7 774.3 11.3 784 12.2C793.7 13 803.3 19 813 18C822.7 17 832.3 9 842 6.7C851.7 4.3 861.3 7.7 871 11.5C880.7 15.3 890.3 19.7 895.2 21.8L900 24L900 0L895.2 0C890.3 0 880.7 0 871 0C861.3 0 851.7 0 842 0C832.3 0 822.7 0 813 0C803.3 0 793.7 0 784 0C774.3 0 764.7 0 755 0C745.3 0 735.7 0 726 0C716.3 0 706.7 0 697 0C687.3 0 677.7 0 668 0C658.3 0 648.7 0 639 0C629.3 0 619.7 0 610 0C600.3 0 590.7 0 581 0C571.3 0 561.7 0 552 0C542.3 0 532.7 0 523 0C513.3 0 503.7 0 494 0C484.3 0 474.7 0 464.8 0C455 0 445 0 435.2 0C425.3 0 415.7 0 406 0C396.3 0 386.7 0 377 0C367.3 0 357.7 0 348 0C338.3 0 328.7 0 319 0C309.3 0 299.7 0 290 0C280.3 0 270.7 0 261 0C251.3 0 241.7 0 232 0C222.3 0 212.7 0 203 0C193.3 0 183.7 0 174 0C164.3 0 154.7 0 145 0C135.3 0 125.7 0 116 0C106.3 0 96.7 0 87 0C77.3 0 67.7 0 58 0C48.3 0 38.7 0 29 0C19.3 0 9.7 0 4.8 0L0 0Z" fill="#3a3a3a" stroke-linecap="round" stroke-linejoin="miter"></path></svg>