<?xml version="1.0" standalone="no"?>
<svg xmlns:xlink="http://www.w3.org/1999/xlink" id="wave" style="transform:rotate(180deg); transition: 0.3s" viewBox="0 0 1440 100" version="1.1" xmlns="http://www.w3.org/2000/svg"><defs><linearGradient id="sw-gradient-0" x1="0" x2="0" y1="1" y2="0"><stop stop-color="rgba(62, 243, 200.081, 1)" offset="0%"/><stop stop-color="rgba(180.267, 255, 11, 1)" offset="100%"/></linearGradient></defs><path style="transform:translate(0, 0px); opacity:1" fill="url(#sw-gradient-0)" d="M0,10L10,23.3C20,37,40,63,60,70C80,77,100,63,120,51.7C140,40,160,30,180,33.3C200,37,220,53,240,65C260,77,280,83,300,75C320,67,340,43,360,38.3C380,33,400,47,420,53.3C440,60,460,60,480,50C500,40,520,20,540,11.7C560,3,580,7,600,21.7C620,37,640,63,660,66.7C680,70,700,50,720,41.7C740,33,760,37,780,46.7C800,57,820,73,840,71.7C860,70,880,50,900,43.3C920,37,940,43,960,38.3C980,33,1000,17,1020,18.3C1040,20,1060,40,1080,43.3C1100,47,1120,33,1140,26.7C1160,20,1180,20,1200,25C1220,30,1240,40,1260,50C1280,60,1300,70,1320,73.3C1340,77,1360,73,1380,73.3C1400,73,1420,77,1430,78.3L1440,80L1440,100L1430,100C1420,100,1400,100,1380,100C1360,100,1340,100,1320,100C1300,100,1280,100,1260,100C1240,100,1220,100,1200,100C1180,100,1160,100,1140,100C1120,100,1100,100,1080,100C1060,100,1040,100,1020,100C1000,100,980,100,960,100C940,100,920,100,900,100C880,100,860,100,840,100C820,100,800,100,780,100C760,100,740,100,720,100C700,100,680,100,660,100C640,100,620,100,600,100C580,100,560,100,540,100C520,100,500,100,480,100C460,100,440,100,420,100C400,100,380,100,360,100C340,100,320,100,300,100C280,100,260,100,240,100C220,100,200,100,180,100C160,100,140,100,120,100C100,100,80,100,60,100C40,100,20,100,10,100L0,100Z"/><defs><linearGradient id="sw-gradient-1" x1="0" x2="0" y1="1" y2="0"><stop stop-color="rgba(101.725, 243, 62, 1)" offset="0%"/><stop stop-color="rgba(220.088, 255, 0, 1)" offset="100%"/></linearGradient></defs><path style="transform:translate(0, 50px); opacity:0.9" fill="url(#sw-gradient-1)" d="M0,0L10,5C20,10,40,20,60,20C80,20,100,10,120,20C140,30,160,60,180,60C200,60,220,30,240,23.3C260,17,280,33,300,41.7C320,50,340,50,360,45C380,40,400,30,420,21.7C440,13,460,7,480,15C500,23,520,47,540,51.7C560,57,580,43,600,31.7C620,20,640,10,660,8.3C680,7,700,13,720,23.3C740,33,760,47,780,50C800,53,820,47,840,38.3C860,30,880,20,900,18.3C920,17,940,23,960,31.7C980,40,1000,50,1020,45C1040,40,1060,20,1080,21.7C1100,23,1120,47,1140,56.7C1160,67,1180,63,1200,63.3C1220,63,1240,67,1260,68.3C1280,70,1300,70,1320,66.7C1340,63,1360,57,1380,45C1400,33,1420,17,1430,8.3L1440,0L1440,100L1430,100C1420,100,1400,100,1380,100C1360,100,1340,100,1320,100C1300,100,1280,100,1260,100C1240,100,1220,100,1200,100C1180,100,1160,100,1140,100C1120,100,1100,100,1080,100C1060,100,1040,100,1020,100C1000,100,980,100,960,100C940,100,920,100,900,100C880,100,860,100,840,100C820,100,800,100,780,100C760,100,740,100,720,100C700,100,680,100,660,100C640,100,620,100,600,100C580,100,560,100,540,100C520,100,500,100,480,100C460,100,440,100,420,100C400,100,380,100,360,100C340,100,320,100,300,100C280,100,260,100,240,100C220,100,200,100,180,100C160,100,140,100,120,100C100,100,80,100,60,100C40,100,20,100,10,100L0,100Z"/></svg>