<svg id="visual" viewBox="0 0 900 600" width="900" height="600" xmlns="http://www.w3.org/2000/svg" xmlns:xlink="http://www.w3.org/1999/xlink" version="1.1"><rect width="900" height="600" fill="#f5f5dc"></rect><g><g transform="translate(797 54)"><path d="M0 -21.7L18.8 10.9L-18.8 10.9Z" stroke="#8B4513" fill="none" stroke-width="2"></path></g><g transform="translate(578 404)"><path d="M0 -2L1.7 1L-1.7 1Z" stroke="#8B4513" fill="none" stroke-width="2"></path></g><g transform="translate(88 379)"><path d="M0 -6L5.2 3L-5.2 3Z" stroke="#8B4513" fill="none" stroke-width="2"></path></g><g transform="translate(183 375)"><path d="M0 -18L15.6 9L-15.6 9Z" stroke="#8B4513" fill="none" stroke-width="2"></path></g><g transform="translate(384 485)"><path d="M0 -17L14.7 8.5L-14.7 8.5Z" stroke="#8B4513" fill="none" stroke-width="2"></path></g><g transform="translate(505 385)"><path d="M0 -19L16.5 9.5L-16.5 9.5Z" stroke="#8B4513" fill="none" stroke-width="2"></path></g><g transform="translate(535 420)"><path d="M0 -9L7.8 4.5L-7.8 4.5Z" stroke="#8B4513" fill="none" stroke-width="2"></path></g><g transform="translate(45 111)"><path d="M0 -8L6.9 4L-6.9 4Z" stroke="#8B4513" fill="none" stroke-width="2"></path></g><g transform="translate(606 460)"><path d="M0 -5L4.3 2.5L-4.3 2.5Z" stroke="#8B4513" fill="none" stroke-width="2"></path></g><g transform="translate(523 518)"><path d="M0 -13L11.3 6.5L-11.3 6.5Z" stroke="#8B4513" fill="none" stroke-width="2"></path></g><g transform="translate(637 187)"><path d="M0 -4L3.5 2L-3.5 2Z" stroke="#8B4513" fill="none" stroke-width="2"></path></g><g transform="translate(268 477)"><path d="M0 -19L16.5 9.5L-16.5 9.5Z" stroke="#8B4513" fill="none" stroke-width="2"></path></g><g transform="translate(520 572)"><path d="M0 -11L9.5 5.5L-9.5 5.5Z" stroke="#8B4513" fill="none" stroke-width="2"></path></g><g transform="translate(861 486)"><path d="M0 -18L15.6 9L-15.6 9Z" stroke="#8B4513" fill="none" stroke-width="2"></path></g><g transform="translate(452 106)"><path d="M0 -2L1.7 1L-1.7 1Z" stroke="#8B4513" fill="none" stroke-width="2"></path></g><g transform="translate(388 336)"><path d="M0 -7L6.1 3.5L-6.1 3.5Z" stroke="#8B4513" fill="none" stroke-width="2"></path></g><g transform="translate(396 555)"><path d="M0 -4L3.5 2L-3.5 2Z" stroke="#8B4513" fill="none" stroke-width="2"></path></g><g transform="translate(770 566)"><path d="M0 -15L13 7.5L-13 7.5Z" stroke="#8B4513" fill="none" stroke-width="2"></path></g><g transform="translate(142 453)"><path d="M0 -13L11.3 6.5L-11.3 6.5Z" stroke="#8B4513" fill="none" stroke-width="2"></path></g><g transform="translate(597 339)"><path d="M0 -19L16.5 9.5L-16.5 9.5Z" stroke="#8B4513" fill="none" stroke-width="2"></path></g><g transform="translate(73 33)"><path d="M0 -14L12.1 7L-12.1 7Z" stroke="#8B4513" fill="none" stroke-width="2"></path></g><g transform="translate(172 286)"><path d="M0 -11L9.5 5.5L-9.5 5.5Z" stroke="#8B4513" fill="none" stroke-width="2"></path></g><g transform="translate(393 228)"><path d="M0 -18L15.6 9L-15.6 9Z" stroke="#8B4513" fill="none" stroke-width="2"></path></g><g transform="translate(102 192)"><path d="M0 -20L17.3 10L-17.3 10Z" stroke="#8B4513" fill="none" stroke-width="2"></path></g><g transform="translate(163 35)"><path d="M0 -3L2.6 1.5L-2.6 1.5Z" stroke="#8B4513" fill="none" stroke-width="2"></path></g><g transform="translate(444 532)"><path d="M0 -2L1.7 1L-1.7 1Z" stroke="#8B4513" fill="none" stroke-width="2"></path></g><g transform="translate(757 219)"><path d="M0 -14L12.1 7L-12.1 7Z" stroke="#8B4513" fill="none" stroke-width="2"></path></g><g transform="translate(707 193)"><path d="M0 -3L2.6 1.5L-2.6 1.5Z" stroke="#8B4513" fill="none" stroke-width="2"></path></g><g transform="translate(425 445)"><path d="M0 -4L3.5 2L-3.5 2Z" stroke="#8B4513" fill="none" stroke-width="2"></path></g><g transform="translate(488 211)"><path d="M0 -17L14.7 8.5L-14.7 8.5Z" stroke="#8B4513" fill="none" stroke-width="2"></path></g><g transform="translate(154 112)"><path d="M0 -19L16.5 9.5L-16.5 9.5Z" stroke="#8B4513" fill="none" stroke-width="2"></path></g><g transform="translate(386 115)"><path d="M0 -20L17.3 10L-17.3 10Z" stroke="#8B4513" fill="none" stroke-width="2"></path></g><g transform="translate(550 218)"><path d="M0 -10L8.7 5L-8.7 5Z" stroke="#8B4513" fill="none" stroke-width="2"></path></g><g transform="translate(130 302)"><path d="M0 -12L10.4 6L-10.4 6Z" stroke="#8B4513" fill="none" stroke-width="2"></path></g><g transform="translate(845 205)"><path d="M0 -6L5.2 3L-5.2 3Z" stroke="#8B4513" fill="none" stroke-width="2"></path></g><g transform="translate(605 69)"><path d="M0 -9L7.8 4.5L-7.8 4.5Z" stroke="#8B4513" fill="none" stroke-width="2"></path></g><g transform="translate(208 319)"><path d="M0 -8L6.9 4L-6.9 4Z" stroke="#8B4513" fill="none" stroke-width="2"></path></g><g transform="translate(716 317)"><path d="M0 -6L5.2 3L-5.2 3Z" stroke="#8B4513" fill="none" stroke-width="2"></path></g><g transform="translate(259 88)"><path d="M0 -18L15.6 9L-15.6 9Z" stroke="#8B4513" fill="none" stroke-width="2"></path></g><g transform="translate(783 422)"><path d="M0 -11L9.5 5.5L-9.5 5.5Z" stroke="#8B4513" fill="none" stroke-width="2"></path></g><g transform="translate(335 68)"><path d="M0 -2L1.7 1L-1.7 1Z" stroke="#8B4513" fill="none" stroke-width="2"></path></g><g transform="translate(525 101)"><path d="M0 -8L6.9 4L-6.9 4Z" stroke="#8B4513" fill="none" stroke-width="2"></path></g><g transform="translate(289 421)"><path d="M0 -7L6.1 3.5L-6.1 3.5Z" stroke="#8B4513" fill="none" stroke-width="2"></path></g><g transform="translate(370 441)"><path d="M0 -6L5.2 3L-5.2 3Z" stroke="#8B4513" fill="none" stroke-width="2"></path></g></g></svg>